<svg width="78" height="44" viewBox="0 0 78 44" fill="none" xmlns="http://www.w3.org/2000/svg">
<path d="M15.7587 36.4888H12.3027L3.45601 22.2751V36.4888H0V16.4562H3.45601L12.3441 30.7283V16.4562H15.767V36.4888H15.7587Z" fill="#3C2415"/>
<path d="M26.0275 36.7639C23.9275 36.7639 22.2243 36.097 20.9179 34.7632C19.6116 33.4293 18.9584 31.6537 18.9584 29.4278V29.011C18.9584 27.5271 19.2395 26.1933 19.81 25.0261C20.3805 23.859 21.1742 22.942 22.2077 22.2918C23.233 21.6415 24.3822 21.3164 25.6472 21.3164C27.6563 21.3164 29.2107 21.9667 30.3103 23.2588C31.41 24.551 31.9557 26.385 31.9557 28.7526V30.1031H22.2987C22.3979 31.3285 22.803 32.3039 23.5223 33.0208C24.2334 33.7378 25.1346 34.0962 26.2177 34.0962C27.739 34.0962 28.9709 33.4794 29.93 32.2372L31.7159 33.9545C31.1289 34.8465 30.3351 35.5385 29.3513 36.022C28.3591 36.5222 27.2512 36.7639 26.0275 36.7639ZM25.6307 24.0091C24.7212 24.0091 23.9854 24.3342 23.4231 24.9761C22.8609 25.618 22.5054 26.51 22.3483 27.6605H28.665V27.4104C28.5906 26.2933 28.293 25.443 27.7803 24.8678C27.2677 24.2925 26.5484 24.0091 25.6307 24.0091Z" fill="#3C2415"/>
<path d="M42.795 32.4456C42.795 31.8537 42.5552 31.3952 42.0674 31.0868C41.5796 30.7783 40.7693 30.5032 39.6449 30.2615C38.5205 30.0197 37.5779 29.7196 36.8173 29.3528C35.1637 28.5441 34.3369 27.377 34.3369 25.8431C34.3369 24.5593 34.8743 23.4839 35.9491 22.6252C37.024 21.7666 38.3882 21.3331 40.0418 21.3331C41.8028 21.3331 43.2332 21.7749 44.3163 22.6502C45.3994 23.5339 45.9451 24.676 45.9451 26.0765H42.6296C42.6296 25.4346 42.3899 24.9011 41.9186 24.4759C41.4473 24.0508 40.819 23.834 40.0335 23.834C39.3059 23.834 38.7106 24.0007 38.2559 24.3425C37.7929 24.6843 37.5696 25.1345 37.5696 25.7014C37.5696 26.2183 37.7846 26.6184 38.2145 26.9018C38.6445 27.1853 39.5044 27.4687 40.8107 27.7605C42.1088 28.0523 43.134 28.3941 43.8781 28.7942C44.6222 29.1944 45.1679 29.6696 45.5317 30.2281C45.8872 30.7867 46.0691 31.4702 46.0691 32.2622C46.0691 33.6044 45.5152 34.6881 44.4155 35.5134C43.3159 36.3471 41.869 36.7556 40.0914 36.7556C38.8843 36.7556 37.8011 36.5388 36.8586 36.097C35.9161 35.6552 35.1719 35.0549 34.6511 34.2796C34.1219 33.5127 33.8573 32.679 33.8573 31.787H37.0818C37.1232 32.579 37.4208 33.1876 37.9665 33.6127C38.5122 34.0379 39.2315 34.2546 40.1327 34.2546C41.0091 34.2546 41.6706 34.0879 42.1253 33.7544C42.5718 33.421 42.795 32.9875 42.795 32.4456Z" fill="#3C2415"/>
<path d="M53.0969 17.9818V21.5998H59.4301V24.0758H53.0969V32.3873C53.0969 32.9541 53.2044 33.3626 53.4276 33.6211C53.6508 33.8712 54.0477 33.9962 54.6182 33.9962C54.9985 33.9962 55.3871 33.9462 55.7757 33.8545V36.4388C55.0233 36.6472 54.2957 36.7556 53.593 36.7556C51.0464 36.7556 49.7732 35.3384 49.7732 32.504V24.0758H47.3424V21.5998H49.7732V17.9818H53.0969V17.9818Z" fill="#3C2415"/>
<path d="M1.78589 41.7325L2.74497 39.7401H3.54696L2.14968 42.3995V43.95H1.42209V42.3995L0.0165405 39.7401H0.826801L1.78589 41.7325Z" fill="#C49A6C"/>
<path d="M7.35848 41.9492C7.35848 42.3577 7.28407 42.7245 7.14351 43.033C7.00295 43.3414 6.79625 43.5832 6.53995 43.7499C6.27537 43.9167 5.97773 44 5.63047 44C5.29148 44 4.99384 43.9167 4.72926 43.7499C4.46469 43.5832 4.25799 43.3498 4.11743 43.0413C3.97688 42.7329 3.90247 42.3744 3.90247 41.9743V41.7408C3.90247 41.3323 3.97688 40.9655 4.11743 40.6571C4.25799 40.3403 4.46469 40.1069 4.72926 39.9402C4.99384 39.7734 5.29148 39.6901 5.63047 39.6901C5.96946 39.6901 6.27537 39.7734 6.53168 39.9402C6.79625 40.1069 6.99469 40.3403 7.14351 40.6488C7.28407 40.9572 7.35848 41.3157 7.35848 41.7242V41.9492V41.9492ZM6.6309 41.7325C6.6309 41.2657 6.53995 40.9072 6.36632 40.6654C6.19269 40.4153 5.94465 40.2903 5.6222 40.2903C5.30802 40.2903 5.06825 40.4153 4.88635 40.6571C4.71273 40.9072 4.62178 41.2573 4.61351 41.7075V41.9492C4.61351 42.4078 4.70446 42.7662 4.87809 43.0163C5.05998 43.2664 5.30802 43.3915 5.6222 43.3915C5.94465 43.3915 6.19269 43.2664 6.36632 43.0247C6.53995 42.7746 6.62263 42.4161 6.62263 41.9492V41.7325H6.6309Z" fill="#C49A6C"/>
<path d="M11.2444 39.7401V42.5495C11.2444 42.9997 11.1039 43.3498 10.8228 43.6082C10.5417 43.8666 10.1613 44 9.69006 44C9.21051 44 8.83019 43.875 8.55735 43.6166C8.27624 43.3581 8.13568 42.9997 8.13568 42.5495V39.7401H8.85499V42.5495C8.85499 42.8329 8.9294 43.0413 9.06996 43.1914C9.21051 43.3414 9.41721 43.4165 9.69006 43.4165C10.244 43.4165 10.5251 43.1164 10.5251 42.5245V39.7318H11.2444V39.7401Z" fill="#C49A6C"/>
<path d="M13.667 42.3244H12.8567V43.9417H12.1291V39.7401H13.5925C14.0721 39.7401 14.4442 39.8485 14.7087 40.0652C14.9733 40.282 15.0973 40.5988 15.0973 41.0073C15.0973 41.2907 15.0312 41.5241 14.8989 41.7159C14.7666 41.9076 14.5764 42.0493 14.3367 42.1577L15.2709 43.9084V43.9417H14.4938L13.667 42.3244ZM12.8567 41.7409H13.6008C13.8489 41.7409 14.039 41.6825 14.1713 41.5575C14.3119 41.4324 14.378 41.2657 14.378 41.0489C14.378 40.8239 14.3119 40.6488 14.1878 40.5237C14.0638 40.3987 13.8737 40.3403 13.6174 40.332H12.8567V41.7409Z" fill="#C49A6C"/>
<path d="M20.7939 43.9417H20.0664L18.2061 40.9572V43.9417H17.4785V39.7401H18.2061L20.0664 42.7329V39.7401H20.7857V43.9417H20.7939Z" fill="#C49A6C"/>
<path d="M24.2086 42.066H22.4971V43.3581H24.498V43.9417H21.7696V39.7401H24.4732V40.332H22.4889V41.4908H24.2003V42.066H24.2086Z" fill="#C49A6C"/>
<path d="M26.6394 41.2574L27.5158 39.7401H28.3508L27.0941 41.8242L28.3839 43.9417H27.5323L26.6394 42.3995L25.7382 43.9417H24.8948L26.1846 41.8242L24.9196 39.7401H25.7547L26.6394 41.2574Z" fill="#C49A6C"/>
<path d="M32.0384 40.332H30.7403V43.95H30.021V40.332H28.7312V39.7401H32.0384V40.332Z" fill="#C49A6C"/>
<path d="M37.4208 43.9417H36.7015V42.0743H34.8412V43.9417H34.1136V39.7401H34.8412V41.4908H36.7015V39.7401H37.4208V43.9417Z" fill="#C49A6C"/>
<path d="M41.7202 41.9492C41.7202 42.3577 41.6458 42.7245 41.5052 43.033C41.3647 43.3414 41.158 43.5832 40.9016 43.7499C40.6371 43.9167 40.3394 44 39.9922 44C39.6532 44 39.3555 43.9167 39.091 43.7499C38.8264 43.5832 38.6197 43.3498 38.4791 43.0413C38.3386 42.7329 38.2642 42.3744 38.2642 41.9743V41.7408C38.2642 41.3323 38.3386 40.9655 38.4791 40.6571C38.6197 40.3403 38.8264 40.1069 39.091 39.9402C39.3555 39.7734 39.6532 39.6901 39.9922 39.6901C40.3312 39.6901 40.6371 39.7734 40.8934 39.9402C41.158 40.1069 41.3564 40.3403 41.5052 40.6488C41.6458 40.9572 41.7202 41.3157 41.7202 41.7242V41.9492V41.9492ZM41.0009 41.7325C41.0009 41.2657 40.9099 40.9072 40.7363 40.6654C40.5627 40.4153 40.3146 40.2903 39.9922 40.2903C39.678 40.2903 39.4382 40.4153 39.2563 40.6571C39.0744 40.8989 38.9917 41.2573 38.9835 41.7075V41.9492C38.9835 42.4078 39.0744 42.7662 39.2481 43.0163C39.4299 43.2664 39.678 43.3915 39.9922 43.3915C40.3146 43.3915 40.5627 43.2664 40.7363 43.0247C40.9099 42.7746 40.9926 42.4161 40.9926 41.9492V41.7325H41.0009Z" fill="#C49A6C"/>
<path d="M43.4978 39.7401L44.6966 42.958L45.8955 39.7401H46.8298V43.9417H46.1105V42.5578L46.1849 40.7071L44.9529 43.95H44.4321L43.2001 40.7155L43.2746 42.5662V43.95H42.5552V39.7484H43.4978V39.7401Z" fill="#C49A6C"/>
<path d="M50.2444 42.066H48.533V43.3581H50.5338V43.9417H47.8054V39.7401H50.5173V40.332H48.533V41.4908H50.2444V42.066Z" fill="#C49A6C"/>
<path d="M15.7588 16.4562L32.4187 5.41872L49.7814 17.9818H53.0969L32.4187 0L12.3358 16.4562" fill="#3C2415"/>
<path d="M31.9474 11.6044H29.8639V13.7052H31.9474V11.6044Z" fill="#3C2415"/>
<path d="M35.1802 11.6044H33.0966V13.7052H35.1802V11.6044Z" fill="#3C2415"/>
<path d="M31.9474 15.0807H29.8639V17.1815H31.9474V15.0807Z" fill="#3C2415"/>
<path d="M35.1802 15.0807H33.0966V17.1815H35.1802V15.0807Z" fill="#3C2415"/>
<path d="M68.6489 21.6666V23.6756H67.0201V36.9223H64.3082V34.7215C64.1181 34.9299 63.7956 35.0383 63.3492 35.0383H59.6782C58.0494 35.0383 57.2309 34.3047 57.2309 32.8375V29.8613C57.2309 29.136 57.5699 28.7359 58.2396 28.6525V28.5525C57.5699 28.4691 57.2309 28.0606 57.2309 27.3187V23.7423C57.2309 22.2751 58.0494 21.5415 59.6782 21.5415H60.7117C62.3239 21.5415 63.1342 22.2751 63.1342 23.7423V25.1762H61.4806V24.1842C61.4806 23.9257 61.4393 23.759 61.3483 23.6756C61.2574 23.5923 61.092 23.5506 60.8357 23.5506H60.6207C60.3644 23.5506 60.1908 23.5923 60.1081 23.6756C60.0172 23.759 59.9758 23.9257 59.9758 24.1842V26.9185C59.9758 27.1936 60.0172 27.377 60.1081 27.4604C60.1991 27.5521 60.3644 27.5938 60.6207 27.5938H62.2743V29.5946H60.6207C60.3644 29.5946 60.1908 29.6362 60.1081 29.7279C60.0172 29.8196 59.9758 29.9864 59.9758 30.2448V32.3456C59.9758 32.6207 60.0172 32.8041 60.1081 32.8875C60.1991 32.9792 60.3644 33.0209 60.6207 33.0209H63.498C63.8039 33.0209 64.0106 32.9625 64.1346 32.8375C64.2504 32.7207 64.3165 32.504 64.3165 32.1955V23.6756L64.2917 21.6666H68.6489Z" fill="#C49A6C"/>
<path d="M78 21.6665V23.6756H76.396C76.5035 23.809 76.5614 24.0174 76.5614 24.3008V28.1189C76.5614 28.9109 76.3216 29.4861 75.8503 29.8446C75.379 30.2114 74.6349 30.3865 73.6097 30.3865H71.8321V34.3797C71.8321 34.6381 71.8817 34.8132 71.9726 34.8965C72.0719 34.9882 72.2455 35.0299 72.5018 35.0299H73.2211C73.4609 35.0299 73.618 34.9882 73.7006 34.8965C73.7833 34.8048 73.8164 34.6381 73.8164 34.3797V31.887H76.5283V34.7131C76.5283 35.4717 76.3381 36.0303 75.9495 36.3804C75.5692 36.7389 74.916 36.9139 74.0066 36.9139H71.6585C70.749 36.9139 70.0958 36.7389 69.7072 36.3804C69.3186 36.0219 69.1202 35.4717 69.1202 34.7131V25.8764H71.8321V28.4191H73.0888C73.3947 28.4191 73.5932 28.3607 73.7006 28.2523C73.8081 28.1356 73.8577 27.9272 73.8577 27.6271V24.4592C73.8577 24.1341 73.8081 23.9257 73.7172 23.834C73.618 23.734 73.4113 23.6923 73.0971 23.6923H67.632V21.6832H78V21.6665Z" fill="#C49A6C"/>
</svg>
