<svg width="24" height="24" viewBox="0 0 24 24" fill="none" xmlns="http://www.w3.org/2000/svg">
<path d="M21 7V17C21 20 19.5 22 16 22H8C4.5 22 3 20 3 17V7C3 4 4.5 2 8 2H16C19.5 2 21 4 21 7Z" stroke="#A5CF7C" stroke-width="1.5" stroke-linecap="round" stroke-linejoin="round"/>
<path d="M15.5 2V9.86C15.5007 9.95758 15.4728 10.0532 15.4197 10.1351C15.3667 10.217 15.2909 10.2816 15.2016 10.321C15.1123 10.3603 15.0134 10.3727 14.9172 10.3565C14.821 10.3403 14.7316 10.2964 14.66 10.23L12.34 8.09C12.2476 8.00425 12.1261 7.95661 12 7.95661C11.8739 7.95661 11.7525 8.00425 11.66 8.09L9.34001 10.23C9.26847 10.2964 9.17907 10.3403 9.08284 10.3565C8.98661 10.3727 8.88775 10.3603 8.79845 10.321C8.70915 10.2816 8.63331 10.217 8.58028 10.1351C8.52725 10.0532 8.49935 9.95758 8.50001 9.86V2H15.5Z" stroke="#A5CF7C" stroke-width="1.5" stroke-linecap="round" stroke-linejoin="round"/>
<path d="M13.25 14H17.5" stroke="#A5CF7C" stroke-width="1.5" stroke-linecap="round" stroke-linejoin="round"/>
<path d="M9 18H17.5" stroke="#A5CF7C" stroke-width="1.5" stroke-linecap="round" stroke-linejoin="round"/>
</svg>
