<svg width="55" height="55" viewBox="0 0 55 55" fill="none" xmlns="http://www.w3.org/2000/svg">
<circle opacity="0.2" cx="27.5" cy="27.5" r="27.5" fill="#F37F7F"/>
<g clip-path="url(#clip0_250:23)">
<path d="M40.3939 21.4165H40.1516C40.0882 22.0656 39.9955 22.7041 39.875 23.3306H40.3939C42.1343 23.3306 43.5504 24.7466 43.5504 26.4871C43.5504 28.2277 42.1344 29.6436 40.3939 29.6436H37.5049C37.1063 30.3162 36.6702 30.9557 36.1995 31.5576H40.3939C43.1898 31.5576 45.4645 29.283 45.4645 26.4871C45.4645 23.6912 43.1898 21.4165 40.3939 21.4165Z" fill="#F2AD97"/>
<path d="M43.6196 22.5779C44.3446 23.4551 44.7809 24.5793 44.7809 25.8036C44.7809 28.5995 42.5062 30.8741 39.7103 30.8741H36.707C36.5425 31.1068 36.3735 31.335 36.1995 31.5577H40.3939C43.1898 31.5577 45.4645 29.2831 45.4645 26.4872C45.4645 24.9156 44.7456 23.5087 43.6196 22.5779Z" fill="#E59076"/>
<path d="M13.835 20.485C14.2027 27.3597 17.8458 33.1934 22.9568 35.8689H31.1024C36.2135 33.1934 39.8567 27.3596 40.2244 20.485C40.2453 20.0942 39.9318 19.7661 39.5407 19.7661H14.5187C14.1274 19.7661 13.8141 20.0944 13.835 20.485Z" fill="#FCC4AE"/>
<path d="M22.9273 18.3835C22.8696 18.3835 22.8115 18.3653 22.7622 18.3277C22.642 18.2363 22.6185 18.0648 22.7099 17.9446C23.5204 16.8779 23.5207 15.3878 22.7105 14.3209C21.7528 13.0595 21.7528 11.2977 22.7105 10.0365C22.8017 9.91633 22.9731 9.89281 23.0936 9.98414C23.2139 10.0755 23.2372 10.2469 23.1459 10.3672C22.3361 11.4338 22.3361 12.9236 23.1459 13.9903C24.104 15.252 24.1036 17.0142 23.1452 18.2756C23.0915 18.3463 23.0099 18.3835 22.9273 18.3835Z" fill="#7C3108"/>
<path d="M27.0289 18.3835C26.9712 18.3835 26.9131 18.3653 26.8637 18.3277C26.7435 18.2363 26.72 18.0648 26.8115 17.9446C27.622 16.8779 27.6222 15.3878 26.812 14.3209C25.8543 13.0595 25.8543 11.2977 26.812 10.0365C26.9034 9.91633 27.0747 9.89281 27.1951 9.98414C27.3154 10.0755 27.3388 10.2469 27.2475 10.3672C26.4377 11.4338 26.4377 12.9236 27.2475 13.9903C28.2056 15.252 28.2052 17.0142 27.2468 18.2756C27.1931 18.3463 27.1114 18.3835 27.0289 18.3835Z" fill="#7C3108"/>
<path d="M31.1304 18.3835C31.0727 18.3835 31.0146 18.3653 30.9653 18.3277C30.8451 18.2363 30.8216 18.0648 30.9131 17.9446C31.7235 16.8779 31.7238 15.3878 30.9136 14.3209C29.9559 13.0595 29.9559 11.2977 30.9136 10.0365C31.0048 9.91633 31.1764 9.89281 31.2967 9.98414C31.417 10.0755 31.4404 10.2469 31.349 10.3672C30.5393 11.4338 30.5393 12.9236 31.349 13.9903C32.3072 15.252 32.3068 17.0142 31.3484 18.2756C31.2946 18.3463 31.213 18.3835 31.1304 18.3835Z" fill="#7C3108"/>
<path d="M27.0298 32.2544C29.5593 32.2544 31.6099 30.2038 31.6099 27.6743C31.6099 25.1448 29.5593 23.0942 27.0298 23.0942C24.5003 23.0942 22.4497 25.1448 22.4497 27.6743C22.4497 30.2038 24.5003 32.2544 27.0298 32.2544Z" fill="#7C3108"/>
<path d="M29.908 24.1125C30.5444 24.8991 30.9263 25.9001 30.9263 26.9908C30.9263 29.5203 28.8758 31.5708 26.3462 31.5708C25.2556 31.5708 24.2546 31.189 23.468 30.5526C24.3076 31.5904 25.591 32.2544 27.0298 32.2544C29.5594 32.2544 31.6099 30.2039 31.6099 27.6744C31.6099 26.2354 30.9457 24.9521 29.908 24.1125Z" fill="#6D2E03"/>
<path d="M26.8093 28.2228C26.6269 27.1602 26.4251 25.974 26.7971 24.8048C25.7742 24.9674 24.979 26.1877 24.979 27.6698C24.979 29.1842 25.8093 30.425 26.8645 30.5436C27.1005 29.9264 26.9644 29.127 26.8093 28.2228Z" fill="#F79219"/>
<path d="M27.3034 24.8123C26.9014 25.9071 27.0942 27.0397 27.2827 28.1382C27.4293 28.9922 27.5688 29.81 27.3812 30.5107C28.3463 30.2762 29.0806 29.094 29.0806 27.6698C29.0806 26.2076 28.3065 25.0005 27.3034 24.8123Z" fill="#F79219"/>
<path d="M27.3034 24.8123C27.2725 24.8963 27.2462 24.9808 27.2222 25.0653C27.9162 25.5274 28.3971 26.5184 28.3971 27.6698C28.3971 28.6891 28.0199 29.5822 27.4523 30.0949C27.438 30.237 27.4173 30.3766 27.3813 30.5107C28.3464 30.2762 29.0807 29.094 29.0807 27.6698C29.0806 26.2077 28.3065 25.0005 27.3034 24.8123Z" fill="#EF7816"/>
<path d="M17.3202 29.6023C17.2274 29.6023 17.137 29.555 17.0856 29.4698C15.7166 27.1943 14.8204 24.5329 14.4938 21.7731C14.4762 21.6231 14.5832 21.4872 14.7332 21.4695C14.8835 21.4516 15.0191 21.559 15.0369 21.7089C15.3543 24.3921 16.2248 26.9784 17.5541 29.1879C17.6319 29.3174 17.5902 29.4854 17.4607 29.5632C17.4169 29.5896 17.3683 29.6023 17.3202 29.6023ZM14.6662 20.9253C14.5232 20.9253 14.4029 20.8142 14.3936 20.6694L14.3895 20.604C14.3798 20.4534 14.4941 20.3233 14.6449 20.3135C14.7954 20.3056 14.9256 20.4182 14.9354 20.5689L14.9395 20.6344C14.9492 20.7852 14.8348 20.9152 14.6841 20.9249C14.678 20.925 14.6721 20.9253 14.6662 20.9253Z" fill="#FFD2C0"/>
<path d="M39.5406 19.7661H38.8124C38.2633 26.2901 34.758 31.7964 29.8874 34.4209C29.7877 34.4746 29.6758 34.5018 29.5626 34.5018H21.7625C21.6491 34.5018 21.537 34.4746 21.4372 34.4207C20.4138 33.8691 19.4513 33.1889 18.563 32.4C19.8383 33.8328 21.322 35.0131 22.9569 35.869H31.1024C36.2135 33.1935 39.8567 27.3597 40.2244 20.4851C40.2452 20.0944 39.9319 19.7661 39.5406 19.7661Z" fill="#F2AD97"/>
<path d="M39.5409 19.7661C39.5409 19.7779 39.5415 19.7895 39.5409 19.8014C39.1769 26.6075 35.6023 32.3935 30.5714 35.1043C30.4716 35.1581 30.3596 35.1853 30.2462 35.1853H22.4459C22.3327 35.1853 22.2207 35.1581 22.1212 35.1043C20.9599 34.4784 19.8772 33.687 18.8926 32.7588C20.0919 34.0301 21.4608 35.0857 22.957 35.8689H31.1025C36.2136 33.1934 39.8568 27.3596 40.2245 20.485C40.2453 20.0944 39.9321 19.7663 39.5409 19.7661Z" fill="#E59076"/>
<path d="M38.7157 39.5669H15.3439C13.8881 39.5669 12.5749 38.6914 12.0149 37.3476L11.5565 36.2476C11.4814 36.0675 11.6138 35.869 11.8089 35.869H42.2502C42.4453 35.869 42.5777 36.0675 42.5026 36.2476L42.0442 37.3478C41.4844 38.6916 40.1714 39.5669 38.7157 39.5669Z" fill="#FCC4AE"/>
<path d="M42.2503 35.869H41.6921L41.3607 36.6642C40.8007 38.008 39.4878 38.8833 38.032 38.8833H14.6602C13.8548 38.8833 13.0937 38.6143 12.479 38.1473C13.1508 39.0272 14.2025 39.5669 15.3438 39.5669H38.7156C40.1714 39.5669 41.4843 38.6916 42.0443 37.3478L42.5027 36.2476C42.5778 36.0675 42.4454 35.869 42.2503 35.869Z" fill="#F2AD97"/>
<path d="M38.4422 39.5668H15.6174V40.1145C15.6174 40.492 15.9235 40.7979 16.301 40.7979H37.7586C38.1361 40.7979 38.4422 40.4918 38.4422 40.1143V39.5668Z" fill="#E59076"/>
</g>
<defs>
<clipPath id="clip0_250:23">
<rect width="31" height="31" fill="white" transform="translate(13 10)"/>
</clipPath>
</defs>
</svg>
