<svg width="24" height="24" viewBox="0 0 24 24" fill="none" xmlns="http://www.w3.org/2000/svg">
<path d="M2 22H22" stroke="#B0C899" stroke-width="1.5" stroke-linecap="round" stroke-linejoin="round"/>
<path d="M15.01 21.989L3.01 22.009L3 7.06998C3.00105 6.74156 3.08275 6.41842 3.23794 6.12897C3.39313 5.83952 3.61704 5.59262 3.89 5.40998L7.89 2.73998C8.21837 2.51995 8.60473 2.40247 9 2.40247C9.39527 2.40247 9.78163 2.51995 10.11 2.73998L14.11 5.40998C14.3845 5.59108 14.6095 5.83764 14.7649 6.12744C14.9203 6.41724 15.0011 6.74116 15 7.06998L15.01 21.989Z" stroke="#B0C899" stroke-width="1.5" stroke-linecap="round" stroke-linejoin="round"/>
<path d="M19.98 22.01V18" stroke="#B0C899" stroke-width="1.5" stroke-linecap="round" stroke-linejoin="round"/>
<path d="M20 12C19.4701 12.0016 18.9623 12.2128 18.5875 12.5875C18.2128 12.9623 18.0016 13.4701 18 14V16C18 16.5304 18.2107 17.0391 18.5858 17.4142C18.9609 17.7893 19.4696 18 20 18C20.5304 18 21.0391 17.7893 21.4142 17.4142C21.7893 17.0391 22 16.5304 22 16V14C21.9984 13.4701 21.7872 12.9623 21.4125 12.5875C21.0377 12.2128 20.5299 12.0016 20 12V12Z" stroke="#B0C899" stroke-width="1.5" stroke-linecap="round" stroke-linejoin="round"/>
<path d="M3 14H15" stroke="#B0C899" stroke-width="1.5" stroke-linecap="round" stroke-linejoin="round"/>
<path d="M9 22V18.25" stroke="#B0C899" stroke-width="1.5" stroke-linecap="round" stroke-linejoin="round"/>
<path d="M10.5 9C10.5 9.29667 10.412 9.58668 10.2472 9.83336C10.0824 10.08 9.84812 10.2723 9.57403 10.3858C9.29994 10.4994 8.99834 10.5291 8.70737 10.4712C8.41639 10.4133 8.14912 10.2704 7.93934 10.0607C7.72956 9.85088 7.5867 9.58361 7.52882 9.29264C7.47094 9.00166 7.50065 8.70006 7.61418 8.42597C7.72771 8.15189 7.91997 7.91762 8.16665 7.7528C8.41332 7.58797 8.70333 7.5 9 7.5C9.39783 7.5 9.77936 7.65804 10.0607 7.93934C10.342 8.22064 10.5 8.60218 10.5 9Z" stroke="#B0C899" stroke-width="1.5" stroke-linecap="round" stroke-linejoin="round"/>
</svg>
