<svg width="42" height="33" viewBox="0 0 42 33" fill="none" xmlns="http://www.w3.org/2000/svg">
<path d="M39.4259 16.2361H2.31885V25.5138H39.4259V16.2361Z" fill="#B0C899"/>
<path d="M38.2669 6.30144V3.43378H3.479V6.30144H6.46078V23.8513H3.479V26.7189H38.2669V23.8513H35.2851V6.30144H38.2669ZM19.382 6.30144H22.3638V23.8513H19.382V6.30144ZM17.0629 23.8513H14.0811V6.30144H17.0629V23.8513ZM24.683 6.30144H27.6648V23.8513H24.683V6.30144ZM8.77997 6.30144H11.7617V23.8513H8.77997V6.30144ZM32.9659 23.8513H29.9841V6.30144H32.9659V23.8513Z" fill="#B0C899"/>
<path d="M3.15087 32.4721H1.48751C1.093 32.4721 0.714646 32.3153 0.435683 32.0364C0.15672 31.7574 0 31.379 0 30.9844L0 1.48767C0 1.09312 0.15672 0.714721 0.435683 0.435729C0.714646 0.156736 1.093 6.64205e-09 1.48751 6.64205e-09H3.15073C3.34608 -1.84546e-05 3.53953 0.0384474 3.72002 0.113202C3.90051 0.187956 4.0645 0.297534 4.20265 0.435679C4.34079 0.573824 4.45037 0.73783 4.52514 0.918332C4.5999 1.09883 4.63838 1.2923 4.63838 1.48767V30.9843C4.6384 31.1796 4.59994 31.3731 4.52519 31.5536C4.45044 31.7341 4.34088 31.8982 4.20275 32.0363C4.06462 32.1745 3.90063 32.2841 3.72015 32.3588C3.53966 32.4336 3.34622 32.4721 3.15087 32.4721Z" fill="#B0C899"/>
<g opacity="0.6">
<path opacity="0.6" d="M3.15143 0H1.48808C1.37771 0.000263266 1.26772 0.0128519 1.16016 0.0375324C1.48926 0.111894 1.7833 0.295951 1.99402 0.559488C2.20473 0.823024 2.3196 1.15038 2.31975 1.48781V30.9844C2.3196 31.3218 2.20473 31.6492 1.99402 31.9127C1.7833 32.1763 1.48926 32.3603 1.16016 32.4347C1.26774 32.4592 1.37772 32.4718 1.48808 32.4721H3.15129C3.34664 32.4721 3.54009 32.4336 3.72058 32.3589C3.90107 32.2841 4.06507 32.1746 4.20321 32.0364C4.34135 31.8983 4.45093 31.7343 4.5257 31.5538C4.60046 31.3733 4.63894 31.1798 4.63894 30.9844V1.48767C4.63894 1.09312 4.48222 0.714721 4.20326 0.435729C3.9243 0.156736 3.54594 0 3.15143 0Z" fill="#B0C899"/>
</g>
<path d="M40.2578 32.4721H38.5946C38.3992 32.4721 38.2058 32.4336 38.0253 32.3589C37.8448 32.2841 37.6808 32.1746 37.5427 32.0364C37.4045 31.8983 37.2949 31.7343 37.2202 31.5538C37.1454 31.3733 37.1069 31.1798 37.1069 30.9844V1.48767C37.1069 1.2923 37.1453 1.09883 37.2201 0.91832C37.2948 0.737811 37.4044 0.573797 37.5425 0.435646C37.6807 0.297496 37.8447 0.187916 38.0252 0.113167C38.2056 0.0384174 38.3991 -3.69062e-05 38.5944 2.65782e-08H40.2577C40.453 -1.84347e-05 40.6465 0.0384474 40.8269 0.113202C41.0074 0.187956 41.1714 0.297534 41.3096 0.435679C41.4477 0.573824 41.5573 0.73783 41.6321 0.918332C41.7068 1.09883 41.7453 1.2923 41.7453 1.48767V30.9843C41.7453 31.1796 41.7069 31.3731 41.6321 31.5536C41.5574 31.7341 41.4478 31.8982 41.3097 32.0363C41.1715 32.1745 41.0076 32.2841 40.8271 32.3588C40.6466 32.4336 40.4532 32.4721 40.2578 32.4721Z" fill="#B0C899"/>
<g opacity="0.6">
<path opacity="0.6" d="M40.2582 0H38.595C38.4846 0.000263266 38.3747 0.0128519 38.2671 0.0375325C38.5962 0.111894 38.8902 0.295951 39.101 0.559488C39.3117 0.823024 39.4265 1.15038 39.4267 1.48781V30.9844C39.4265 31.3219 39.3117 31.6492 39.101 31.9128C38.8902 32.1763 38.5962 32.3604 38.2671 32.4347C38.3747 32.4593 38.4847 32.4719 38.595 32.4722H40.2582C40.6527 32.4722 41.0311 32.3155 41.31 32.0365C41.589 31.7575 41.7457 31.3791 41.7457 30.9846V1.48767C41.7457 1.09312 41.589 0.714722 41.31 0.435729C41.0311 0.156737 40.6527 0 40.2582 0Z" fill="#B0C899"/>
</g>
<g style="mix-blend-mode:luminosity">
<path d="M39.4259 16.3093H2.31885V25.587H39.4259V16.3093Z" fill="#F5DB91"/>
<path d="M38.2669 6.37468V3.50702H3.479V6.37468H6.46078V23.9245H3.479V26.7922H38.2669V23.9245H35.2851V6.37468H38.2669ZM19.382 6.37468H22.3638V23.9245H19.382V6.37468ZM17.0629 23.9245H14.0811V6.37468H17.0629V23.9245ZM24.683 6.37468H27.6648V23.9245H24.683V6.37468ZM8.77997 6.37468H11.7617V23.9245H8.77997V6.37468ZM32.9659 23.9245H29.9841V6.37468H32.9659V23.9245Z" fill="#C3A99A"/>
<path d="M3.15087 32.5454H1.48751C1.093 32.5454 0.714646 32.3886 0.435683 32.1096C0.15672 31.8306 0 31.4522 0 31.0577L0 1.56094C0 1.16639 0.15672 0.787994 0.435683 0.509002C0.714646 0.230009 1.093 0.0732727 1.48751 0.0732727H3.15073C3.34608 0.0732543 3.53953 0.11172 3.72002 0.186474C3.90051 0.261229 4.0645 0.370807 4.20265 0.508952C4.34079 0.647097 4.45037 0.811103 4.52514 0.991604C4.5999 1.17211 4.63838 1.36557 4.63838 1.56094V31.0575C4.6384 31.2529 4.59994 31.4464 4.52519 31.6269C4.45044 31.8074 4.34088 31.9714 4.20275 32.1096C4.06462 32.2477 3.90063 32.3573 3.72015 32.4321C3.53966 32.5069 3.34622 32.5454 3.15087 32.5454Z" fill="#998272"/>
<g opacity="0.6">
<path opacity="0.6" d="M3.15143 0.0732727H1.48808C1.37771 0.073536 1.26772 0.0861246 1.16016 0.110805C1.48926 0.185167 1.7833 0.369224 1.99402 0.63276C2.20473 0.896296 2.3196 1.22365 2.31975 1.56108V31.0577C2.3196 31.3951 2.20473 31.7225 1.99402 31.986C1.7833 32.2495 1.48926 32.4336 1.16016 32.508C1.26774 32.5325 1.37772 32.5451 1.48808 32.5454H3.15129C3.34664 32.5454 3.54009 32.5069 3.72058 32.4322C3.90107 32.3574 4.06507 32.2478 4.20321 32.1097C4.34135 31.9715 4.45093 31.8075 4.5257 31.627C4.60046 31.4465 4.63894 31.2531 4.63894 31.0577V1.56094C4.63894 1.16639 4.48222 0.787994 4.20326 0.509002C3.9243 0.230009 3.54594 0.0732727 3.15143 0.0732727Z" fill="#BDC3C7"/>
</g>
<path d="M40.2578 32.5454H38.5946C38.3992 32.5454 38.2058 32.5069 38.0253 32.4322C37.8448 32.3574 37.6808 32.2478 37.5427 32.1097C37.4045 31.9715 37.2949 31.8075 37.2202 31.627C37.1454 31.4465 37.1069 31.2531 37.1069 31.0577V1.56094C37.1069 1.36557 37.1453 1.1721 37.2201 0.991593C37.2948 0.811084 37.4044 0.64707 37.5425 0.508919C37.6807 0.370769 37.8447 0.261189 38.0252 0.18644C38.2056 0.11169 38.3991 0.0732358 38.5944 0.0732727H40.2577C40.453 0.0732543 40.6465 0.11172 40.8269 0.186474C41.0074 0.261229 41.1714 0.370807 41.3096 0.508952C41.4477 0.647097 41.5573 0.811103 41.6321 0.991604C41.7068 1.17211 41.7453 1.36557 41.7453 1.56094V31.0575C41.7453 31.2529 41.7069 31.4464 41.6321 31.6269C41.5574 31.8074 41.4478 31.9714 41.3097 32.1096C41.1715 32.2477 41.0076 32.3573 40.8271 32.4321C40.6466 32.5069 40.4532 32.5454 40.2578 32.5454Z" fill="#998272"/>
<g opacity="0.6">
<path opacity="0.6" d="M40.2582 0.0732727H38.595C38.4846 0.073536 38.3747 0.0861247 38.2671 0.110805C38.5962 0.185167 38.8902 0.369224 39.101 0.632761C39.3117 0.896297 39.4265 1.22365 39.4267 1.56109V31.0577C39.4265 31.3951 39.3117 31.7225 39.101 31.986C38.8902 32.2496 38.5962 32.4336 38.2671 32.508C38.3747 32.5326 38.4847 32.5452 38.595 32.5455H40.2582C40.6527 32.5455 41.0311 32.3888 41.31 32.1098C41.589 31.8308 41.7457 31.4524 41.7457 31.0579V1.56095C41.7457 1.16639 41.589 0.787995 41.31 0.509002C41.0311 0.230009 40.6527 0.0732727 40.2582 0.0732727Z" fill="#BDC3C7"/>
</g>
</g>
</svg>
