<svg width="32" height="39" viewBox="0 0 32 39" fill="none" xmlns="http://www.w3.org/2000/svg">
<path d="M25.4836 38.0609C25.188 38.0609 24.9045 37.9435 24.6956 37.7344C24.4866 37.5254 24.3691 37.2419 24.3691 36.9463V34.4943C24.3691 34.1987 24.4866 33.9152 24.6956 33.7062C24.9045 33.4972 25.188 33.3798 25.4836 33.3798C25.7791 33.3798 26.0626 33.4972 26.2716 33.7062C26.4806 33.9152 26.598 34.1987 26.598 34.4943V36.9463C26.598 37.2419 26.4806 37.5254 26.2716 37.7344C26.0626 37.9435 25.7791 38.0609 25.4836 38.0609Z" fill="#B0C899"/>
<path d="M6.46404 38.0609C6.16848 38.0609 5.88502 37.9435 5.67602 37.7344C5.46702 37.5254 5.34961 37.2419 5.34961 36.9463V34.4943C5.34961 34.1987 5.46702 33.9152 5.67602 33.7062C5.88502 33.4972 6.16848 33.3798 6.46404 33.3798C6.75961 33.3798 7.04307 33.4972 7.25207 33.7062C7.46107 33.9152 7.57848 34.1987 7.57848 34.4943V36.9463C7.57848 37.2419 7.46107 37.5254 7.25207 37.7344C7.04307 37.9435 6.75961 38.0609 6.46404 38.0609Z" fill="#B0C899"/>
<path d="M31.9472 3.36115V32.2652C31.9461 33.1517 31.5935 34.0015 30.9667 34.6283C30.34 35.2552 29.4902 35.6078 28.6039 35.6089H3.34331C2.45694 35.6078 1.60718 35.2552 0.980426 34.6283C0.353669 34.0015 0.00108136 33.1517 0 32.2652V3.36115C0.00108136 2.47468 0.353669 1.62484 0.980426 0.998016C1.60718 0.371193 2.45694 0.018568 3.34331 0.0174866L28.6039 0.0174866C29.4902 0.018568 30.34 0.371193 30.9667 0.998016C31.5935 1.62484 31.9461 2.47468 31.9472 3.36115Z" fill="#B0C899"/>
<path d="M31.9472 3.36115V32.2652C31.9461 33.1517 31.5935 34.0015 30.9668 34.6283C30.34 35.2552 29.4903 35.6078 28.6039 35.6089H15.9736V0.0174866H28.6039C29.4903 0.018568 30.34 0.371193 30.9668 0.998016C31.5935 1.62484 31.9461 2.47468 31.9472 3.36115Z" fill="#B0C899"/>
<path d="M31.9472 24.956V32.2652C31.9461 33.1517 31.5935 34.0015 30.9668 34.6284C30.34 35.2552 29.4903 35.6078 28.6039 35.6089H15.9736V24.956H31.9472Z" fill="#B0C899"/>
<path d="M24.295 30.9277H22.5119C22.2163 30.9277 21.9329 30.8103 21.7239 30.6013C21.5149 30.3923 21.3975 30.1088 21.3975 29.8132C21.3975 29.5176 21.5149 29.2341 21.7239 29.0251C21.9329 28.8161 22.2163 28.6986 22.5119 28.6986H24.295C24.5906 28.6986 24.874 28.8161 25.083 29.0251C25.292 29.2341 25.4094 29.5176 25.4094 29.8132C25.4094 30.1088 25.292 30.3923 25.083 30.6013C24.874 30.8103 24.5906 30.9277 24.295 30.9277Z" fill="#B0C899"/>
<path d="M11.2184 18.9649C10.9229 18.9649 10.6394 18.8474 10.4304 18.6384C10.2214 18.4294 10.104 18.1459 10.104 17.8503V16.067C10.104 15.7714 10.2214 15.4879 10.4304 15.2789C10.6394 15.0699 10.9229 14.9525 11.2184 14.9525C11.514 14.9525 11.7975 15.0699 12.0065 15.2789C12.2155 15.4879 12.3329 15.7714 12.3329 16.067V17.8503C12.3329 18.1459 12.2155 18.4294 12.0065 18.6384C11.7975 18.8474 11.514 18.9649 11.2184 18.9649Z" fill="#B0C899"/>
<path d="M20.7287 18.9649C20.4331 18.9649 20.1497 18.8474 19.9407 18.6384C19.7317 18.4294 19.6143 18.1459 19.6143 17.8503V16.067C19.6143 15.7714 19.7317 15.4879 19.9407 15.2789C20.1497 15.0699 20.4331 14.9525 20.7287 14.9525C21.0243 14.9525 21.3077 15.0699 21.5167 15.2789C21.7257 15.4879 21.8431 15.7714 21.8431 16.067V17.8503C21.8431 18.1459 21.7257 18.4294 21.5167 18.6384C21.3077 18.8474 21.0243 18.9649 20.7287 18.9649Z" fill="#B0C899"/>
<g style="mix-blend-mode:luminosity">
<path d="M25.4919 38.0434C25.1963 38.0434 24.9129 37.926 24.7039 37.717C24.4949 37.5079 24.3774 37.2244 24.3774 36.9289V34.4768C24.3774 34.1812 24.4949 33.8977 24.7039 33.6887C24.9129 33.4797 25.1963 33.3623 25.4919 33.3623C25.7874 33.3623 26.0709 33.4797 26.2799 33.6887C26.4889 33.8977 26.6063 34.1812 26.6063 34.4768V36.9289C26.6063 37.2244 26.4889 37.5079 26.2799 37.717C26.0709 37.926 25.7874 38.0434 25.4919 38.0434Z" fill="#865240"/>
<path d="M6.47186 38.0434C6.17629 38.0434 5.89283 37.926 5.68383 37.717C5.47484 37.5079 5.35742 37.2244 5.35742 36.9289V34.4768C5.35742 34.1812 5.47484 33.8977 5.68383 33.6887C5.89283 33.4797 6.17629 33.3623 6.47186 33.3623C6.76743 33.3623 7.05089 33.4797 7.25988 33.6887C7.46888 33.8977 7.5863 34.1812 7.5863 34.4768V36.9289C7.5863 37.2244 7.46888 37.5079 7.25988 37.717C7.05089 37.926 6.76743 38.0434 6.47186 38.0434Z" fill="#865240"/>
<path d="M31.9555 3.34366V32.2477C31.9544 33.1342 31.6018 33.984 30.975 34.6109C30.3483 35.2377 29.4985 35.5903 28.6122 35.5914H3.35161C2.46524 35.5903 1.61549 35.2377 0.988728 34.6109C0.36197 33.984 0.00938214 33.1342 0.00830078 32.2477V3.34366C0.00938214 2.4572 0.36197 1.60735 0.988728 0.980529C1.61549 0.353706 2.46524 0.00108147 3.35161 0L28.6122 0C29.4985 0.00108147 30.3483 0.353706 30.975 0.980529C31.6018 1.60735 31.9544 2.4572 31.9555 3.34366Z" fill="#AF8663"/>
<path d="M31.9555 3.34366V32.2477C31.9544 33.1342 31.6018 33.984 30.9751 34.6109C30.3483 35.2377 29.4986 35.5903 28.6122 35.5914H15.9819V0H28.6122C29.4986 0.00108147 30.3483 0.353706 30.9751 0.980529C31.6018 1.60735 31.9544 2.4572 31.9555 3.34366Z" fill="#865240"/>
<path d="M31.9555 24.9385V32.2477C31.9544 33.1342 31.6018 33.984 30.9751 34.6108C30.3483 35.2377 29.4986 35.5903 28.6122 35.5914H15.9819V24.9385H31.9555Z" fill="#5C3629"/>
<path d="M24.3033 30.9103H22.5202C22.2246 30.9103 21.9412 30.7928 21.7322 30.5838C21.5232 30.3748 21.4058 30.0913 21.4058 29.7957C21.4058 29.5001 21.5232 29.2166 21.7322 29.0076C21.9412 28.7986 22.2246 28.6812 22.5202 28.6812H24.3033C24.5989 28.6812 24.8823 28.7986 25.0913 29.0076C25.3003 29.2166 25.4177 29.5001 25.4177 29.7957C25.4177 30.0913 25.3003 30.3748 25.0913 30.5838C24.8823 30.7928 24.5989 30.9103 24.3033 30.9103Z" fill="#F7E4B3"/>
<path d="M11.2272 18.9474C10.9317 18.9474 10.6482 18.83 10.4392 18.6209C10.2302 18.4119 10.1128 18.1284 10.1128 17.8328V16.0496C10.1128 15.754 10.2302 15.4705 10.4392 15.2614C10.6482 15.0524 10.9317 14.935 11.2272 14.935C11.5228 14.935 11.8063 15.0524 12.0153 15.2614C12.2243 15.4705 12.3417 15.754 12.3417 16.0496V17.8328C12.3417 18.1284 12.2243 18.4119 12.0153 18.6209C11.8063 18.83 11.5228 18.9474 11.2272 18.9474Z" fill="#F7E4B3"/>
<path d="M20.737 18.9474C20.4414 18.9474 20.158 18.83 19.949 18.6209C19.74 18.4119 19.6226 18.1284 19.6226 17.8328V16.0496C19.6226 15.754 19.74 15.4705 19.949 15.2614C20.158 15.0524 20.4414 14.935 20.737 14.935C21.0326 14.935 21.316 15.0524 21.525 15.2614C21.734 15.4705 21.8514 15.754 21.8514 16.0496V17.8328C21.8514 18.1284 21.734 18.4119 21.525 18.6209C21.316 18.83 21.0326 18.9474 20.737 18.9474Z" fill="#F7E4B3"/>
</g>
</svg>
