<svg width="55" height="55" viewBox="0 0 55 55" fill="none" xmlns="http://www.w3.org/2000/svg">
<circle opacity="0.2" cx="27.5" cy="27.5" r="27.5" fill="#84D2F4" fill-opacity="0.81"/>
<path d="M27.0002 38.6896C32.4278 38.6896 36.8278 34.2896 36.8278 28.862C36.8278 23.4344 32.4278 19.0344 27.0002 19.0344C21.5726 19.0344 17.1726 23.4344 17.1726 28.862C17.1726 34.2896 21.5726 38.6896 27.0002 38.6896Z" fill="#84D2F4"/>
<path d="M30.1036 35.0689C28.428 35.0715 26.7798 34.645 25.3158 33.8301C23.8518 33.0152 22.6209 31.839 21.7403 30.4135C20.8597 28.988 20.3588 27.3608 20.2853 25.6869C20.2117 24.013 20.5681 22.3482 21.3203 20.851C20.1012 21.7138 19.0949 22.8433 18.3779 24.1535C17.661 25.4637 17.2523 26.9202 17.183 28.4121C17.1136 29.904 17.3854 31.3921 17.9777 32.7632C18.57 34.1343 19.4671 35.3522 20.6009 36.3244C21.7347 37.2966 23.0753 37.9974 24.5207 38.3735C25.9661 38.7497 27.4783 38.7912 28.9422 38.495C30.406 38.1988 31.7831 37.5727 32.9686 36.6642C34.154 35.7557 35.1167 34.5889 35.7834 33.2524C34.1256 34.4349 32.1398 35.0699 30.1036 35.0689Z" fill="#57B7EB"/>
<path d="M26.9999 36.1034C30.9992 36.1034 34.2413 32.8613 34.2413 28.862C34.2413 24.8627 30.9992 21.6207 26.9999 21.6207C23.0006 21.6207 19.7585 24.8627 19.7585 28.862C19.7585 32.8613 23.0006 36.1034 26.9999 36.1034Z" fill="#57B7EB"/>
<path d="M29.4541 34.5289C28.7818 34.4803 28.1167 34.3589 27.4705 34.1669L26.9078 33.6041C26.9605 33.5076 26.9806 33.3967 26.9653 33.2879C26.9499 33.179 26.8998 33.078 26.8224 33L26.3083 32.4858C26.3302 32.4389 26.3589 32.3955 26.3936 32.357C26.4906 32.26 26.5451 32.1285 26.5451 31.9913C26.5451 31.8542 26.4906 31.7226 26.3936 31.6256L25.6622 30.8943C25.5872 30.8227 25.4918 30.7761 25.3891 30.7608C25.4701 30.663 25.5119 30.5385 25.5064 30.4116C25.5008 30.2847 25.4484 30.1643 25.3591 30.0739L24.6278 29.3425C24.5534 29.2714 24.4589 29.225 24.3572 29.2096C24.7179 29.0736 25.0425 28.8565 25.3057 28.5749C25.569 28.2934 25.7639 27.955 25.8753 27.586L26.2276 26.4124C26.4152 25.7861 26.3516 25.1114 26.0502 24.5312C25.7489 23.951 25.2335 23.511 24.6133 23.3043C25.846 23.0631 27.1207 23.1538 28.3069 23.567C28.1462 23.6555 28.0122 23.7855 27.9189 23.9435C27.8256 24.1014 27.7764 24.2815 27.7764 24.465C27.7764 24.6484 27.8256 24.8285 27.9189 24.9864C28.0122 25.1444 28.1462 25.2744 28.3069 25.3629C28.3238 25.5475 28.3804 25.7264 28.4729 25.8871C28.5654 26.0478 28.6916 26.1866 28.8428 26.2939C28.8261 26.3726 28.8157 26.4525 28.8117 26.5329C28.8117 26.9444 28.9752 27.3391 29.2662 27.6301C29.5572 27.9211 29.9519 28.0846 30.3634 28.0846C30.366 28.1366 30.3712 28.1884 30.379 28.2398C30.2776 28.2881 30.185 28.353 30.1048 28.4317C30.0086 28.3355 29.8945 28.2593 29.7688 28.2072C29.6432 28.1552 29.5085 28.1285 29.3725 28.1285C29.0978 28.1285 28.8344 28.2377 28.6403 28.4319C28.4461 28.6262 28.337 28.8896 28.3371 29.1643C28.3371 29.4389 28.4463 29.7023 28.6405 29.8965L27.9086 30.6279L29.3719 32.0912L30.1033 31.3593C30.1987 31.4581 30.3129 31.5369 30.4391 31.5911C30.5653 31.6453 30.701 31.6738 30.8384 31.675C30.9757 31.6762 31.112 31.6501 31.2391 31.598C31.3662 31.546 31.4817 31.4692 31.5789 31.3721C31.676 31.275 31.7528 31.1595 31.8048 31.0323C31.8568 30.9052 31.883 30.769 31.8818 30.6316C31.8806 30.4942 31.8521 30.3585 31.7979 30.2323C31.7436 30.1061 31.6648 29.9919 31.566 29.8965C31.6447 29.8164 31.7096 29.7237 31.7579 29.6224C32.0053 29.6611 32.2585 29.6328 32.4913 29.5406C32.724 29.4484 32.9278 29.2955 33.0816 29.0979C33.1632 29.5318 33.2051 29.9722 33.2067 30.4137C33.2068 31.5269 32.9479 32.6248 32.4505 33.6206C33.6639 32.2171 34.2868 30.3984 34.1887 28.5457C34.0907 26.6929 33.2792 24.9501 31.9245 23.6825C30.5698 22.4149 28.777 21.7209 26.9219 21.746C25.0667 21.771 23.2933 22.5133 21.9734 23.8171C20.6534 25.1209 19.8894 26.885 19.8415 28.7397C19.7936 30.5944 20.4655 32.3956 21.7163 33.7658C22.9672 35.136 24.6999 35.9688 26.5512 36.0897C28.4026 36.2106 30.2289 35.6101 31.6472 34.4141C30.9234 34.54 30.1871 34.5785 29.4541 34.5289ZM20.9672 25.6577C20.9178 25.75 20.8739 25.8452 20.8359 25.9427C20.8209 25.7431 20.8033 25.5439 20.8012 25.3417C21.0085 25.1337 21.228 24.9384 21.4586 24.7567L20.9672 25.6577ZM23.8964 29.3425L22.5619 30.677C22.1199 30.0684 21.7532 29.4084 21.47 28.7115C21.9321 29.1456 22.5429 29.3862 23.1769 29.3839H23.465C23.6114 29.3832 23.7575 29.3699 23.9016 29.3441L23.8964 29.3425Z" fill="#4891D3"/>
<path d="M39.9311 38.1724C39.73 38.172 39.531 38.1312 39.346 38.0524C39.161 37.9736 38.9937 37.8584 38.8541 37.7136C38.7145 37.5689 38.6054 37.3975 38.5334 37.2097C38.4613 37.022 38.4278 36.8217 38.4347 36.6207L38.8966 23.6896H40.9656L41.4275 36.6207C41.4344 36.8217 41.4009 37.022 41.3288 37.2097C41.2568 37.3975 41.1477 37.5689 41.0081 37.7136C40.8685 37.8584 40.7012 37.9736 40.5162 38.0524C40.3312 38.1312 40.1322 38.172 39.9311 38.1724Z" fill="#57B7EB"/>
<path d="M40.9655 36.6207C40.7644 36.6203 40.5654 36.5795 40.3804 36.5007C40.1954 36.4219 40.0281 36.3067 39.8885 36.1619C39.7489 36.0171 39.6398 35.8458 39.5678 35.658C39.4957 35.4703 39.4622 35.2699 39.4691 35.0689L39.7846 26.2376C40.2765 26.1466 40.7188 25.8806 41.0296 25.4886L40.9655 23.6896H38.8965L38.4346 36.6207C38.4271 36.8219 38.4603 37.0225 38.5321 37.2106C38.604 37.3986 38.713 37.5703 38.8527 37.7153C38.9924 37.8603 39.1599 37.9756 39.3451 38.0544C39.5304 38.1331 39.7297 38.1737 39.931 38.1737C40.1323 38.1737 40.3316 38.1331 40.5169 38.0544C40.7022 37.9756 40.8696 37.8603 41.0093 37.7153C41.149 37.5703 41.258 37.3986 41.3299 37.2106C41.4017 37.0225 41.4349 36.8219 41.4274 36.6207L41.4243 36.54C41.2766 36.5909 41.1217 36.6182 40.9655 36.6207Z" fill="#4891D3"/>
<path d="M42 21.1034C42 19.9607 41.0737 19.0344 39.931 19.0344C38.7884 19.0344 37.8621 19.9607 37.8621 21.1034V23.1724C37.8621 24.315 38.7884 25.2413 39.931 25.2413C41.0737 25.2413 42 24.315 42 23.1724V21.1034Z" fill="#84D2F4"/>
<path d="M40.9655 23.6897C40.4168 23.6897 39.8905 23.4717 39.5025 23.0837C39.1145 22.6957 38.8965 22.1695 38.8965 21.6208V19.5518C38.8999 19.4702 38.908 19.3888 38.9209 19.3082C38.6007 19.4862 38.3338 19.7465 38.1477 20.0621C37.9616 20.3776 37.863 20.7371 37.8621 21.1035V23.1725C37.8611 23.6994 38.0616 24.2067 38.4227 24.5905C38.7837 24.9743 39.2778 25.2055 39.8038 25.2366C40.3298 25.2678 40.8478 25.0966 41.2516 24.7581C41.6554 24.4196 41.9145 23.9394 41.9757 23.4161C41.6683 23.5933 41.3203 23.6875 40.9655 23.6897Z" fill="#57B7EB"/>
<path d="M15.1036 23.6896H13.0346L12.5727 36.6207C12.5584 36.8259 12.5865 37.0319 12.6552 37.2259C12.724 37.4198 12.8319 37.5975 12.9722 37.748C13.1126 37.8985 13.2824 38.0184 13.4711 38.1005C13.6598 38.1825 13.8633 38.2248 14.0691 38.2248C14.2748 38.2248 14.4784 38.1825 14.6671 38.1005C14.8558 38.0184 15.0256 37.8985 15.166 37.748C15.3063 37.5975 15.4142 37.4198 15.4829 37.2259C15.5517 37.0319 15.5798 36.8259 15.5655 36.6207L15.1036 23.6896Z" fill="#57B7EB"/>
<path d="M15.1034 36.6207C14.9023 36.6203 14.7033 36.5795 14.5183 36.5007C14.3333 36.4219 14.166 36.3067 14.0264 36.1619C13.8868 36.0171 13.7778 35.8458 13.7057 35.658C13.6337 35.4703 13.6001 35.2699 13.6071 35.0689L13.9226 26.2376C14.4143 26.1469 14.8566 25.8812 15.1676 25.4896L15.1034 23.6896H13.0345L12.5726 36.6207C12.5651 36.8219 12.5983 37.0225 12.6701 37.2106C12.7419 37.3986 12.8509 37.5703 12.9906 37.7153C13.1303 37.8603 13.2978 37.9756 13.4831 38.0544C13.6684 38.1331 13.8676 38.1737 14.0689 38.1737C14.2703 38.1737 14.4695 38.1331 14.6548 38.0544C14.8401 37.9756 15.0076 37.8603 15.1473 37.7153C15.287 37.5703 15.396 37.3986 15.4678 37.2106C15.5396 37.0225 15.5728 36.8219 15.5653 36.6207L15.5622 36.54C15.4145 36.5909 15.2597 36.6182 15.1034 36.6207Z" fill="#4891D3"/>
<path d="M12 21.1034H16.1379V23.1724C16.1379 23.7211 15.92 24.2473 15.5319 24.6353C15.1439 25.0233 14.6177 25.2413 14.069 25.2413C13.5202 25.2413 12.994 25.0233 12.606 24.6353C12.218 24.2473 12 23.7211 12 23.1724V21.1034Z" fill="#84D2F4"/>
<path d="M15.1035 23.6896C14.5547 23.6896 14.0285 23.4716 13.6405 23.0836C13.2525 22.6956 13.0345 22.1694 13.0345 21.6206V21.1034H12V23.1724C11.999 23.6993 12.1996 24.2066 12.5606 24.5904C12.9216 24.9742 13.4158 25.2054 13.9418 25.2365C14.4678 25.2677 14.9858 25.0964 15.3896 24.758C15.7934 24.4195 16.0524 23.9393 16.1136 23.416C15.8063 23.5931 15.4582 23.6874 15.1035 23.6896Z" fill="#57B7EB"/>
<path d="M12.5172 22.1379C12.3801 22.1379 12.2485 22.0834 12.1515 21.9864C12.0545 21.8894 12 21.7579 12 21.6207V18.5172C12 18.3801 12.0545 18.2485 12.1515 18.1515C12.2485 18.0545 12.3801 18 12.5172 18C12.6544 18 12.786 18.0545 12.883 18.1515C12.98 18.2485 13.0345 18.3801 13.0345 18.5172V21.6207C13.0345 21.7579 12.98 21.8894 12.883 21.9864C12.786 22.0834 12.6544 22.1379 12.5172 22.1379Z" fill="#57B7EB"/>
<path d="M15.6208 22.1379C15.4836 22.1379 15.352 22.0834 15.255 21.9864C15.158 21.8894 15.1035 21.7579 15.1035 21.6207V18.5172C15.1035 18.3801 15.158 18.2485 15.255 18.1515C15.352 18.0545 15.4836 18 15.6208 18C15.7579 18 15.8895 18.0545 15.9865 18.1515C16.0835 18.2485 16.138 18.3801 16.138 18.5172V21.6207C16.138 21.7579 16.0835 21.8894 15.9865 21.9864C15.8895 22.0834 15.7579 22.1379 15.6208 22.1379Z" fill="#84D2F4"/>
<path d="M14.069 22.1379C13.9318 22.1379 13.8003 22.0834 13.7033 21.9864C13.6063 21.8894 13.5518 21.7579 13.5518 21.6207V18.5172C13.5518 18.3801 13.6063 18.2485 13.7033 18.1515C13.8003 18.0545 13.9318 18 14.069 18C14.2062 18 14.3377 18.0545 14.4347 18.1515C14.5317 18.2485 14.5862 18.3801 14.5862 18.5172V21.6207C14.5862 21.7579 14.5317 21.8894 14.4347 21.9864C14.3377 22.0834 14.2062 22.1379 14.069 22.1379Z" fill="#84D2F4"/>
<path d="M24.4136 28.8254L20.7562 32.4828C20.6592 32.5798 20.6047 32.7113 20.6047 32.8485C20.6047 32.9856 20.6592 33.1172 20.7562 33.2142L21.4876 33.9456C21.5846 34.0425 21.7161 34.097 21.8532 34.097C21.9904 34.097 22.1219 34.0425 22.2189 33.9456C22.267 33.8975 22.324 33.8593 22.3868 33.8333C22.4496 33.8073 22.5169 33.7939 22.5849 33.7939C22.6529 33.7939 22.7202 33.8073 22.783 33.8333C22.8457 33.8593 22.9028 33.8975 22.9508 33.9456L24.4136 35.4088C24.5106 35.5058 24.6421 35.5603 24.7793 35.5603C24.9164 35.5603 25.048 35.5058 25.145 35.4088L27.3396 33.2142C27.4366 33.1172 27.4911 32.9856 27.4911 32.8485C27.4911 32.7113 27.4366 32.5798 27.3396 32.4828L25.8763 31.02C25.8283 30.972 25.7901 30.915 25.7641 30.8522C25.738 30.7894 25.7246 30.7221 25.7246 30.6541C25.7246 30.5861 25.738 30.5188 25.7641 30.456C25.7901 30.3932 25.8283 30.3362 25.8763 30.2881C25.9733 30.1912 26.0278 30.0596 26.0278 29.9225C26.0278 29.7853 25.9733 29.6538 25.8763 29.5568L25.145 28.8254C25.048 28.7284 24.9164 28.674 24.7793 28.674C24.6421 28.674 24.5106 28.7284 24.4136 28.8254Z" fill="#F9E109"/>
<path d="M27.3396 32.4828L25.8763 31.02C25.8283 30.972 25.7901 30.915 25.7641 30.8522C25.738 30.7894 25.7246 30.7221 25.7246 30.6541C25.7246 30.5861 25.738 30.5188 25.7641 30.456C25.7901 30.3932 25.8283 30.3362 25.8763 30.2881C25.9733 30.1911 26.0278 30.0596 26.0278 29.9225C26.0278 29.7853 25.9733 29.6538 25.8763 29.5568L25.7253 29.4052L22.9508 32.1797C22.6862 32.4433 22.3351 32.6024 21.9623 32.6275C21.5896 32.6526 21.2204 32.542 20.9227 32.3162L20.7562 32.4828C20.6592 32.5798 20.6047 32.7113 20.6047 32.8485C20.6047 32.9856 20.6592 33.1172 20.7562 33.2142L21.4876 33.9456C21.5846 34.0425 21.7161 34.097 21.8532 34.097C21.9904 34.097 22.1219 34.0425 22.2189 33.9456C22.267 33.8975 22.324 33.8593 22.3868 33.8333C22.4496 33.8073 22.5169 33.7939 22.5849 33.7939C22.6529 33.7939 22.7202 33.8073 22.783 33.8333C22.8457 33.8593 22.9028 33.8975 22.9508 33.9456L24.4136 35.4088C24.5106 35.5058 24.6421 35.5603 24.7793 35.5603C24.9164 35.5603 25.048 35.5058 25.145 35.4088L27.3396 33.2142C27.4366 33.1172 27.4911 32.9856 27.4911 32.8485C27.4911 32.7113 27.4366 32.5798 27.3396 32.4828Z" fill="#FCBC04"/>
<path d="M33.9826 27.569C33.9809 27.3018 33.9096 27.0398 33.7757 26.8086C34.0584 26.6285 34.2752 26.3616 34.3936 26.0479C34.512 25.7343 34.5256 25.3907 34.4324 25.0687C34.3392 24.7467 34.1443 24.4635 33.8767 24.2615C33.6091 24.0595 33.2833 23.9496 32.9481 23.9483C32.949 23.6041 32.8352 23.2695 32.6246 22.9973C32.414 22.7251 32.1186 22.5309 31.7852 22.4454C31.4519 22.36 31.0995 22.3881 30.7839 22.5254C30.4683 22.6627 30.2075 22.9013 30.0428 23.2034C29.9373 23.1011 29.8112 23.0224 29.673 22.9727C29.5347 22.923 29.3873 22.9034 29.2409 22.9152C29.0944 22.927 28.9521 22.97 28.8236 23.0412C28.6951 23.1125 28.5832 23.2104 28.4956 23.3283C28.408 23.4463 28.3465 23.5816 28.3154 23.7252C28.2843 23.8688 28.2842 24.0175 28.3151 24.1611C28.3461 24.3048 28.4074 24.4402 28.4949 24.5582C28.5824 24.6763 28.6941 24.7743 28.8226 24.8457C28.8395 25.0303 28.8961 25.2092 28.9886 25.3699C29.0811 25.5306 29.2073 25.6694 29.3584 25.7767C29.3418 25.8554 29.3314 25.9353 29.3274 26.0157C29.3274 26.4272 29.4909 26.8219 29.7819 27.1129C30.0729 27.4039 30.4676 27.5674 30.8791 27.5674C30.8791 27.9789 31.0426 28.3736 31.3336 28.6646C31.6246 28.9556 32.0193 29.1191 32.4309 29.1191C32.8424 29.1191 33.2371 28.9556 33.5281 28.6646C33.8191 28.3736 33.9826 27.9789 33.9826 27.5674V27.569Z" fill="#A1D51C"/>
<path d="M33.4652 27.569C33.0537 27.569 32.659 27.4055 32.368 27.1145C32.077 26.8235 31.9135 26.4288 31.9135 26.0173C31.502 26.0173 31.1073 25.8538 30.8163 25.5628C30.5253 25.2718 30.3618 24.8771 30.3618 24.4655C30.3658 24.3852 30.3762 24.3053 30.3928 24.2266C30.2416 24.1192 30.1155 23.9804 30.023 23.8197C29.9305 23.659 29.8738 23.4802 29.857 23.2955C29.7016 23.2081 29.5711 23.0824 29.4778 22.9304C29.239 22.8934 28.9949 22.9417 28.7881 23.0668C28.5814 23.1918 28.4252 23.3856 28.3471 23.6143C28.2689 23.8429 28.2737 24.0917 28.3606 24.3172C28.4476 24.5426 28.6111 24.7303 28.8225 24.8473C28.8394 25.0319 28.896 25.2107 28.9885 25.3714C29.081 25.5322 29.2072 25.671 29.3583 25.7783C29.3417 25.857 29.3313 25.9369 29.3273 26.0173C29.3273 26.4288 29.4908 26.8235 29.7818 27.1145C30.0728 27.4055 30.4675 27.569 30.879 27.569C30.879 27.9805 31.0425 28.3752 31.3335 28.6662C31.6245 28.9572 32.0192 29.1207 32.4308 29.1207C32.8423 29.1207 33.237 28.9572 33.528 28.6662C33.819 28.3752 33.9825 27.9805 33.9825 27.569C33.9825 27.5374 33.9778 27.5069 33.9758 27.4759C33.8121 27.5357 33.6395 27.5672 33.4652 27.569Z" fill="#7AB92D"/>
<path d="M25.4483 30.3771L21.7908 34.0345C21.6939 34.1315 21.6394 34.263 21.6394 34.4002C21.6394 34.5373 21.6939 34.6689 21.7908 34.7659L22.5222 35.4973C22.6192 35.5942 22.7508 35.6487 22.8879 35.6487C23.0251 35.6487 23.1566 35.5942 23.2536 35.4973C23.3016 35.4492 23.3587 35.411 23.4215 35.385C23.4843 35.359 23.5516 35.3456 23.6196 35.3456C23.6875 35.3456 23.7548 35.359 23.8176 35.385C23.8804 35.411 23.9375 35.4492 23.9855 35.4973L25.4483 36.9605C25.5453 37.0575 25.6768 37.112 25.8139 37.112C25.9511 37.112 26.0826 37.0575 26.1796 36.9605L28.3743 34.7659C28.4713 34.6689 28.5257 34.5373 28.5257 34.4002C28.5257 34.263 28.4713 34.1315 28.3743 34.0345L26.911 32.5717C26.8629 32.5237 26.8248 32.4667 26.7987 32.4039C26.7727 32.3411 26.7593 32.2738 26.7593 32.2058C26.7593 32.1378 26.7727 32.0705 26.7987 32.0077C26.8248 31.9449 26.8629 31.8879 26.911 31.8398C27.008 31.7428 27.0625 31.6113 27.0625 31.4742C27.0625 31.337 27.008 31.2055 26.911 31.1085L26.1796 30.3771C26.0826 30.2801 25.9511 30.2256 25.8139 30.2256C25.6768 30.2256 25.5453 30.2801 25.4483 30.3771Z" fill="#F9E109"/>
<path d="M32.0834 29.3793C32.1822 29.2839 32.2611 29.1697 32.3153 29.0435C32.3695 28.9173 32.398 28.7815 32.3992 28.6442C32.4004 28.5068 32.3742 28.3706 32.3222 28.2435C32.2702 28.1163 32.1934 28.0008 32.0963 27.9037C31.9991 27.8066 31.8836 27.7298 31.7565 27.6777C31.6294 27.6257 31.4931 27.5996 31.3558 27.6007C31.2184 27.6019 31.0827 27.6305 30.9565 27.6847C30.8303 27.7389 30.7161 27.8177 30.6207 27.9165C30.5253 27.8177 30.4111 27.7389 30.2849 27.6847C30.1587 27.6305 30.0229 27.6019 29.8856 27.6007C29.7482 27.5996 29.612 27.6257 29.4849 27.6777C29.3577 27.7298 29.2422 27.8066 29.1451 27.9037C29.048 28.0008 28.9712 28.1163 28.9191 28.2435C28.8671 28.3706 28.841 28.5068 28.8421 28.6442C28.8433 28.7815 28.8719 28.9173 28.9261 29.0435C28.9803 29.1697 29.0591 29.2839 29.1579 29.3793L28.426 30.1107L29.8893 31.5739L30.6207 30.842C30.7161 30.9408 30.8303 31.0197 30.9565 31.0739C31.0827 31.1281 31.2184 31.1566 31.3558 31.1578C31.4931 31.159 31.6294 31.1328 31.7565 31.0808C31.8836 31.0288 31.9991 30.952 32.0963 30.8549C32.1934 30.7577 32.2702 30.6422 32.3222 30.5151C32.3742 30.388 32.4004 30.2517 32.3992 30.1144C32.398 29.977 32.3695 29.8413 32.3153 29.7151C32.2611 29.5889 32.1822 29.4747 32.0834 29.3793Z" fill="#C4F236"/>
<path d="M32.0834 29.8076C31.8894 30.0015 31.6264 30.1105 31.3521 30.1105C31.0778 30.1105 30.8147 30.0015 30.6207 29.8076C30.4267 30.0015 30.1636 30.1105 29.8893 30.1105C29.615 30.1105 29.3519 30.0015 29.1579 29.8076L28.9433 29.5934L28.426 30.1107L29.8893 31.574L30.6207 30.8421C30.799 31.0156 31.0338 31.1191 31.2822 31.1335C31.5306 31.148 31.7758 31.0724 31.973 30.9207C32.1702 30.769 32.3061 30.5513 32.3559 30.3076C32.4056 30.0638 32.3658 29.8103 32.2438 29.5934C32.1999 29.6715 32.146 29.7435 32.0834 29.8076Z" fill="#A1D51C"/>
<path d="M27.9641 33.6243L27.6429 33.9455C27.1579 34.4305 26.5001 34.703 25.8142 34.703C25.1283 34.703 24.4705 34.4305 23.9855 33.9455C23.9375 33.8974 23.8804 33.8593 23.8176 33.8333C23.7548 33.8072 23.6875 33.7938 23.6196 33.7938C23.5516 33.7938 23.4843 33.8072 23.4215 33.8333C23.3587 33.8593 23.3016 33.8974 23.2536 33.9455C23.1566 34.0425 23.0251 34.097 22.8879 34.097C22.7508 34.097 22.6192 34.0425 22.5222 33.9455L22.201 33.6243L21.7908 34.0345C21.6939 34.1315 21.6394 34.263 21.6394 34.4002C21.6394 34.5373 21.6939 34.6689 21.7908 34.7659L22.5222 35.4973C22.6192 35.5942 22.7508 35.6487 22.8879 35.6487C23.0251 35.6487 23.1566 35.5942 23.2536 35.4973C23.3016 35.4492 23.3587 35.411 23.4215 35.385C23.4843 35.359 23.5516 35.3456 23.6196 35.3456C23.6875 35.3456 23.7548 35.359 23.8176 35.385C23.8804 35.411 23.9375 35.4492 23.9855 35.4973L25.4483 36.9605C25.5453 37.0575 25.6768 37.112 25.8139 37.112C25.9511 37.112 26.0826 37.0575 26.1796 36.9605L28.3743 34.7659C28.4713 34.6689 28.5257 34.5373 28.5257 34.4002C28.5257 34.263 28.4713 34.1315 28.3743 34.0345L27.9641 33.6243Z" fill="#FCBC04"/>
<path d="M24.6464 22.6748C25.0095 22.7201 25.3584 22.8441 25.6687 23.0381C25.9789 23.2321 26.2432 23.4914 26.443 23.798C26.6427 24.1046 26.7732 24.451 26.8254 24.8132C26.8775 25.1754 26.85 25.5446 26.7449 25.8951L26.3926 27.0688C26.2372 27.5872 25.9187 28.0416 25.4845 28.3647C25.0503 28.6877 24.5235 28.8621 23.9823 28.862H23.6942C23.2576 28.862 22.8286 28.7484 22.4492 28.5324C22.0698 28.3164 21.7531 28.0055 21.5302 27.6301C21.3073 27.2547 21.1859 26.8278 21.1779 26.3913C21.1699 25.9549 21.2756 25.5238 21.4845 25.1405L22.1249 23.9669C22.3667 23.523 22.7365 23.1623 23.1863 22.9316C23.6361 22.701 24.1448 22.6111 24.6464 22.6738V22.6748Z" fill="#F9E109"/>
<path d="M24.4995 26.7931H24.2114C23.6161 26.7937 23.0398 26.5831 22.5852 26.1988C22.1306 25.8144 21.8271 25.2813 21.7286 24.6942L21.485 25.1405C21.2761 25.5238 21.1704 25.9548 21.1784 26.3913C21.1864 26.8277 21.3078 27.2546 21.5306 27.6299C21.7534 28.0053 22.07 28.3163 22.4493 28.5323C22.8286 28.7483 23.2576 28.862 23.6941 28.8621H23.9822C24.5235 28.8622 25.0504 28.6877 25.4846 28.3645C25.9188 28.0414 26.2372 27.5868 26.3926 27.0683L26.7448 25.8952C26.8159 25.6555 26.8508 25.4066 26.8483 25.1566C26.6702 25.6362 26.3498 26.05 25.93 26.3425C25.5103 26.635 25.0111 26.7922 24.4995 26.7931Z" fill="#FCBC04"/>
<path d="M23.8965 27.8275C24.4679 27.8275 24.931 27.3644 24.931 26.793C24.931 26.2217 24.4679 25.7585 23.8965 25.7585C23.3252 25.7585 22.8621 26.2217 22.8621 26.793C22.8621 27.3644 23.3252 27.8275 23.8965 27.8275Z" fill="#F89C8D"/>
<path d="M24.4996 26.7931H24.2115C23.7595 26.7953 23.3154 26.6746 22.9267 26.444C22.8739 26.5863 22.853 26.7384 22.8656 26.8897C22.8782 27.041 22.924 27.1876 22.9996 27.3192C23.0752 27.4508 23.1789 27.5641 23.3032 27.6512C23.4275 27.7383 23.5695 27.7969 23.719 27.8229C23.8685 27.849 24.022 27.8418 24.1684 27.8019C24.3149 27.762 24.4507 27.6904 24.5664 27.5921C24.6821 27.4938 24.7747 27.3713 24.8377 27.2332C24.9007 27.0951 24.9325 26.9449 24.931 26.7931C24.931 26.7802 24.9279 26.7683 24.9274 26.7553C24.7861 26.78 24.643 26.7926 24.4996 26.7931Z" fill="#F8664F"/>
<path d="M24.3512 33.6688C24.6369 33.6688 24.8685 33.4372 24.8685 33.1515C24.8685 32.8659 24.6369 32.6343 24.3512 32.6343C24.0656 32.6343 23.834 32.8659 23.834 33.1515C23.834 33.4372 24.0656 33.6688 24.3512 33.6688Z" fill="#E59730"/>
<path d="M26.1796 34.5517C26.4653 34.5517 26.6968 34.3201 26.6968 34.0345C26.6968 33.7488 26.4653 33.5172 26.1796 33.5172C25.8939 33.5172 25.6624 33.7488 25.6624 34.0345C25.6624 34.3201 25.8939 34.5517 26.1796 34.5517Z" fill="#E59730"/>
<path d="M31.6549 24.7241C31.9406 24.7241 32.1722 24.4925 32.1722 24.2068C32.1722 23.9212 31.9406 23.6896 31.6549 23.6896C31.3693 23.6896 31.1377 23.9212 31.1377 24.2068C31.1377 24.4925 31.3693 24.7241 31.6549 24.7241Z" fill="#F9E109"/>
<path d="M30.1034 34.0344C30.3891 34.0344 30.6207 33.8028 30.6207 33.5172C30.6207 33.2315 30.3891 32.9999 30.1034 32.9999C29.8178 32.9999 29.5862 33.2315 29.5862 33.5172C29.5862 33.8028 29.8178 34.0344 30.1034 34.0344Z" fill="#7AB92D"/>
<path d="M32.6896 26.2759C32.9753 26.2759 33.2068 26.0443 33.2068 25.7586C33.2068 25.473 32.9753 25.2414 32.6896 25.2414C32.4039 25.2414 32.1724 25.473 32.1724 25.7586C32.1724 26.0443 32.4039 26.2759 32.6896 26.2759Z" fill="#F9E109"/>
</svg>
