<svg width="59" height="58" viewBox="0 0 59 58" fill="none" xmlns="http://www.w3.org/2000/svg">
<path d="M44.9944 27.0574L42.5332 27.2274V38.8506H42.5338C42.5415 39.0069 42.6397 39.1552 42.8336 39.2671C43.2785 39.524 44.0556 39.4918 44.5694 39.1952C44.8336 39.0426 44.9757 38.8499 44.9918 38.6636H44.9944V27.0574Z" fill="#B0C899"/>
<path d="M56.6702 20.3634L54.209 20.5334V32.1566H54.2096C54.2173 32.3129 54.3155 32.4612 54.5094 32.573C54.9543 32.8299 55.7314 32.7977 56.2453 32.5011C56.5095 32.3485 56.6516 32.1558 56.6677 31.9695H56.6702V20.3634H56.6702Z" fill="#B0C899"/>
<path d="M33.6386 1.31926L33.6396 1.3178L31.6391 0.16848L31.638 0.170021C31.4838 0.065674 31.3033 0.00698287 31.1172 0.000700535C30.9311 -0.0055818 30.747 0.0407999 30.5861 0.134509L20.1499 6.12676C19.7841 6.33794 19.4803 6.64168 19.2691 7.00747C19.0579 7.37325 18.9468 7.78819 18.9468 8.21056V24.9224C18.946 25.1 18.993 25.2746 19.083 25.4278C19.173 25.581 19.3026 25.7071 19.4582 25.7928V25.7932L21.5422 26.9907L33.6391 1.31942L33.6386 1.31926Z" fill="#B0C899"/>
<path d="M21.052 26.1325V9.42061C21.052 8.99826 21.1631 8.58335 21.3743 8.21757C21.5854 7.85179 21.8891 7.54803 22.2549 7.33681L32.6911 1.34456C32.8429 1.25694 33.015 1.21081 33.1903 1.21082C33.3655 1.21082 33.5377 1.25695 33.6895 1.34457C33.8412 1.4322 33.9673 1.55822 34.0549 1.70999C34.1425 1.86176 34.1887 2.03392 34.1887 2.20916V18.921C34.1887 19.3434 34.0775 19.7583 33.8663 20.1241C33.6551 20.4898 33.3514 20.7936 32.9856 21.0048L22.5494 26.9971C22.3976 27.0847 22.2254 27.1308 22.0502 27.1307C21.875 27.1307 21.7029 27.0846 21.5512 26.9969C21.3994 26.9093 21.2734 26.7833 21.1858 26.6316C21.0982 26.4798 21.052 26.3077 21.052 26.1325Z" fill="#B0C899"/>
<path d="M56.4431 24.4094L34.6362 11.8192C34.4228 11.696 34.1808 11.6311 33.9344 11.6311C33.6879 11.6311 33.4459 11.696 33.2325 11.8192L21.2787 18.6875C21.2094 18.727 21.1519 18.7842 21.112 18.8532C21.0722 18.9222 21.0514 19.0006 21.0518 19.0804V24.2752C21.0514 24.3549 21.0722 24.4333 21.1121 24.5023C21.1519 24.5714 21.2094 24.6286 21.2787 24.668L43.0857 37.2585C43.2991 37.3817 43.5412 37.4465 43.7876 37.4465C44.034 37.4465 44.2761 37.3817 44.4895 37.2585L56.4432 30.3902C56.5134 30.3501 56.5716 30.2918 56.6114 30.2215C56.6513 30.1511 56.6714 30.0713 56.6698 29.9904H56.6701V24.8085H56.6698C56.6713 24.7277 56.651 24.6481 56.6112 24.5779C56.5713 24.5077 56.5132 24.4495 56.4431 24.4094Z" fill="#B0C899"/>
<path d="M43.0859 32.0645L21.2789 19.4743C21.2099 19.4345 21.1526 19.3772 21.1128 19.3082C21.073 19.2392 21.052 19.1609 21.052 19.0813C21.052 19.0016 21.073 18.9233 21.1128 18.8543C21.1526 18.7853 21.2099 18.728 21.2789 18.6882L33.2326 11.8199C33.446 11.6967 33.6881 11.6318 33.9345 11.6318C34.1809 11.6318 34.423 11.6967 34.6364 11.8199L56.4433 24.41C56.5123 24.4499 56.5696 24.5072 56.6094 24.5762C56.6493 24.6452 56.6702 24.7235 56.6702 24.8031C56.6702 24.8828 56.6493 24.9611 56.6094 25.0301C56.5696 25.0991 56.5123 25.1564 56.4433 25.1962L44.4897 32.0645C44.2763 32.1877 44.0342 32.2526 43.7878 32.2526C43.5414 32.2526 43.2993 32.1877 43.0859 32.0645Z" fill="#B0C899"/>
<path d="M56.6698 19.6139L21.052 13.8861V19.0809C21.0516 19.1606 21.0724 19.239 21.1123 19.3081C21.1522 19.3771 21.2097 19.4343 21.2789 19.4738L43.0857 32.0639C43.2991 32.1871 43.5412 32.252 43.7876 32.252C44.034 32.252 44.2761 32.1871 44.4895 32.0639L56.4432 25.1957C56.5134 25.1556 56.5716 25.0973 56.6114 25.0269C56.6513 24.9565 56.6715 24.8767 56.6698 24.7959H56.6701V19.6139H56.6698Z" fill="#B0C899"/>
<path d="M43.0856 26.8694L21.2787 14.2792C21.2097 14.2393 21.1524 14.182 21.1126 14.113C21.0727 14.044 21.0518 13.9657 21.0518 13.8861C21.0518 13.8064 21.0727 13.7281 21.1126 13.6591C21.1524 13.5901 21.2097 13.5328 21.2787 13.493L33.2324 6.62479C33.4458 6.50159 33.6878 6.43674 33.9342 6.43674C34.1807 6.43674 34.4227 6.50159 34.6361 6.62479L56.4431 19.2149C56.5121 19.2548 56.5694 19.3121 56.6092 19.3811C56.649 19.4501 56.67 19.5284 56.67 19.608C56.67 19.6877 56.649 19.766 56.6092 19.835C56.5694 19.904 56.5121 19.9613 56.4431 20.0011L44.4894 26.8694C44.276 26.9926 44.0339 27.0574 43.7875 27.0574C43.5411 27.0574 43.299 26.9926 43.0856 26.8694Z" fill="#B0C899"/>
<path d="M36.0128 9.31515C35.9466 9.2578 35.87 9.21362 35.7873 9.18496L31.4712 6.69305C31.3654 6.59772 31.232 6.53843 31.0903 6.52371C30.9486 6.509 30.8059 6.53962 30.6827 6.61116L24.7089 10.0604C24.4122 10.2316 24.1658 10.4779 23.9944 10.7746C23.823 11.0712 23.7328 11.4077 23.7327 11.7503C23.7322 11.8742 23.766 11.9958 23.8304 12.1016C23.8949 12.2075 23.9874 12.2933 24.0977 12.3498L28.5749 14.9347C28.6798 15.0076 28.8033 15.049 28.9309 15.0541C29.0585 15.0592 29.185 15.0278 29.2953 14.9635L35.2692 11.5146C35.5659 11.3433 35.8122 11.0969 35.9835 10.8002C36.1548 10.5035 36.245 10.167 36.245 9.8244C36.2455 9.72772 36.225 9.63209 36.1848 9.54415C36.1446 9.4562 36.0858 9.37806 36.0124 9.31515H36.0128Z" fill="#B0C899"/>
<path d="M29.2559 12.6873L35.2297 9.23829C35.3326 9.17888 35.4494 9.1476 35.5682 9.1476C35.687 9.1476 35.8038 9.17888 35.9067 9.2383C36.0096 9.29772 36.0951 9.38318 36.1545 9.4861C36.2139 9.58901 36.2452 9.70575 36.2452 9.82459C36.2452 10.1672 36.155 10.5037 35.9837 10.8004C35.8124 11.0971 35.566 11.3435 35.2693 11.5147L29.2955 14.9637C29.1926 15.0231 29.0758 15.0544 28.957 15.0544C28.8381 15.0544 28.7214 15.0231 28.6185 14.9637C28.5156 14.9043 28.4301 14.8188 28.3707 14.7159C28.3113 14.613 28.28 14.4963 28.28 14.3774C28.28 14.0348 28.3702 13.6983 28.5415 13.4016C28.7128 13.1049 28.9592 12.8585 29.2559 12.6873Z" fill="#B0C899"/>
<path d="M26.5979 19.8122L43.6361 35.5379L58.0221 22.5185C58.0221 21.3157 57.7055 20.1341 57.1041 19.0924C56.5027 18.0507 55.6376 17.1857 54.5959 16.5843L42.2102 9.43338C41.6036 9.08316 40.9155 8.89879 40.2151 8.89879C39.5147 8.89879 38.8266 9.08316 38.22 9.43338L30.0186 14.1354C29.0148 14.7151 28.1745 15.5399 27.5762 16.5327C26.978 17.5256 26.6414 18.6539 26.5979 19.8122Z" fill="#B0C899"/>
<path d="M39.5025 23.567L29.0245 17.5176C28.6874 17.3224 28.2913 17.2551 27.9086 17.3281C27.526 17.401 27.1825 17.6094 26.9409 17.915L30.0536 27.6946L30.0521 27.6953L43.6361 35.538V30.7268C43.6361 29.2755 43.2542 27.8499 42.5285 26.5931C41.8029 25.3363 40.7593 24.2926 39.5025 23.567Z" fill="#B0C899"/>
<path d="M47.9838 23.6294L54.182 20.6153C54.5797 20.4027 55.0256 20.2968 55.4764 20.3078C55.9272 20.3189 56.3674 20.4465 56.7542 20.6784C57.1409 20.9102 57.461 21.2383 57.6833 21.6306C57.9055 22.023 58.0223 22.4662 58.0222 22.9171V27.2655L43.6362 35.5379V30.8835C43.6362 29.394 44.0407 27.9325 44.8063 26.6549C45.572 25.3773 46.6702 24.3316 47.9838 23.6294Z" fill="#B0C899"/>
<path d="M42.2103 9.43347C41.6037 9.08319 40.9156 8.89879 40.2152 8.89879C39.5147 8.89879 38.8266 9.08319 38.22 9.43347L30.0186 14.1354C28.564 14.9754 27.4686 16.3204 26.9407 17.9149L30.9708 18.6414C31.5721 17.5991 32.4374 16.7336 33.4796 16.1321L41.6812 11.4301C42.2821 11.0833 42.963 10.8993 43.6567 10.8961C44.3505 10.8929 45.033 11.0707 45.6371 11.4119L42.2103 9.43347Z" fill="#B0C899"/>
<path d="M30.0535 27.6946V22.0664C30.0534 20.8641 30.3698 19.683 30.971 18.6418L29.0244 17.5179C28.6873 17.3227 28.2912 17.2554 27.9085 17.3284C27.5259 17.4013 27.1823 17.6097 26.9408 17.9153C26.716 18.6117 26.5986 19.3383 26.5925 20.0701V25.698L30.0535 27.6946Z" fill="#B0C899"/>
<g style="mix-blend-mode:luminosity">
<path d="M44.9944 27.0573L42.5332 27.2273V38.8504H42.5338C42.5415 39.0067 42.6397 39.155 42.8336 39.267C43.2785 39.5239 44.0556 39.4917 44.5694 39.195C44.8336 39.0425 44.9757 38.8498 44.9918 38.6635H44.9944V27.0573Z" fill="url(#paint0_linear_115:115)"/>
<path d="M56.6702 20.3633L54.209 20.5333V32.1564H54.2096C54.2173 32.3127 54.3155 32.461 54.5094 32.5729C54.9543 32.8298 55.7314 32.7976 56.2453 32.5009C56.5095 32.3484 56.6516 32.1556 56.6677 31.9694H56.6702V20.3633H56.6702Z" fill="url(#paint1_linear_115:115)"/>
<path d="M33.6386 1.31913L33.6396 1.31766L31.6391 0.168343L31.638 0.169883C31.4838 0.0655367 31.3033 0.00684554 31.1172 0.000563206C30.9311 -0.00571913 30.747 0.0406626 30.5861 0.134372L20.1499 6.12663C19.7841 6.3378 19.4803 6.64155 19.2691 7.00733C19.0579 7.37312 18.9468 7.78805 18.9468 8.21042V24.9222C18.946 25.0999 18.993 25.2745 19.083 25.4277C19.173 25.5809 19.3026 25.707 19.4582 25.7927V25.7931L21.5422 26.9906L33.6391 1.31928L33.6386 1.31913Z" fill="url(#paint2_linear_115:115)"/>
<path d="M21.052 26.1323V9.42044C21.052 8.99809 21.1631 8.58318 21.3743 8.2174C21.5854 7.85162 21.8891 7.54786 22.2549 7.33664L32.6911 1.34439C32.8429 1.25677 33.015 1.21064 33.1903 1.21065C33.3655 1.21065 33.5377 1.25678 33.6895 1.3444C33.8412 1.43203 33.9673 1.55806 34.0549 1.70982C34.1425 1.86159 34.1887 2.03375 34.1887 2.209V18.9208C34.1887 19.3432 34.0775 19.7581 33.8663 20.1239C33.6551 20.4897 33.3514 20.7934 32.9856 21.0046L22.5494 26.997C22.3976 27.0845 22.2254 27.1306 22.0502 27.1306C21.875 27.1305 21.7029 27.0844 21.5512 26.9968C21.3994 26.9092 21.2734 26.7831 21.1858 26.6314C21.0982 26.4797 21.052 26.3076 21.052 26.1323Z" fill="url(#paint3_linear_115:115)"/>
<path d="M56.4431 24.4093L34.6362 11.8191C34.4228 11.6958 34.1808 11.631 33.9344 11.631C33.6879 11.631 33.4459 11.6958 33.2325 11.8191L21.2787 18.6873C21.2094 18.7268 21.1519 18.784 21.112 18.8531C21.0722 18.9221 21.0514 19.0005 21.0518 19.0802V24.275C21.0514 24.3548 21.0722 24.4331 21.1121 24.5022C21.1519 24.5712 21.2094 24.6284 21.2787 24.6679L43.0857 37.2583C43.2991 37.3815 43.5412 37.4464 43.7876 37.4464C44.034 37.4464 44.2761 37.3815 44.4895 37.2583L56.4432 30.3901C56.5134 30.35 56.5716 30.2917 56.6114 30.2213C56.6513 30.151 56.6714 30.0711 56.6698 29.9903H56.6701V24.8083H56.6698C56.6713 24.7276 56.651 24.6479 56.6112 24.5777C56.5713 24.5075 56.5132 24.4493 56.4431 24.4093Z" fill="url(#paint4_linear_115:115)"/>
<path d="M43.0859 32.0644L21.2789 19.4742C21.2099 19.4344 21.1526 19.3771 21.1128 19.3081C21.073 19.2391 21.052 19.1608 21.052 19.0811C21.052 19.0015 21.073 18.9232 21.1128 18.8542C21.1526 18.7852 21.2099 18.7279 21.2789 18.688L33.2326 11.8198C33.446 11.6966 33.6881 11.6317 33.9345 11.6317C34.1809 11.6317 34.423 11.6966 34.6364 11.8198L56.4433 24.4099C56.5123 24.4498 56.5696 24.5071 56.6094 24.5761C56.6493 24.6451 56.6702 24.7233 56.6702 24.803C56.6702 24.8827 56.6493 24.9609 56.6094 25.0299C56.5696 25.0989 56.5123 25.1563 56.4433 25.1961L44.4897 32.0644C44.2763 32.1876 44.0342 32.2525 43.7878 32.2525C43.5414 32.2525 43.2993 32.1876 43.0859 32.0644Z" fill="#D7D1EB"/>
<path d="M56.6698 19.6137L21.052 13.8859V19.0807C21.0516 19.1605 21.0724 19.2389 21.1123 19.3079C21.1522 19.3769 21.2097 19.4341 21.2789 19.4736L43.0857 32.0637C43.2991 32.1869 43.5412 32.2518 43.7876 32.2518C44.034 32.2518 44.2761 32.1869 44.4895 32.0637L56.4432 25.1955C56.5134 25.1554 56.5716 25.0971 56.6114 25.0267C56.6513 24.9564 56.6715 24.8765 56.6698 24.7957H56.6701V19.6137H56.6698Z" fill="url(#paint5_linear_115:115)"/>
<path d="M43.0856 26.8692L21.2787 14.279C21.2097 14.2392 21.1524 14.1819 21.1126 14.1129C21.0727 14.0439 21.0518 13.9656 21.0518 13.8859C21.0518 13.8063 21.0727 13.728 21.1126 13.659C21.1524 13.59 21.2097 13.5327 21.2787 13.4928L33.2324 6.62464C33.4458 6.50144 33.6878 6.43658 33.9342 6.43658C34.1807 6.43658 34.4227 6.50144 34.6361 6.62464L56.4431 19.2148C56.5121 19.2546 56.5694 19.3119 56.6092 19.3809C56.649 19.4499 56.67 19.5282 56.67 19.6079C56.67 19.6875 56.649 19.7658 56.6092 19.8348C56.5694 19.9038 56.5121 19.9611 56.4431 20.001L44.4894 26.8692C44.276 26.9924 44.0339 27.0573 43.7875 27.0573C43.5411 27.0573 43.299 26.9924 43.0856 26.8692Z" fill="#D7D1EB"/>
<path d="M36.0128 9.31499C35.9466 9.25765 35.87 9.21346 35.7873 9.18481L31.4712 6.69289C31.3654 6.59756 31.232 6.53827 31.0903 6.52356C30.9486 6.50885 30.8059 6.53946 30.6827 6.61101L24.7089 10.0603C24.4122 10.2315 24.1658 10.4778 23.9944 10.7744C23.823 11.0711 23.7328 11.4076 23.7327 11.7501C23.7322 11.874 23.766 11.9957 23.8304 12.1015C23.8949 12.2073 23.9874 12.2932 24.0977 12.3496L28.5749 14.9346C28.6798 15.0074 28.8033 15.0489 28.9309 15.054C29.0585 15.0591 29.185 15.0276 29.2953 14.9634L35.2692 11.5144C35.5659 11.3431 35.8122 11.0968 35.9835 10.8001C36.1548 10.5034 36.245 10.1668 36.245 9.82425C36.2455 9.72757 36.225 9.63194 36.1848 9.54399C36.1446 9.45605 36.0858 9.37791 36.0124 9.31499H36.0128Z" fill="url(#paint6_linear_115:115)"/>
<path d="M29.2559 12.6871L35.2297 9.23813C35.3326 9.17871 35.4494 9.14743 35.5682 9.14743C35.687 9.14743 35.8038 9.17871 35.9067 9.23813C36.0096 9.29755 36.0951 9.38301 36.1545 9.48593C36.2139 9.58884 36.2452 9.70558 36.2452 9.82442C36.2452 10.167 36.155 10.5036 35.9837 10.8002C35.8124 11.0969 35.566 11.3433 35.2693 11.5146L29.2955 14.9635C29.1926 15.023 29.0758 15.0542 28.957 15.0542C28.8381 15.0542 28.7214 15.023 28.6185 14.9635C28.5156 14.9041 28.4301 14.8187 28.3707 14.7157C28.3113 14.6128 28.28 14.4961 28.28 14.3773C28.28 14.0347 28.3702 13.6981 28.5415 13.4014C28.7128 13.1047 28.9592 12.8584 29.2559 12.6871Z" fill="url(#paint7_linear_115:115)"/>
<path d="M26.5979 19.8121L43.6361 35.5377L58.0221 22.5184C58.0221 21.3155 57.7055 20.1339 57.1041 19.0922C56.5027 18.0505 55.6376 17.1855 54.5959 16.5841L42.2102 9.43323C41.6036 9.08301 40.9155 8.89864 40.2151 8.89864C39.5147 8.89864 38.8266 9.08301 38.22 9.43323L30.0186 14.1353C29.0148 14.7149 28.1745 15.5398 27.5762 16.5326C26.978 17.5254 26.6414 18.6538 26.5979 19.8121Z" fill="#E9E5F6"/>
<path d="M39.5025 23.5669L29.0245 17.5175C28.6874 17.3222 28.2913 17.2549 27.9086 17.3279C27.526 17.4009 27.1825 17.6093 26.9409 17.9149L30.0536 27.6945L30.0521 27.6951L43.6361 35.5378V30.7266C43.6361 29.2754 43.2542 27.8497 42.5285 26.5929C41.8029 25.3361 40.7593 24.2925 39.5025 23.5669Z" fill="url(#paint8_linear_115:115)"/>
<path d="M47.9838 23.6292L54.182 20.6151C54.5797 20.4026 55.0256 20.2966 55.4764 20.3077C55.9272 20.3187 56.3674 20.4464 56.7542 20.6782C57.1409 20.91 57.461 21.2381 57.6833 21.6304C57.9055 22.0228 58.0223 22.466 58.0222 22.9169V27.2653L43.6362 35.5377V30.8833C43.6362 29.3938 44.0407 27.9323 44.8063 26.6547C45.572 25.3772 46.6702 24.3314 47.9838 23.6292Z" fill="url(#paint9_linear_115:115)"/>
<path d="M42.2103 9.43331C41.6037 9.08304 40.9156 8.89864 40.2152 8.89864C39.5147 8.89864 38.8266 9.08304 38.22 9.43331L30.0186 14.1353C28.564 14.9752 27.4686 16.3202 26.9407 17.9148L30.9708 18.6412C31.5721 17.5989 32.4374 16.7334 33.4796 16.132L41.6812 11.4299C42.2821 11.0832 42.963 10.8991 43.6567 10.8959C44.3505 10.8928 45.033 11.0705 45.6371 11.4117L42.2103 9.43331Z" fill="#F2EDFF"/>
<path d="M30.0535 27.6944V22.0663C30.0534 20.864 30.3698 19.6829 30.971 18.6417L29.0244 17.5178C28.6873 17.3225 28.2912 17.2552 27.9085 17.3282C27.5259 17.4012 27.1823 17.6096 26.9408 17.9152C26.716 18.6116 26.5986 19.3381 26.5925 20.0699V25.6978L30.0535 27.6944Z" fill="#E9E5F6"/>
</g>
<path d="M26.0476 45.6176L23.5864 45.7876V57.4107H23.587C23.5947 57.567 23.693 57.7153 23.8868 57.8272C24.3317 58.0841 25.1088 58.0519 25.6226 57.7553C25.8868 57.6028 26.0289 57.41 26.0451 57.2238H26.0476V45.6176Z" fill="#B0C899"/>
<path d="M37.7234 38.9235L35.2622 39.0935V50.7167H35.2628C35.2705 50.873 35.3687 51.0213 35.5626 51.1331C36.0076 51.39 36.7847 51.3578 37.2985 51.0612C37.5627 50.9087 37.7048 50.7159 37.7209 50.5297H37.7235V38.9235H37.7234Z" fill="#B0C899"/>
<path d="M14.6918 19.8794L14.6928 19.8779L12.6923 18.7286L12.6912 18.7301C12.537 18.6258 12.3565 18.5671 12.1704 18.5608C11.9843 18.5545 11.8002 18.6009 11.6393 18.6946L1.2031 24.6869C0.837306 24.8981 0.533548 25.2018 0.32236 25.5676C0.111172 25.9334 -2.4782e-06 26.3483 1.08446e-05 26.7707V43.4825C-0.000821158 43.6602 0.046235 43.8348 0.136231 43.9879C0.226226 44.1411 0.355835 44.2672 0.511427 44.353V44.3534L2.59546 45.5508L14.6924 19.8795L14.6918 19.8794Z" fill="#B0C899"/>
<path d="M2.10522 44.6926V27.9807C2.1052 27.5584 2.21635 27.1435 2.42749 26.7777C2.63864 26.4119 2.94234 26.1081 3.30808 25.8969L13.7443 19.9047C13.8961 19.8171 14.0683 19.7709 14.2435 19.7709C14.4188 19.7709 14.5909 19.8171 14.7427 19.9047C14.8945 19.9923 15.0205 20.1183 15.1081 20.2701C15.1958 20.4219 15.2419 20.594 15.2419 20.7693V37.4811C15.2419 37.9035 15.1307 38.3184 14.9195 38.6842C14.7083 39.05 14.4046 39.3537 14.0388 39.5649L3.60258 45.5572C3.45081 45.6448 3.27867 45.6909 3.10345 45.6908C2.92824 45.6908 2.75612 45.6447 2.60438 45.5571C2.45265 45.4694 2.32664 45.3434 2.23902 45.1917C2.1514 45.04 2.10526 44.8678 2.10522 44.6926Z" fill="#B0C899"/>
<path d="M37.4963 42.9696L15.6895 30.3794C15.4761 30.2561 15.234 30.1912 14.9876 30.1912C14.7412 30.1912 14.4991 30.2561 14.2857 30.3794L2.33192 37.2476C2.26266 37.2871 2.20515 37.3443 2.16527 37.4133C2.12539 37.4824 2.10459 37.5608 2.10499 37.6405V42.8353C2.1046 42.915 2.1254 42.9934 2.16528 43.0625C2.20516 43.1315 2.26267 43.1887 2.33192 43.2282L24.1389 55.8186C24.3523 55.9418 24.5944 56.0067 24.8408 56.0067C25.0872 56.0067 25.3293 55.9418 25.5427 55.8186L37.4964 48.9503C37.5667 48.9103 37.6248 48.852 37.6646 48.7816C37.7045 48.7112 37.7247 48.6314 37.723 48.5506H37.7234V43.3686H37.723C37.7245 43.2879 37.7043 43.2082 37.6644 43.138C37.6245 43.0678 37.5665 43.0096 37.4963 42.9696Z" fill="#B0C899"/>
<path d="M24.1391 50.6246L2.33214 38.0345C2.26314 37.9946 2.20585 37.9373 2.16602 37.8683C2.12619 37.7993 2.10522 37.721 2.10522 37.6414C2.10522 37.5617 2.12619 37.4834 2.16602 37.4144C2.20585 37.3454 2.26314 37.2881 2.33214 37.2483L14.2858 30.38C14.4992 30.2568 14.7413 30.192 14.9877 30.192C15.2341 30.192 15.4762 30.2568 15.6896 30.38L37.4966 42.9701C37.5655 43.01 37.6228 43.0673 37.6627 43.1363C37.7025 43.2053 37.7235 43.2836 37.7235 43.3632C37.7235 43.4429 37.7025 43.5212 37.6627 43.5902C37.6228 43.6592 37.5655 43.7165 37.4966 43.7563L25.5429 50.6246C25.3295 50.7478 25.0874 50.8127 24.841 50.8127C24.5946 50.8127 24.3525 50.7478 24.1391 50.6246Z" fill="#B0C899"/>
<path d="M37.723 38.174L2.10523 32.4462V37.641C2.10484 37.7207 2.12565 37.7991 2.16552 37.8682C2.2054 37.9372 2.26291 37.9944 2.33217 38.0339L24.1389 50.624C24.3523 50.7472 24.5944 50.8121 24.8408 50.8121C25.0872 50.8121 25.3293 50.7472 25.5427 50.624L37.4964 43.7558C37.5667 43.7157 37.6248 43.6574 37.6647 43.587C37.7045 43.5166 37.7247 43.4368 37.723 43.356H37.7234V38.174H37.723Z" fill="#B0C899"/>
<path d="M24.1389 45.4295L2.33189 32.8393C2.2629 32.7995 2.20561 32.7422 2.16578 32.6732C2.12595 32.6042 2.10498 32.5259 2.10498 32.4462C2.10498 32.3665 2.12595 32.2883 2.16578 32.2193C2.20561 32.1503 2.2629 32.093 2.33189 32.0531L14.2856 25.1849C14.499 25.0617 14.7411 24.9969 14.9875 24.9969C15.2339 24.9969 15.4759 25.0617 15.6893 25.1849L37.4963 37.7751C37.5653 37.8149 37.6226 37.8722 37.6624 37.9412C37.7023 38.0102 37.7232 38.0885 37.7232 38.1682C37.7232 38.2478 37.7023 38.3261 37.6624 38.3951C37.6226 38.4641 37.5653 38.5214 37.4963 38.5613L25.5426 45.4295C25.3292 45.5527 25.0871 45.6176 24.8407 45.6176C24.5943 45.6176 24.3523 45.5527 24.1389 45.4295Z" fill="#B0C899"/>
<path d="M17.066 27.8753C16.9998 27.8179 16.9233 27.7737 16.8405 27.7451L12.5245 25.2532C12.4186 25.1578 12.2852 25.0985 12.1436 25.0838C12.0019 25.0691 11.8592 25.0997 11.736 25.1713L5.76212 28.6206C5.4654 28.7918 5.21898 29.0381 5.04762 29.3347C4.87625 29.6313 4.78599 29.9678 4.78589 30.3104C4.78538 30.4343 4.81923 30.5559 4.88367 30.6617C4.94812 30.7676 5.04063 30.8535 5.15095 30.9099L9.62814 33.4948C9.73302 33.5677 9.85653 33.6091 9.98414 33.6142C10.1118 33.6193 10.2382 33.5879 10.3485 33.5236L16.3224 30.0747C16.6191 29.9034 16.8654 29.657 17.0367 29.3603C17.208 29.0637 17.2982 28.7271 17.2982 28.3845C17.2987 28.2878 17.2782 28.1922 17.238 28.1043C17.1978 28.0163 17.139 27.9382 17.0656 27.8753H17.066Z" fill="#B0C899"/>
<path d="M10.3091 31.2474L16.2829 27.7984C16.3859 27.739 16.5026 27.7077 16.6214 27.7077C16.7403 27.7077 16.857 27.739 16.9599 27.7984C17.0628 27.8578 17.1483 27.9433 17.2077 28.0462C17.2671 28.1491 17.2984 28.2659 17.2984 28.3847C17.2984 28.7273 17.2082 29.0638 17.0369 29.3605C16.8656 29.6572 16.6192 29.9036 16.3225 30.0749L10.3487 33.5238C10.2458 33.5832 10.129 33.6145 10.0102 33.6145C9.89137 33.6145 9.77463 33.5832 9.67172 33.5238C9.56881 33.4644 9.48335 33.3789 9.42394 33.276C9.36452 33.1731 9.33325 33.0564 9.33325 32.9375C9.33326 32.5949 9.42344 32.2584 9.59474 31.9617C9.76604 31.665 10.0124 31.4187 10.3091 31.2474Z" fill="#B0C899"/>
<path d="M7.65112 38.3724L24.6893 54.098L39.0753 41.0787C39.0753 39.8758 38.7587 38.6942 38.1573 37.6525C37.5559 36.6108 36.6909 35.7458 35.6492 35.1444L23.2635 27.9935C22.6569 27.6433 21.9688 27.4589 21.2683 27.4589C20.5679 27.4589 19.8798 27.6433 19.2732 27.9935L11.0718 32.6956C10.068 33.2752 9.22769 34.1 8.62945 35.0929C8.0312 36.0857 7.69459 37.2141 7.65112 38.3724Z" fill="#B0C899"/>
<path d="M20.5557 42.1272L10.0777 36.0777C9.74063 35.8825 9.34451 35.8152 8.96187 35.8882C8.57923 35.9612 8.23569 36.1695 7.99414 36.4752L11.1069 46.2548L11.1053 46.2554L24.6893 54.0981V49.2869C24.6894 47.8357 24.3074 46.41 23.5818 45.1532C22.8562 43.8964 21.8125 42.8528 20.5557 42.1272Z" fill="#B0C899"/>
<path d="M29.0368 42.1895L35.235 39.1755C35.6326 38.9629 36.0786 38.8569 36.5294 38.868C36.9802 38.879 37.4204 39.0067 37.8071 39.2385C38.1939 39.4703 38.514 39.7984 38.7362 40.1907C38.9585 40.5831 39.0752 41.0263 39.0752 41.4773V45.8256L24.6892 54.0981V49.4436C24.6892 47.9541 25.0936 46.4926 25.8593 45.215C26.625 43.9375 27.7232 42.8917 29.0368 42.1895Z" fill="#B0C899"/>
<path d="M23.2635 27.9936C22.6569 27.6433 21.9688 27.4589 21.2684 27.4589C20.5679 27.4589 19.8798 27.6433 19.2733 27.9936L11.0718 32.6956C9.61721 33.5355 8.52187 34.8805 7.9939 36.4751L12.0241 37.2015C12.6253 36.1592 13.4906 35.2937 14.5328 34.6922L22.7344 29.9902C23.3353 29.6435 24.0162 29.4594 24.7099 29.4562C25.4037 29.453 26.0863 29.6308 26.6903 29.972L23.2635 27.9936Z" fill="#B0C899"/>
<path d="M11.1067 46.2547V40.6266C11.1066 39.4243 11.423 38.2431 12.0242 37.2019L10.0776 36.078C9.74051 35.8828 9.34438 35.8155 8.96175 35.8885C8.57911 35.9615 8.23556 36.1699 7.99401 36.4755C7.76924 37.1719 7.6518 37.8984 7.64575 38.6302V44.2581L11.1067 46.2547Z" fill="#B0C899"/>
<g style="mix-blend-mode:luminosity">
<path d="M26.0476 45.6174L23.5864 45.7874V57.4106H23.587C23.5947 57.5669 23.693 57.7152 23.8868 57.8271C24.3317 58.084 25.1088 58.0518 25.6226 57.7551C25.8868 57.6026 26.0289 57.4099 26.0451 57.2236H26.0476V45.6174Z" fill="url(#paint10_linear_115:115)"/>
<path d="M37.7234 38.9234L35.2622 39.0934V50.7165H35.2628C35.2705 50.8728 35.3687 51.0211 35.5626 51.133C36.0076 51.3899 36.7847 51.3577 37.2985 51.061C37.5627 50.9085 37.7048 50.7158 37.7209 50.5295H37.7235V38.9234H37.7234Z" fill="url(#paint11_linear_115:115)"/>
<path d="M14.6918 19.8792L14.6928 19.8778L12.6923 18.7285L12.6912 18.73C12.537 18.6257 12.3565 18.567 12.1704 18.5607C11.9843 18.5544 11.8002 18.6008 11.6393 18.6945L1.2031 24.6867C0.837306 24.8979 0.533548 25.2017 0.32236 25.5675C0.111172 25.9332 -2.4782e-06 26.3482 1.08446e-05 26.7705V43.4824C-0.000821158 43.66 0.046235 43.8346 0.136231 43.9878C0.226226 44.141 0.355835 44.2671 0.511427 44.3528V44.3532L2.59546 45.5507L14.6924 19.8794L14.6918 19.8792Z" fill="url(#paint12_linear_115:115)"/>
<path d="M2.10522 44.6925V27.9806C2.1052 27.5582 2.21635 27.1433 2.42749 26.7775C2.63864 26.4118 2.94234 26.108 3.30808 25.8968L13.7443 19.9045C13.8961 19.8169 14.0683 19.7708 14.2435 19.7708C14.4188 19.7708 14.5909 19.8169 14.7427 19.9045C14.8945 19.9922 15.0205 20.1182 15.1081 20.27C15.1958 20.4217 15.2419 20.5939 15.2419 20.7691V37.481C15.2419 37.9033 15.1307 38.3182 14.9195 38.684C14.7083 39.0498 14.4046 39.3536 14.0388 39.5648L3.60258 45.5571C3.45081 45.6446 3.27867 45.6907 3.10345 45.6907C2.92824 45.6907 2.75612 45.6445 2.60438 45.5569C2.45265 45.4693 2.32664 45.3433 2.23902 45.1915C2.1514 45.0398 2.10526 44.8677 2.10522 44.6925Z" fill="url(#paint13_linear_115:115)"/>
<path d="M37.4963 42.9694L15.6895 30.3792C15.4761 30.256 15.234 30.1911 14.9876 30.1911C14.7412 30.1911 14.4991 30.256 14.2857 30.3792L2.33192 37.2475C2.26266 37.287 2.20515 37.3441 2.16527 37.4132C2.12539 37.4822 2.10459 37.5606 2.10499 37.6403V42.8352C2.1046 42.9149 2.1254 42.9933 2.16528 43.0623C2.20516 43.1313 2.26267 43.1885 2.33192 43.228L24.1389 55.8185C24.3523 55.9417 24.5944 56.0065 24.8408 56.0065C25.0872 56.0065 25.3293 55.9417 25.5427 55.8185L37.4964 48.9502C37.5667 48.9101 37.6248 48.8518 37.6646 48.7814C37.7045 48.7111 37.7247 48.6313 37.723 48.5504H37.7234V43.3684H37.723C37.7245 43.2877 37.7043 43.2081 37.6644 43.1378C37.6245 43.0676 37.5665 43.0095 37.4963 42.9694Z" fill="url(#paint14_linear_115:115)"/>
<path d="M24.1391 50.6245L2.33214 38.0343C2.26314 37.9945 2.20585 37.9372 2.16602 37.8682C2.12619 37.7992 2.10522 37.7209 2.10522 37.6413C2.10522 37.5616 2.12619 37.4833 2.16602 37.4143C2.20585 37.3453 2.26314 37.288 2.33214 37.2482L14.2858 30.3799C14.4992 30.2567 14.7413 30.1918 14.9877 30.1918C15.2341 30.1918 15.4762 30.2567 15.6896 30.3799L37.4966 42.97C37.5655 43.0099 37.6228 43.0672 37.6627 43.1362C37.7025 43.2052 37.7235 43.2835 37.7235 43.3631C37.7235 43.4428 37.7025 43.5211 37.6627 43.5901C37.6228 43.6591 37.5655 43.7164 37.4966 43.7562L25.5429 50.6245C25.3295 50.7477 25.0874 50.8126 24.841 50.8126C24.5946 50.8126 24.3525 50.7477 24.1391 50.6245Z" fill="#D7D1EB"/>
<path d="M37.723 38.1739L2.10523 32.4461V37.6409C2.10484 37.7206 2.12565 37.799 2.16552 37.868C2.2054 37.9371 2.26291 37.9943 2.33217 38.0338L24.1389 50.6239C24.3523 50.7471 24.5944 50.812 24.8408 50.812C25.0872 50.812 25.3293 50.7471 25.5427 50.6239L37.4964 43.7556C37.5667 43.7155 37.6248 43.6572 37.6647 43.5869C37.7045 43.5165 37.7247 43.4367 37.723 43.3558H37.7234V38.1739H37.723Z" fill="url(#paint15_linear_115:115)"/>
<path d="M24.1389 45.4294L2.33189 32.8392C2.2629 32.7993 2.20561 32.742 2.16578 32.673C2.12595 32.604 2.10498 32.5257 2.10498 32.4461C2.10498 32.3664 2.12595 32.2881 2.16578 32.2191C2.20561 32.1501 2.2629 32.0928 2.33189 32.053L14.2856 25.1848C14.499 25.0616 14.7411 24.9967 14.9875 24.9967C15.2339 24.9967 15.4759 25.0616 15.6893 25.1848L37.4963 37.7749C37.5653 37.8148 37.6226 37.8721 37.6624 37.9411C37.7023 38.0101 37.7232 38.0883 37.7232 38.168C37.7232 38.2477 37.7023 38.3259 37.6624 38.395C37.6226 38.464 37.5653 38.5213 37.4963 38.5611L25.5426 45.4294C25.3292 45.5526 25.0871 45.6174 24.8407 45.6174C24.5943 45.6174 24.3523 45.5526 24.1389 45.4294Z" fill="#D7D1EB"/>
<path d="M17.066 27.8751C16.9998 27.8178 16.9233 27.7736 16.8405 27.7449L12.5245 25.253C12.4186 25.1577 12.2852 25.0984 12.1436 25.0837C12.0019 25.069 11.8592 25.0996 11.736 25.1711L5.76212 28.6204C5.4654 28.7916 5.21898 29.0379 5.04762 29.3345C4.87625 29.6312 4.78599 29.9677 4.78589 30.3103C4.78538 30.4342 4.81923 30.5558 4.88367 30.6616C4.94812 30.7674 5.04063 30.8533 5.15095 30.9097L9.62814 33.4947C9.73302 33.5676 9.85653 33.609 9.98414 33.6141C10.1118 33.6192 10.2382 33.5878 10.3485 33.5235L16.3224 30.0745C16.6191 29.9032 16.8654 29.6569 17.0367 29.3602C17.208 29.0635 17.2982 28.727 17.2982 28.3844C17.2987 28.2877 17.2782 28.1921 17.238 28.1041C17.1978 28.0162 17.139 27.938 17.0656 27.8751H17.066Z" fill="url(#paint16_linear_115:115)"/>
<path d="M10.3091 31.2472L16.2829 27.7982C16.3859 27.7388 16.5026 27.7075 16.6214 27.7075C16.7403 27.7075 16.857 27.7388 16.9599 27.7982C17.0628 27.8577 17.1483 27.9431 17.2077 28.046C17.2671 28.1489 17.2984 28.2657 17.2984 28.3845C17.2984 28.7271 17.2082 29.0637 17.0369 29.3604C16.8656 29.657 16.6192 29.9034 16.3225 30.0747L10.3487 33.5236C10.2458 33.5831 10.129 33.6143 10.0102 33.6143C9.89137 33.6143 9.77463 33.5831 9.67172 33.5236C9.56881 33.4642 9.48335 33.3788 9.42394 33.2758C9.36452 33.1729 9.33325 33.0562 9.33325 32.9374C9.33326 32.5948 9.42344 32.2582 9.59474 31.9615C9.76604 31.6649 10.0124 31.4185 10.3091 31.2472Z" fill="url(#paint17_linear_115:115)"/>
<path d="M7.65112 38.3722L24.6893 54.0979L39.0753 41.0785C39.0753 39.8757 38.7587 38.694 38.1573 37.6524C37.5559 36.6107 36.6909 35.7457 35.6492 35.1443L23.2635 27.9934C22.6569 27.6431 21.9688 27.4588 21.2683 27.4588C20.5679 27.4588 19.8798 27.6431 19.2732 27.9934L11.0718 32.6954C10.068 33.2751 9.22769 34.0999 8.62945 35.0927C8.0312 36.0855 7.69459 37.2139 7.65112 38.3722Z" fill="#E9E5F6"/>
<path d="M20.5557 42.127L10.0777 36.0776C9.74063 35.8824 9.34451 35.8151 8.96187 35.888C8.57923 35.961 8.23569 36.1694 7.99414 36.475L11.1069 46.2546L11.1053 46.2552L24.6893 54.098V49.2868C24.6894 47.8355 24.3074 46.4099 23.5818 45.1531C22.8562 43.8963 21.8125 42.8526 20.5557 42.127Z" fill="url(#paint18_linear_115:115)"/>
<path d="M29.0368 42.1893L35.235 39.1753C35.6326 38.9627 36.0786 38.8568 36.5294 38.8678C36.9802 38.8789 37.4204 39.0065 37.8071 39.2383C38.1939 39.4702 38.514 39.7982 38.7362 40.1906C38.9585 40.5829 39.0752 41.0262 39.0752 41.4771V45.8255L24.6892 54.0979V49.4434C24.6892 47.954 25.0936 46.4925 25.8593 45.2149C26.625 43.9373 27.7232 42.8916 29.0368 42.1893Z" fill="url(#paint19_linear_115:115)"/>
<path d="M23.2635 27.9934C22.6569 27.6432 21.9688 27.4588 21.2684 27.4588C20.5679 27.4588 19.8798 27.6432 19.2733 27.9934L11.0718 32.6954C9.61721 33.5354 8.52187 34.8804 7.9939 36.4749L12.0241 37.2013C12.6253 36.159 13.4906 35.2936 14.5328 34.6921L22.7344 29.99C23.3353 29.6433 24.0162 29.4593 24.7099 29.4561C25.4037 29.4529 26.0863 29.6307 26.6903 29.9719L23.2635 27.9934Z" fill="#F2EDFF"/>
<path d="M11.1067 46.2545V40.6264C11.1066 39.4241 11.423 38.243 12.0242 37.2018L10.0776 36.0779C9.74051 35.8827 9.34438 35.8154 8.96175 35.8883C8.57911 35.9613 8.23556 36.1697 7.99401 36.4753C7.76924 37.1717 7.6518 37.8983 7.64575 38.63V44.2579L11.1067 46.2545Z" fill="#E9E5F6"/>
</g>
<defs>
<linearGradient id="paint0_linear_115:115" x1="42.6661" y1="33.2488" x2="44.9624" y2="33.2488" gradientUnits="userSpaceOnUse">
<stop stop-color="#8B451C"/>
<stop offset="1" stop-color="#BF942A"/>
</linearGradient>
<linearGradient id="paint1_linear_115:115" x1="54.209" y1="26.5548" x2="56.6702" y2="26.5548" gradientUnits="userSpaceOnUse">
<stop stop-color="#8B451C"/>
<stop offset="1" stop-color="#BF942A"/>
</linearGradient>
<linearGradient id="paint2_linear_115:115" x1="23.7219" y1="11.2551" x2="25.3381" y2="10.4347" gradientUnits="userSpaceOnUse">
<stop stop-color="#252336"/>
<stop offset="1" stop-color="#594A8E"/>
</linearGradient>
<linearGradient id="paint3_linear_115:115" x1="27.6203" y1="19.3287" x2="27.6203" y2="7.94982" gradientUnits="userSpaceOnUse">
<stop stop-color="#594A8E"/>
<stop offset="1" stop-color="#7662BD"/>
</linearGradient>
<linearGradient id="paint4_linear_115:115" x1="42.6721" y1="24.5387" x2="44.9517" y2="24.5387" gradientUnits="userSpaceOnUse">
<stop stop-color="#8B451C"/>
<stop offset="1" stop-color="#BF942A"/>
</linearGradient>
<linearGradient id="paint5_linear_115:115" x1="39.3597" y1="23.0689" x2="41.4612" y2="23.0689" gradientUnits="userSpaceOnUse">
<stop stop-color="#C5BAEB"/>
<stop offset="1" stop-color="#E9E5F6"/>
</linearGradient>
<linearGradient id="paint6_linear_115:115" x1="27.4363" y1="15.2167" x2="28.2075" y2="12.3395" gradientUnits="userSpaceOnUse">
<stop stop-color="#C5BAEB"/>
<stop offset="1" stop-color="#E9E5F6"/>
</linearGradient>
<linearGradient id="paint7_linear_115:115" x1="28.28" y1="12.1008" x2="36.2452" y2="12.1008" gradientUnits="userSpaceOnUse">
<stop stop-color="#C5BAEB"/>
<stop offset="1" stop-color="#E9E5F6"/>
</linearGradient>
<linearGradient id="paint8_linear_115:115" x1="29.6121" y1="22.6431" x2="43.4587" y2="29.3449" gradientUnits="userSpaceOnUse">
<stop stop-color="#D7D1EB"/>
<stop offset="1" stop-color="#E7E3F3"/>
</linearGradient>
<linearGradient id="paint9_linear_115:115" x1="44.2404" y1="30.4963" x2="57.7951" y2="23.5307" gradientUnits="userSpaceOnUse">
<stop stop-color="#D7D1EB"/>
<stop offset="1" stop-color="#E7E3F3"/>
</linearGradient>
<linearGradient id="paint10_linear_115:115" x1="23.7193" y1="51.809" x2="26.0156" y2="51.809" gradientUnits="userSpaceOnUse">
<stop stop-color="#8B451C"/>
<stop offset="1" stop-color="#BF942A"/>
</linearGradient>
<linearGradient id="paint11_linear_115:115" x1="35.2622" y1="45.1149" x2="37.7235" y2="45.1149" gradientUnits="userSpaceOnUse">
<stop stop-color="#8B451C"/>
<stop offset="1" stop-color="#BF942A"/>
</linearGradient>
<linearGradient id="paint12_linear_115:115" x1="4.77517" y1="29.8152" x2="6.39134" y2="28.9948" gradientUnits="userSpaceOnUse">
<stop stop-color="#252336"/>
<stop offset="1" stop-color="#594A8E"/>
</linearGradient>
<linearGradient id="paint13_linear_115:115" x1="8.67357" y1="37.8888" x2="8.67357" y2="26.51" gradientUnits="userSpaceOnUse">
<stop stop-color="#594A8E"/>
<stop offset="1" stop-color="#7662BD"/>
</linearGradient>
<linearGradient id="paint14_linear_115:115" x1="23.7253" y1="43.0988" x2="26.0049" y2="43.0988" gradientUnits="userSpaceOnUse">
<stop stop-color="#8B451C"/>
<stop offset="1" stop-color="#BF942A"/>
</linearGradient>
<linearGradient id="paint15_linear_115:115" x1="20.413" y1="41.629" x2="22.5144" y2="41.629" gradientUnits="userSpaceOnUse">
<stop stop-color="#C5BAEB"/>
<stop offset="1" stop-color="#E9E5F6"/>
</linearGradient>
<linearGradient id="paint16_linear_115:115" x1="8.48954" y1="33.7768" x2="9.26073" y2="30.8997" gradientUnits="userSpaceOnUse">
<stop stop-color="#C5BAEB"/>
<stop offset="1" stop-color="#E9E5F6"/>
</linearGradient>
<linearGradient id="paint17_linear_115:115" x1="9.33325" y1="30.6609" x2="17.2984" y2="30.6609" gradientUnits="userSpaceOnUse">
<stop stop-color="#C5BAEB"/>
<stop offset="1" stop-color="#E9E5F6"/>
</linearGradient>
<linearGradient id="paint18_linear_115:115" x1="10.6654" y1="41.2033" x2="24.5119" y2="47.905" gradientUnits="userSpaceOnUse">
<stop stop-color="#D7D1EB"/>
<stop offset="1" stop-color="#E7E3F3"/>
</linearGradient>
<linearGradient id="paint19_linear_115:115" x1="25.2934" y1="49.0565" x2="38.8481" y2="42.0909" gradientUnits="userSpaceOnUse">
<stop stop-color="#D7D1EB"/>
<stop offset="1" stop-color="#E7E3F3"/>
</linearGradient>
</defs>
</svg>
