<svg width="24" height="24" viewBox="0 0 24 24" fill="none" xmlns="http://www.w3.org/2000/svg">
<path d="M18.04 13.55C17.8244 13.7595 17.6585 14.0147 17.5546 14.2968C17.4508 14.5789 17.4116 14.8807 17.44 15.18C17.5047 15.7038 17.7614 16.1849 18.1604 16.5303C18.5594 16.8758 19.0724 17.0609 19.6 17.05H21.5V18.24C21.4979 19.2366 21.1011 20.1917 20.3964 20.8964C19.6917 21.6011 18.7366 21.9979 17.74 22H6.26C5.26344 21.9979 4.30829 21.6011 3.60361 20.8964C2.89893 20.1917 2.50211 19.2366 2.5 18.24L2.5 11.51C2.50211 10.5134 2.89893 9.55829 3.60361 8.85361C4.30829 8.14893 5.26344 7.75211 6.26 7.75L17.74 7.75C18.7366 7.75211 19.6917 8.14893 20.3964 8.85361C21.1011 9.55829 21.4979 10.5134 21.5 11.51V12.95H19.48C19.212 12.948 18.9463 13.0002 18.6989 13.1033C18.4514 13.2063 18.2273 13.3583 18.04 13.55V13.55Z" stroke="#A5CF7C" stroke-width="1.5" stroke-linecap="round" stroke-linejoin="round"/>
<path d="M2.50001 12.41V7.84003C2.49872 7.26065 2.67416 6.69466 3.00292 6.2176C3.33169 5.74053 3.79813 5.37508 4.34001 5.17003L12.28 2.17003C12.5674 2.06173 12.8767 2.02471 13.1815 2.06213C13.4863 2.09955 13.7775 2.2103 14.0302 2.38489C14.2828 2.55948 14.4894 2.79271 14.6322 3.06459C14.7749 3.33648 14.8497 3.63893 14.85 3.94603V7.74603" stroke="#A5CF7C" stroke-width="1.5" stroke-linecap="round" stroke-linejoin="round"/>
<path d="M22.5591 13.97V16.03C22.5574 16.2966 22.4521 16.552 22.2655 16.7423C22.0789 16.9327 21.8256 17.043 21.5591 17.05H19.5991C19.0715 17.0609 18.5586 16.8758 18.1596 16.5303C17.7606 16.1849 17.5039 15.7038 17.4391 15.18C17.4108 14.8807 17.4499 14.5789 17.5538 14.2968C17.6576 14.0147 17.8235 13.7595 18.0391 13.55C18.2265 13.3583 18.4506 13.2064 18.698 13.1033C18.9454 13.0002 19.2111 12.948 19.4791 12.95H21.5591C21.8256 12.957 22.0789 13.0673 22.2655 13.2577C22.4521 13.448 22.5574 13.7035 22.5591 13.97V13.97Z" stroke="#A5CF7C" stroke-width="1.5" stroke-linecap="round" stroke-linejoin="round"/>
<path d="M7 12H14" stroke="#A5CF7C" stroke-width="1.5" stroke-linecap="round" stroke-linejoin="round"/>
</svg>
