<svg width="24" height="24" viewBox="0 0 24 24" fill="none" xmlns="http://www.w3.org/2000/svg">
<path d="M22.9169 6.63209L22.7198 6.59838C23.2029 3.77309 21.466 0.721516 18.7762 0.233105C17.7607 0.0487147 16.8384 0.656514 16.0983 1.65896C15.3624 2.65577 14.8485 3.99288 14.6543 5.12953L22.9169 6.63209ZM22.9169 6.63209L22.7198 6.59839C22.4735 8.03913 22.1368 9.16621 21.836 10.0803M22.9169 6.63209L21.836 10.0803M20.7301 14.831L14.9201 13.776L14.7047 15.0292L20.7301 14.831ZM20.7301 14.831L20.5149 16.0894C20.3785 16.8871 19.9406 17.5945 19.2996 18.0572C18.6589 18.5197 17.8673 18.7003 17.0987 18.5606C16.3298 18.4209 15.6446 17.9717 15.1949 17.3096C14.745 16.6474 14.5683 15.827 14.7047 15.0294L20.7301 14.831ZM21.836 10.0803C21.7702 10.2803 21.7055 10.4716 21.6435 10.6548C21.4557 11.2102 21.2933 11.6908 21.2009 12.1126M21.836 10.0803L21.2009 12.1126M21.2009 12.1126L15.3321 11.046L15.0869 9.3418C15.0201 8.87711 14.947 8.44933 14.8786 8.05271C14.8739 8.02517 14.8691 7.99779 14.8644 7.97056C14.8012 7.60472 14.7429 7.26692 14.6971 6.94784C14.5985 6.26164 14.5605 5.67943 14.6543 5.1296L21.2009 12.1126ZM7.22064 14.7539H7.36515L7.41053 14.6167L7.46144 14.4627C7.89972 13.2221 8.15809 12.4805 8.30659 11.9945C8.45564 11.5068 8.49959 11.2595 8.49959 11.0116C8.49959 10.0982 8.26126 9.01275 7.87375 8.23831C7.73095 7.95239 7.60494 7.75855 7.49971 7.63283C7.44729 7.5702 7.39649 7.52021 7.34757 7.48406C7.30642 7.45364 7.23765 7.41095 7.15421 7.41095C6.34734 7.41095 5.57988 7.85235 5.02033 8.51043C4.45937 9.17019 4.09076 10.0655 4.09076 11.0116C4.09076 12.1557 4.17771 13.127 4.35296 14.2977L4.35304 14.2982L4.39657 14.584L4.42244 14.7539H4.59429H7.22064ZM17.1416 9.38286L19.4981 9.81181L19.4839 9.85604H19.758H19.7591L19.7766 9.66201L19.9484 9.71701C20.1216 9.17612 20.2641 8.74784 20.288 8.67623C20.2903 8.66916 20.2915 8.66557 20.2915 8.66569L20.2944 8.65816L20.2967 8.65043C20.5302 7.86634 20.7142 7.09693 20.8577 6.25607C21.0169 5.32485 20.8044 4.37788 20.3634 3.62848C19.9236 2.88104 19.2429 2.30932 18.4492 2.1645L18.4477 2.16424C18.3661 2.14998 18.2914 2.17958 18.2455 2.20235C18.1911 2.22929 18.1326 2.26946 18.0703 2.32175C17.9454 2.42672 17.7885 2.59485 17.5996 2.85048L17.5995 2.85056C17.0864 3.54555 16.67 4.57316 16.5153 5.47047L16.5152 5.47084C16.4416 5.90281 16.4623 6.03555 16.8244 8.20939L16.8245 8.21015C16.8757 8.51068 16.9178 8.78047 16.9565 9.05141L16.9794 9.21393L16.9995 9.35699L17.1416 9.38286ZM2.77269 19.4769H8.67228V20.7529C8.67228 21.563 8.36007 22.3387 7.80617 22.9097C7.25247 23.4805 6.50282 23.8 5.72248 23.8C4.94215 23.8 4.1925 23.4805 3.6388 22.9097C3.0849 22.3387 2.77269 21.563 2.77269 20.7529V19.4769ZM7.15421 5.44941C8.18551 5.44941 8.99216 6.21385 9.55243 7.33435C10.1094 8.4483 10.3903 9.85751 10.3903 11.0116C10.3903 11.5703 10.2549 12.1369 10.0421 12.795C9.94336 13.1004 9.8292 13.4219 9.70558 13.7701C9.69613 13.7967 9.68662 13.8235 9.67706 13.8505C9.5428 14.2288 9.39879 14.637 9.25467 15.0827L8.72675 16.7154H2.76786C2.74792 16.2835 2.66878 15.7811 2.57727 15.2003C2.54702 15.0082 2.51542 14.8076 2.48415 14.5981C2.34178 13.6441 2.2 12.474 2.2 11.0116C2.2 8.14262 4.42453 5.44941 7.15421 5.44941Z" fill="#A5CF7C" stroke="#EBF1E6" stroke-width="0.4"/>
</svg>
