<svg width="26" height="26" viewBox="0 0 26 26" fill="none" xmlns="http://www.w3.org/2000/svg">
<path d="M8.66683 16.2499C8.66683 15.0533 7.69678 14.0833 6.50016 14.0833C5.30355 14.0833 4.3335 15.0533 4.3335 16.2499V18.4166C4.3335 19.6132 5.30355 20.5833 6.50016 20.5833C7.69678 20.5833 8.66683 19.6132 8.66683 18.4166V16.2499Z" stroke="#A5CF7C" stroke-width="1.8" stroke-linecap="round" stroke-linejoin="round"/>
<path d="M21.6668 16.2499C21.6668 15.0533 20.6968 14.0833 19.5002 14.0833C18.3035 14.0833 17.3335 15.0533 17.3335 16.2499V18.4166C17.3335 19.6132 18.3035 20.5833 19.5002 20.5833C20.6968 20.5833 21.6668 19.6132 21.6668 18.4166V16.2499Z" stroke="#A5CF7C" stroke-width="1.8" stroke-linecap="round" stroke-linejoin="round"/>
<path d="M4.3335 16.2499V12.9999C4.3335 10.7014 5.24659 8.49698 6.8719 6.87166C8.49722 5.24634 10.7016 4.33325 13.0002 4.33325C15.2987 4.33325 17.5031 5.24634 19.1284 6.87166C20.7537 8.49698 21.6668 10.7014 21.6668 12.9999V16.2499" stroke="#A5CF7C" stroke-width="1.8" stroke-linecap="round" stroke-linejoin="round"/>
<path d="M19.5 20.5833C19.5 21.4452 18.8152 22.2719 17.5962 22.8813C16.3772 23.4908 14.7239 23.8332 13 23.8332" stroke="#A5CF7C" stroke-width="1.8" stroke-linecap="round" stroke-linejoin="round"/>
</svg>
