<svg width="11" height="11" viewBox="0 0 11 11" fill="none" xmlns="http://www.w3.org/2000/svg">
<path d="M6.93001 4.72541C6.93001 5.00824 6.84614 5.28471 6.68901 5.51988C6.53188 5.75504 6.30854 5.93832 6.04725 6.04656C5.78595 6.15479 5.49842 6.18311 5.22103 6.12793C4.94364 6.07276 4.68883 5.93656 4.48885 5.73657C4.28886 5.53658 4.15266 5.28178 4.09749 5.00439C4.04231 4.727 4.07063 4.43947 4.17886 4.17817C4.28709 3.91687 4.47038 3.69354 4.70554 3.53641C4.9407 3.37928 5.21718 3.29541 5.50001 3.29541C5.87927 3.29541 6.24299 3.44607 6.51117 3.71425C6.77935 3.98242 6.93001 4.34615 6.93001 4.72541V4.72541Z" stroke="white"/>
<path d="M1.65918 3.89124C2.56209 -0.0779257 8.44251 -0.0733422 9.34084 3.89582C9.86793 6.22416 8.41959 8.19499 7.15001 9.41416C6.70638 9.84203 6.11406 10.0811 5.49772 10.0811C4.88137 10.0811 4.28906 9.84203 3.84543 9.41416C2.58043 8.19499 1.13209 6.21957 1.65918 3.89124Z" stroke="white"/>
</svg>
