<svg width="24" height="24" viewBox="0 0 24 24" fill="none" xmlns="http://www.w3.org/2000/svg">
<path d="M3.62001 8.49C5.59001 -0.169998 18.42 -0.159997 20.38 8.5C21.53 13.58 18.37 17.88 15.6 20.54C14.6321 21.4735 13.3398 21.9952 11.995 21.9952C10.6503 21.9952 9.35794 21.4735 8.39001 20.54C5.63001 17.88 2.47001 13.57 3.62001 8.49Z" stroke="#3C2415"/>
<path d="M15.12 10.31C15.12 10.9271 14.937 11.5303 14.5942 12.0434C14.2514 12.5565 13.7641 12.9564 13.194 13.1925C12.6239 13.4287 11.9965 13.4904 11.3913 13.3701C10.7861 13.2497 10.2302 12.9525 9.79383 12.5162C9.35749 12.0798 9.06034 11.5239 8.93996 10.9187C8.81957 10.3135 8.88136 9.68614 9.1175 9.11603C9.35365 8.54592 9.75355 8.05865 10.2666 7.71582C10.7797 7.37299 11.3829 7.19 12 7.19C12.8275 7.19 13.6211 7.51872 14.2062 8.10383C14.7913 8.68894 15.12 9.48253 15.12 10.31Z" stroke="#3C2415"/>
</svg>
