<svg width="293" height="223" viewBox="0 0 293 223" fill="none" xmlns="http://www.w3.org/2000/svg">
<path d="M38.88 77.76C60.3529 77.76 77.76 60.3529 77.76 38.88C77.76 17.4072 60.3529 0 38.88 0C17.4072 0 0 17.4072 0 38.88C0 60.3529 17.4072 77.76 38.88 77.76Z" fill="#B0C899"/>
<path d="M37.0328 72.8147L45.9088 65.7177C39.0157 64.9591 36.1822 68.7162 35.0243 71.6919C29.639 69.4559 23.7747 72.387 23.7747 72.387L41.5296 78.8354C40.6343 76.4414 39.0742 74.3527 37.0328 72.8147Z" fill="#473F37"/>
<path d="M110.293 53.5368L119.169 46.4398C112.276 45.6812 109.443 49.4383 108.285 52.4141C102.899 50.178 97.035 53.1092 97.035 53.1092L114.79 59.5575C113.894 57.1636 112.334 55.0749 110.293 53.5368Z" fill="#473F37"/>
<path d="M167.181 222.6C236.62 222.6 292.911 219.236 292.911 215.085C292.911 210.935 236.62 207.57 167.181 207.57C97.7427 207.57 41.4517 210.935 41.4517 215.085C41.4517 219.236 97.7427 222.6 167.181 222.6Z" fill="#E6E6E6"/>
<path d="M112.403 212.448H111.999C111.999 207.458 110.017 202.672 106.488 199.144C102.96 195.615 98.174 193.633 93.1839 193.633C88.1938 193.633 83.4082 195.615 79.8796 199.144C76.3511 202.672 74.3688 207.458 74.3688 212.448H73.9724C73.9724 207.352 75.9969 202.464 79.6005 198.861C83.204 195.257 88.0915 193.233 93.1877 193.233C98.2839 193.233 103.171 195.257 106.775 198.861C110.379 202.464 112.403 207.352 112.403 212.448Z" fill="#473F37"/>
<path d="M251.713 212.448H251.309C251.309 207.458 249.327 202.672 245.798 199.144C242.27 195.615 237.484 193.633 232.494 193.633C227.504 193.633 222.718 195.615 219.19 199.144C215.661 202.672 213.679 207.458 213.679 212.448H213.282C213.282 207.352 215.307 202.464 218.91 198.861C222.514 195.257 227.401 193.233 232.498 193.233C237.594 193.233 242.481 195.257 246.085 198.861C249.688 202.464 251.713 207.352 251.713 212.448Z" fill="#473F37"/>
<path d="M204.676 166.612H204.275C204.275 157.482 200.648 148.725 194.192 142.269C187.736 135.812 178.979 132.185 169.848 132.185C160.717 132.185 151.961 135.812 145.504 142.269C139.048 148.725 135.421 157.482 135.421 166.612H135.021C134.997 162.023 135.88 157.475 137.619 153.229C139.359 148.982 141.921 145.121 145.157 141.868C148.393 138.614 152.241 136.033 156.478 134.271C160.715 132.509 165.259 131.603 169.848 131.603C174.437 131.603 178.981 132.509 183.218 134.271C187.456 136.033 191.303 138.614 194.539 141.868C197.776 145.121 200.337 148.982 202.077 153.229C203.816 157.475 204.7 162.023 204.676 166.612Z" fill="#473F37"/>
<path d="M102.89 132.761C107.341 132.761 110.95 129.152 110.95 124.701C110.95 120.249 107.341 116.64 102.89 116.64C98.438 116.64 94.8292 120.249 94.8292 124.701C94.8292 129.152 98.438 132.761 102.89 132.761Z" fill="#B0C899"/>
<path d="M104.775 179.298L118.358 163.122H145.063L161.383 179.018L161.053 179.23H161.171V212.293H104.794V179.23L104.775 179.298Z" fill="#473F37"/>
<path d="M116.026 161.608H112.947V172.266H116.026V161.608Z" fill="#473F37"/>
<path d="M118.147 162.911L134.89 182.541V212.293H104.794V178.807L118.147 162.911Z" fill="#B0C899"/>
<path d="M131.02 186.436H124.874V192.721H131.02V186.436Z" fill="#473F37"/>
<path d="M131.02 194.988H124.874V201.272H131.02V194.988Z" fill="#473F37"/>
<path d="M131.02 186.436H124.874V192.721H131.02V186.436Z" fill="white"/>
<path d="M131.02 194.988H124.874V201.272H131.02V194.988Z" fill="white"/>
<path d="M122.519 186.436H116.373V192.721H122.519V186.436Z" fill="#473F37"/>
<path d="M122.519 194.988H116.373V201.272H122.519V194.988Z" fill="#473F37"/>
<path d="M122.519 186.436H116.373V192.721H122.519V186.436Z" fill="white"/>
<path d="M122.519 194.988H116.373V201.272H122.519V194.988Z" fill="white"/>
<path d="M114.019 186.436H107.873V192.721H114.019V186.436Z" fill="#473F37"/>
<path d="M114.019 194.988H107.873V201.272H114.019V194.988Z" fill="#473F37"/>
<path d="M114.019 186.436H107.873V192.721H114.019V186.436Z" fill="white"/>
<path d="M114.019 194.988H107.873V201.272H114.019V194.988Z" fill="white"/>
<path d="M174.486 124.226H170.693V131.813H174.486V124.226Z" fill="#B0C899"/>
<path d="M173.538 130.864H150.779V212.418H173.538V130.864Z" fill="#B0C899"/>
<path d="M183.02 130.864H173.538V212.418H183.02V130.864Z" fill="#473F37"/>
<path d="M157.738 138.39H154.135V141.993H157.738V138.39Z" fill="white"/>
<path d="M163.543 138.39H159.94V141.993H163.543V138.39Z" fill="white"/>
<path d="M169.348 138.39H165.745V141.993H169.348V138.39Z" fill="white"/>
<path d="M158.365 146.037H154.572V149.83H158.365V146.037Z" fill="white"/>
<path d="M164.055 146.037H159.313V149.83H164.055V146.037Z" fill="white"/>
<path d="M168.796 146.037H165.951V149.83H168.796V146.037Z" fill="white"/>
<path d="M157.938 154.803H154.336V158.406H157.938V154.803Z" fill="white"/>
<path d="M163.744 154.803H160.141V158.406H163.744V154.803Z" fill="white"/>
<path d="M169.548 154.803H165.945V158.406H169.548V154.803Z" fill="white"/>
<path d="M158.365 162.158H154.572V166.9H158.365V162.158Z" fill="white"/>
<path d="M164.055 162.158H159.313V166.9H164.055V162.158Z" fill="white"/>
<path d="M169.744 162.158H166.9V166.9H169.744V162.158Z" fill="white"/>
<path d="M158.138 171.216H154.536V174.819H158.138V171.216Z" fill="white"/>
<path d="M163.944 171.216H160.341V174.819H163.944V171.216Z" fill="white"/>
<path d="M169.748 171.216H166.146V174.819H169.748V171.216Z" fill="white"/>
<path d="M158.365 179.227H154.572V183.021H158.365V179.227Z" fill="white"/>
<path d="M164.055 179.227H160.261V183.021H164.055V179.227Z" fill="white"/>
<path d="M169.744 179.227H166.9V183.021H169.744V179.227Z" fill="white"/>
<path d="M158.339 187.628H154.737V191.231H158.339V187.628Z" fill="white"/>
<path d="M164.144 187.628H160.541V191.231H164.144V187.628Z" fill="white"/>
<path d="M169.948 187.628H166.346V191.231H169.948V187.628Z" fill="white"/>
<path d="M158.365 195.348H154.572V200.09H158.365V195.348Z" fill="white"/>
<path d="M165.003 195.348H160.261V200.09H165.003V195.348Z" fill="white"/>
<path d="M165.003 205.78H160.261V212.418H165.003V205.78Z" fill="white"/>
<path d="M169.744 195.348H166.9V200.09H169.744V195.348Z" fill="white"/>
<path d="M174.486 124.226H173.538V131.813H174.486V124.226Z" fill="#473F37"/>
<path d="M203.875 160.608H201.073V164.759H203.875V160.608Z" fill="#B0C899"/>
<path d="M203.675 164.404H179.856V212.449H203.675V164.404Z" fill="#B0C899"/>
<path d="M213.282 164.404H203.675V212.449H213.282V164.404Z" fill="#473F37"/>
<path d="M188.162 171.216H184.56V174.819H188.162V171.216Z" fill="white"/>
<path d="M193.967 171.216H190.364V174.819H193.967V171.216Z" fill="white"/>
<path d="M199.771 171.216H196.169V174.819H199.771V171.216Z" fill="white"/>
<path d="M187.762 179.227H183.969V183.021H187.762V179.227Z" fill="white"/>
<path d="M194.4 179.227H191.555V183.021H194.4V179.227Z" fill="white"/>
<path d="M199.141 179.227H196.297V183.021H199.141V179.227Z" fill="white"/>
<path d="M188.362 187.628H184.76V191.231H188.362V187.628Z" fill="white"/>
<path d="M194.167 187.628H190.564V191.231H194.167V187.628Z" fill="white"/>
<path d="M199.972 187.628H196.37V191.231H199.972V187.628Z" fill="white"/>
<path d="M188.71 195.348H184.917V200.09H188.71V195.348Z" fill="white"/>
<path d="M194.4 195.348H191.555V200.09H194.4V195.348Z" fill="white"/>
<path d="M194.4 205.78H191.555V212.418H194.4V205.78Z" fill="white"/>
<path d="M200.09 195.348H196.297V200.09H200.09V195.348Z" fill="white"/>
<path d="M205.277 160.608H203.675V164.641H205.277V160.608Z" fill="#473F37"/>
<path d="M251.762 212.206H74.0218V212.655H251.762V212.206Z" fill="#473F37"/>
<path d="M220.62 203.056C223.499 203.056 225.832 200.723 225.832 197.844C225.832 194.966 223.499 192.632 220.62 192.632C217.742 192.632 215.409 194.966 215.409 197.844C215.409 200.723 217.742 203.056 220.62 203.056Z" fill="#B0C899"/>
<path opacity="0.2" d="M224.5 194.363C224.981 195.5 225.044 196.771 224.676 197.949C224.309 199.128 223.535 200.138 222.493 200.8C221.451 201.461 220.208 201.732 218.985 201.564C217.762 201.395 216.639 200.798 215.814 199.879C216.11 200.577 216.554 201.202 217.115 201.71C217.676 202.219 218.342 202.599 219.065 202.825C219.788 203.05 220.552 203.115 221.303 203.016C222.054 202.916 222.774 202.654 223.413 202.248C224.053 201.842 224.596 201.302 225.005 200.664C225.415 200.027 225.681 199.308 225.784 198.557C225.887 197.807 225.826 197.043 225.604 196.319C225.382 195.594 225.006 194.927 224.5 194.363Z" fill="black"/>
<path d="M220.635 197.845H220.649L220.907 212.622H220.362L220.635 197.845Z" fill="#473F37"/>
<path d="M221.464 205.666L220.602 206.12L220.722 206.348L221.584 205.895L221.464 205.666Z" fill="#473F37"/>
<path d="M235.944 198.077C240.321 198.077 243.87 194.528 243.87 190.151C243.87 185.773 240.321 182.225 235.944 182.225C231.566 182.225 228.018 185.773 228.018 190.151C228.018 194.528 231.566 198.077 235.944 198.077Z" fill="#B0C899"/>
<path opacity="0.2" d="M241.839 184.856C242.58 186.586 242.682 188.523 242.126 190.32C241.57 192.118 240.393 193.659 238.804 194.669C237.216 195.678 235.321 196.089 233.457 195.829C231.594 195.569 229.884 194.654 228.632 193.249C229.084 194.306 229.76 195.252 230.613 196.021C231.467 196.791 232.477 197.366 233.575 197.706C234.673 198.046 235.831 198.143 236.97 197.991C238.109 197.839 239.202 197.442 240.172 196.825C241.142 196.209 241.966 195.39 242.588 194.423C243.21 193.457 243.614 192.367 243.773 191.229C243.931 190.09 243.84 188.931 243.507 187.832C243.173 186.732 242.604 185.718 241.839 184.86V184.856Z" fill="black"/>
<path d="M235.969 190.152H235.991L236.383 212.626H235.555L235.969 190.152Z" fill="#473F37"/>
<path d="M237.226 202.044L235.916 202.734L236.099 203.08L237.409 202.391L237.226 202.044Z" fill="#473F37"/>
<path d="M79.3085 202.856C82.1869 202.856 84.5203 200.523 84.5203 197.644C84.5203 194.766 82.1869 192.432 79.3085 192.432C76.4301 192.432 74.0966 194.766 74.0966 197.644C74.0966 200.523 76.4301 202.856 79.3085 202.856Z" fill="#B0C899"/>
<path opacity="0.2" d="M83.1879 194.163C83.6693 195.3 83.7318 196.57 83.3644 197.749C82.997 198.928 82.2235 199.938 81.1814 200.599C80.1393 201.261 78.8962 201.532 77.6733 201.364C76.4503 201.195 75.3268 200.598 74.5025 199.679C74.7979 200.377 75.2417 201.002 75.803 201.51C76.3644 202.019 77.0298 202.399 77.753 202.625C78.4762 202.85 79.2398 202.915 79.9908 202.816C80.7418 202.716 81.462 202.454 82.1015 202.048C82.7409 201.642 83.2842 201.101 83.6936 200.464C84.103 199.827 84.3687 199.108 84.4721 198.357C84.5755 197.607 84.5141 196.843 84.2924 196.119C84.0706 195.394 83.6937 194.727 83.1879 194.163Z" fill="black"/>
<path d="M79.3227 197.645H79.3369L79.5949 212.422H79.0505L79.3227 197.645Z" fill="#473F37"/>
<path d="M80.1523 205.466L79.2905 205.92L79.4107 206.148L80.2724 205.694L80.1523 205.466Z" fill="#473F37"/>
<path d="M195.35 124.446L197.193 122.973C196.73 122.87 196.245 122.939 195.829 123.167C195.413 123.395 195.095 123.767 194.933 124.213C194.165 123.958 193.328 124.01 192.597 124.357L196.284 125.695C196.098 125.199 195.774 124.765 195.35 124.446Z" fill="#473F37"/>
<path d="M102.878 131.853L104.721 130.379C104.258 130.276 103.773 130.345 103.357 130.573C102.941 130.801 102.622 131.173 102.46 131.619C101.692 131.364 100.855 131.416 100.124 131.763L103.811 133.101C103.625 132.605 103.302 132.172 102.878 131.853Z" fill="#473F37"/>
<path d="M223.372 139.458L225.215 137.984C224.752 137.881 224.267 137.95 223.851 138.179C223.435 138.407 223.117 138.779 222.955 139.225C222.187 138.97 221.35 139.021 220.619 139.369L224.306 140.707C224.12 140.21 223.796 139.777 223.372 139.458Z" fill="#473F37"/>
<path d="M118.091 127.849L119.933 126.375C119.47 126.272 118.985 126.341 118.569 126.569C118.153 126.797 117.834 127.169 117.673 127.616C116.905 127.361 116.068 127.412 115.337 127.76L119.024 129.098C118.838 128.601 118.514 128.168 118.091 127.849Z" fill="#473F37"/>
<path d="M121.493 143.862L123.336 142.388C122.873 142.285 122.388 142.354 121.972 142.582C121.556 142.811 121.238 143.182 121.076 143.628C120.308 143.374 119.471 143.425 118.74 143.773L122.427 145.111C122.241 144.614 121.917 144.181 121.493 143.862Z" fill="#473F37"/>
<path d="M193.149 152.268L194.992 150.795C194.529 150.692 194.044 150.761 193.628 150.989C193.212 151.217 192.894 151.589 192.732 152.035C191.964 151.78 191.127 151.832 190.396 152.179L194.083 153.517C193.897 153.021 193.573 152.587 193.149 152.268Z" fill="#473F37"/>
<path d="M95.1886 208.245H82.7792V208.645H84.7147V212.448H85.1149V208.645H92.6529V212.448H93.053V208.645H95.1886V208.245Z" fill="#473F37"/>
<path d="M107.799 209.846C107.309 209.846 106.828 209.975 106.404 210.22C105.974 209.831 105.439 209.575 104.866 209.483C104.293 209.392 103.705 209.469 103.175 209.704C102.644 209.94 102.193 210.325 101.877 210.812C101.561 211.299 101.394 211.867 101.394 212.448H110.593C110.543 211.741 110.226 211.08 109.708 210.597C109.19 210.114 108.507 209.846 107.799 209.846Z" fill="#473F37"/>
<path d="M155.236 209.846C154.747 209.846 154.265 209.975 153.841 210.22C153.411 209.831 152.877 209.575 152.303 209.483C151.73 209.392 151.142 209.469 150.612 209.704C150.081 209.94 149.631 210.325 149.315 210.812C148.999 211.299 148.831 211.867 148.832 212.448H158.03C157.98 211.741 157.664 211.08 157.145 210.597C156.627 210.114 155.945 209.846 155.236 209.846Z" fill="#473F37"/>
<path d="M186.261 209.846C185.771 209.846 185.29 209.975 184.866 210.22C184.435 209.831 183.901 209.575 183.328 209.483C182.754 209.392 182.167 209.469 181.636 209.704C181.106 209.94 180.655 210.325 180.339 210.812C180.023 211.299 179.855 211.867 179.856 212.448H189.054C189.004 211.741 188.688 211.08 188.17 210.597C187.651 210.114 186.969 209.846 186.261 209.846Z" fill="#473F37"/>
<path d="M227.093 209.846C226.604 209.846 226.122 209.975 225.698 210.22C225.268 209.831 224.733 209.575 224.16 209.483C223.587 209.392 222.999 209.469 222.469 209.704C221.938 209.94 221.488 210.325 221.172 210.812C220.856 211.299 220.688 211.867 220.689 212.448H229.887C229.837 211.741 229.521 211.08 229.002 210.597C228.484 210.114 227.802 209.846 227.093 209.846Z" fill="#473F37"/>
<path d="M246.709 209.846C246.219 209.846 245.738 209.975 245.314 210.22C244.883 209.831 244.349 209.575 243.776 209.483C243.202 209.392 242.615 209.469 242.084 209.704C241.554 209.94 241.103 210.325 240.787 210.812C240.471 211.299 240.303 211.867 240.304 212.448H249.503C249.452 211.741 249.136 211.08 248.618 210.597C248.099 210.114 247.417 209.846 246.709 209.846Z" fill="#473F37"/>
<path d="M99.7925 198.437H96.5901V201.639H98.0751V212.43H98.4753V201.639H99.7925V198.437Z" fill="#473F37"/>
<path d="M95.2133 207.047H82.8039V207.448H95.2133V207.047Z" fill="#473F37"/>
<path d="M95.2133 206.047H82.8039V206.447H95.2133V206.047Z" fill="#473F37"/>
<path d="M95.2133 205.046H82.8039V205.446H95.2133V205.046Z" fill="#473F37"/>
<path d="M261.976 76.3366H260.966V48.6739C260.966 46.5712 260.552 44.4889 259.748 42.5462C258.943 40.6035 257.763 38.8383 256.276 37.3515C254.789 35.8647 253.024 34.6854 251.081 33.8809C249.139 33.0765 247.056 32.6626 244.953 32.663H186.349C184.246 32.6628 182.164 33.0769 180.222 33.8815C178.279 34.686 176.514 35.8654 175.027 37.3521C173.54 38.8389 172.361 40.604 171.556 42.5466C170.751 44.4892 170.337 46.5713 170.337 48.6739V200.436C170.337 202.539 170.751 204.621 171.556 206.564C172.36 208.506 173.54 210.271 175.027 211.758C176.513 213.245 178.279 214.425 180.221 215.229C182.164 216.034 184.246 216.448 186.349 216.448H244.953C247.056 216.448 249.138 216.034 251.081 215.229C253.023 214.425 254.788 213.246 256.275 211.759C257.762 210.272 258.941 208.507 259.746 206.565C260.55 204.622 260.965 202.54 260.965 200.438V96.0279H261.974L261.976 76.3366Z" fill="#473F37"/>
<path d="M245.602 36.8279H237.952C238.304 37.6904 238.439 38.6263 238.344 39.553C238.249 40.4797 237.927 41.3689 237.408 42.1421C236.888 42.9153 236.186 43.5489 235.364 43.9869C234.542 44.425 233.625 44.6541 232.693 44.6541H199.117C198.185 44.6541 197.268 44.425 196.446 43.9869C195.624 43.5489 194.922 42.9153 194.402 42.1421C193.883 41.3689 193.561 40.4797 193.466 39.553C193.371 38.6263 193.506 37.6904 193.858 36.8279H186.712C185.142 36.8278 183.587 37.137 182.136 37.738C180.685 38.339 179.367 39.2199 178.256 40.3304C177.146 41.4409 176.265 42.7594 175.665 44.2103C175.064 45.6613 174.755 47.2164 174.755 48.7868V200.324C174.755 203.495 176.015 206.536 178.257 208.778C180.499 211.02 183.54 212.28 186.711 212.28H245.6C247.17 212.28 248.725 211.971 250.176 211.37C251.627 210.77 252.945 209.889 254.055 208.779C255.166 207.668 256.047 206.35 256.648 204.9C257.249 203.449 257.558 201.894 257.558 200.324V48.7868C257.558 47.2165 257.249 45.6615 256.649 44.2107C256.048 42.7598 255.167 41.4415 254.057 40.331C252.947 39.2205 251.629 38.3396 250.178 37.7385C248.727 37.1374 247.172 36.828 245.602 36.8279Z" fill="white"/>
<path d="M219.247 201.547C214.043 201.55 208.996 199.764 204.953 196.488C200.909 193.212 198.114 188.646 197.037 183.555C195.959 178.464 196.664 173.157 199.033 168.524C201.403 163.891 205.293 160.213 210.051 158.106C214.81 156 220.148 155.593 225.171 156.954C230.193 158.315 234.596 161.361 237.64 165.581C240.684 169.802 242.186 174.941 241.892 180.136C241.598 185.332 239.528 190.269 236.027 194.119L240.769 199.43L238.404 200.433C234.745 201.985 231.165 200.475 229.156 199.27C226.067 200.768 222.68 201.546 219.247 201.547ZM219.247 159.894C216.353 159.895 213.498 160.557 210.9 161.831C208.301 163.104 206.028 164.955 204.254 167.241C202.48 169.528 201.253 172.189 200.665 175.023C200.077 177.856 200.145 180.787 200.863 183.59C201.581 186.393 202.93 188.995 204.807 191.197C206.685 193.399 209.041 195.143 211.695 196.295C214.35 197.448 217.233 197.978 220.123 197.845C223.014 197.713 225.836 196.921 228.374 195.531L229.386 194.976L230.328 195.645C231.404 196.427 232.625 196.986 233.92 197.289L230.939 193.948L232.245 192.715C234.144 190.946 235.656 188.804 236.687 186.423C237.717 184.041 238.244 181.472 238.233 178.877C238.227 173.844 236.224 169.019 232.665 165.46C229.106 161.901 224.28 159.899 219.247 159.894Z" fill="#E6E6E6"/>
<path d="M240.076 178.879C240.074 174.316 238.573 169.881 235.804 166.254C233.035 162.628 229.151 160.011 224.75 158.808C220.349 157.604 215.674 157.879 211.445 159.592C207.215 161.304 203.666 164.359 201.342 168.285C199.018 172.212 198.048 176.793 198.582 181.325C199.116 185.856 201.123 190.087 204.296 193.366C207.469 196.645 211.631 198.791 216.143 199.473C220.654 200.156 225.265 199.338 229.266 197.144C230.705 198.169 234.218 200.212 237.687 198.74L233.514 194.059C235.589 192.113 237.243 189.761 238.371 187.15C239.5 184.539 240.081 181.724 240.076 178.879Z" fill="white"/>
<path d="M223.403 174.622H208.521V176.003H223.403V174.622Z" fill="#4B3D2E"/>
<path d="M234.459 179.402H208.521V180.784H234.459V179.402Z" fill="#E6E6E6"/>
<path d="M234.433 184.183H208.521V185.565H234.433V184.183Z" fill="#E6E6E6"/>
<path d="M219.247 100.789C214.043 100.792 208.996 99.0055 204.953 95.7298C200.909 92.4541 198.114 87.8881 197.037 82.797C195.959 77.7059 196.664 72.399 199.033 67.7658C201.403 63.1325 205.293 59.4545 210.051 57.348C214.81 55.2415 220.148 54.8347 225.171 56.1956C230.193 57.5565 234.596 60.6025 237.64 64.8231C240.684 69.0437 242.186 74.1824 241.892 79.3781C241.598 84.5738 239.528 89.5106 236.027 93.3613L240.769 98.6718L238.404 99.6751C234.745 101.226 231.165 99.7168 229.156 98.5115C226.067 100.009 222.68 100.788 219.247 100.789ZM219.247 59.1355C216.353 59.1364 213.498 59.7989 210.899 61.0722C208.3 62.3456 206.027 64.1962 204.253 66.4826C202.479 68.769 201.251 71.4307 200.663 74.2643C200.075 77.0979 200.143 80.0284 200.861 82.8319C201.579 85.6354 202.928 88.2376 204.806 90.4397C206.684 92.6418 209.04 94.3856 211.695 95.5377C214.349 96.6898 217.232 97.2198 220.123 97.0871C223.014 96.9545 225.836 96.1627 228.374 94.7724L229.386 94.2167L230.328 94.8862C231.404 95.6683 232.625 96.2271 233.92 96.5296L230.939 93.1897L232.245 91.9569C234.144 90.1882 235.656 88.0458 236.686 85.6644C237.717 83.283 238.243 80.7142 238.233 78.1194C238.227 73.0858 236.225 68.2601 232.666 64.7008C229.106 61.1415 224.281 59.1394 219.247 59.1336V59.1355Z" fill="#E6E6E6"/>
<path d="M240.076 78.1214C240.074 73.5585 238.573 69.1228 235.804 65.4963C233.035 61.8699 229.151 59.2536 224.75 58.0498C220.349 56.8461 215.674 57.1215 211.445 58.8339C207.215 60.5462 203.666 63.6006 201.342 67.5272C199.018 71.4538 198.048 76.0352 198.582 80.5666C199.116 85.0981 201.123 89.3288 204.296 92.6079C207.469 95.8869 211.631 98.0329 216.143 98.7156C220.654 99.3983 225.265 98.5799 229.266 96.3864C230.705 97.4106 234.218 99.4542 237.687 97.9824L233.514 93.3007C235.589 91.3549 237.243 89.0035 238.371 86.3924C239.5 83.7812 240.081 80.9661 240.076 78.1214Z" fill="white"/>
<path d="M223.403 73.8635H208.521V75.2451H223.403V73.8635Z" fill="#4B3D2E"/>
<path d="M234.459 78.6439H208.521V80.0255H234.459V78.6439Z" fill="#E6E6E6"/>
<path d="M234.433 83.4251H208.521V84.8068H234.433V83.4251Z" fill="#E6E6E6"/>
<path d="M248.095 102.726C249.908 102.726 251.378 101.256 251.378 99.4428C251.378 97.6296 249.908 96.1598 248.095 96.1598C246.282 96.1598 244.812 97.6296 244.812 99.4428C244.812 101.256 246.282 102.726 248.095 102.726Z" fill="#E6E6E6"/>
<path d="M248.095 203.484C249.908 203.484 251.378 202.014 251.378 200.201C251.378 198.388 249.908 196.918 248.095 196.918C246.282 196.918 244.812 198.388 244.812 200.201C244.812 202.014 246.282 203.484 248.095 203.484Z" fill="#E6E6E6"/>
<path d="M180.416 148.396C178.33 149.648 174.61 151.217 170.81 149.605L168.354 148.561L173.277 143.043C169.349 138.712 167.176 133.072 167.182 127.225C167.188 121.378 169.373 115.742 173.31 111.419C177.248 107.096 182.655 104.396 188.476 103.844C194.297 103.293 200.115 104.931 204.794 108.439C209.472 111.946 212.676 117.071 213.78 122.813C214.883 128.555 213.807 134.503 210.762 139.494C207.717 144.486 202.92 148.164 197.309 149.809C191.699 151.455 185.676 150.951 180.416 148.396V148.396ZM170.985 127.213C170.974 129.909 171.521 132.578 172.591 135.051C173.662 137.525 175.233 139.751 177.206 141.588L178.564 142.864L175.466 146.337C176.812 146.023 178.081 145.442 179.198 144.63L180.176 143.934L181.227 144.511C185.018 146.59 189.387 147.365 193.662 146.718C197.936 146.071 201.88 144.038 204.886 140.931C207.892 137.824 209.794 133.815 210.3 129.521C210.805 125.227 209.885 120.887 207.683 117.166C205.48 113.446 202.116 110.553 198.108 108.931C194.1 107.31 189.671 107.05 185.501 108.192C181.331 109.333 177.652 111.814 175.029 115.251C172.407 118.688 170.986 122.891 170.986 127.214L170.985 127.213Z" fill="#B0C899"/>
<path d="M169.067 127.213C169.069 122.474 170.628 117.866 173.504 114.098C176.381 110.331 180.415 107.613 184.987 106.362C189.558 105.111 194.415 105.397 198.808 107.175C203.202 108.953 206.889 112.126 209.304 116.204C211.719 120.283 212.727 125.042 212.173 129.749C211.619 134.457 209.534 138.852 206.238 142.259C202.942 145.665 198.619 147.895 193.933 148.605C189.246 149.315 184.456 148.465 180.3 146.187C178.804 147.251 175.156 149.373 171.552 147.845L175.89 142.982C173.734 140.961 172.015 138.519 170.841 135.806C169.668 133.094 169.064 130.169 169.067 127.213Z" fill="white"/>
<path opacity="0.1" d="M208.513 127.104C208.513 121.697 206.488 116.486 202.837 112.498C199.187 108.509 194.175 106.032 188.789 105.554C189.42 105.499 190.057 105.47 190.701 105.47C196.439 105.47 201.941 107.749 205.999 111.807C210.056 115.864 212.336 121.367 212.336 127.105C212.336 132.843 210.056 138.346 205.999 142.403C201.941 146.46 196.439 148.74 190.701 148.74C190.057 148.74 189.42 148.709 188.792 148.654C194.177 148.176 199.189 145.699 202.839 141.71C206.489 137.722 208.513 132.511 208.513 127.104Z" fill="black"/>
<path d="M193.743 122.79H178.284V124.225H193.743V122.79Z" fill="#4B3D2E"/>
<path d="M205.228 127.756H178.284V129.192H205.228V127.756Z" fill="#4B3D2E"/>
<path d="M205.201 132.722H178.284V134.158H205.201V132.722Z" fill="#4B3D2E"/>
<g clip-path="url(#clip0_128:359)">
<path d="M116.094 180.777H115.59L114.299 178.327V180.777H113.795V177.323H114.299L115.596 179.784V177.323H116.095V180.777H116.094Z" fill="white"/>
<path d="M117.592 180.825C117.286 180.825 117.038 180.71 116.847 180.48C116.656 180.25 116.561 179.944 116.561 179.56V179.488C116.561 179.232 116.602 179.002 116.685 178.801C116.769 178.6 116.884 178.442 117.035 178.329C117.185 178.217 117.352 178.161 117.537 178.161C117.83 178.161 118.057 178.273 118.217 178.496C118.378 178.719 118.457 179.035 118.457 179.443V179.676H117.048C117.063 179.888 117.122 180.056 117.227 180.179C117.331 180.303 117.462 180.365 117.62 180.365C117.842 180.365 118.022 180.258 118.162 180.044L118.422 180.34C118.337 180.494 118.221 180.613 118.077 180.697C117.933 180.783 117.771 180.825 117.592 180.825ZM117.534 178.626C117.402 178.626 117.294 178.682 117.212 178.792C117.13 178.903 117.079 179.057 117.056 179.255H117.977V179.212C117.966 179.019 117.923 178.873 117.848 178.774C117.773 178.674 117.668 178.626 117.534 178.626Z" fill="white"/>
<path d="M120.039 180.08C120.039 179.978 120.004 179.899 119.932 179.846C119.861 179.793 119.743 179.745 119.579 179.704C119.415 179.662 119.277 179.61 119.166 179.547C118.925 179.407 118.805 179.206 118.805 178.942C118.805 178.72 118.883 178.535 119.04 178.387C119.197 178.239 119.396 178.164 119.637 178.164C119.894 178.164 120.102 178.24 120.26 178.391C120.419 178.544 120.498 178.741 120.498 178.982H120.014C120.014 178.871 119.979 178.779 119.911 178.706C119.842 178.633 119.75 178.595 119.636 178.595C119.53 178.595 119.443 178.624 119.376 178.683C119.309 178.742 119.276 178.82 119.276 178.917C119.276 179.006 119.308 179.075 119.37 179.124C119.433 179.173 119.558 179.222 119.749 179.272C119.938 179.323 120.088 179.382 120.197 179.451C120.305 179.52 120.385 179.601 120.438 179.698C120.49 179.794 120.516 179.912 120.516 180.048C120.516 180.28 120.435 180.467 120.275 180.609C120.115 180.753 119.903 180.823 119.644 180.823C119.468 180.823 119.31 180.786 119.172 180.71C119.035 180.633 118.926 180.53 118.85 180.396C118.773 180.264 118.735 180.12 118.735 179.967H119.205C119.211 180.103 119.255 180.208 119.334 180.281C119.414 180.355 119.519 180.392 119.65 180.392C119.778 180.392 119.874 180.363 119.941 180.306C120.006 180.248 120.039 180.174 120.039 180.08Z" fill="white"/>
<path d="M121.542 177.586V178.21H122.465V178.637H121.542V180.07C121.542 180.168 121.557 180.238 121.59 180.283C121.622 180.326 121.68 180.347 121.763 180.347C121.819 180.347 121.876 180.339 121.932 180.323V180.769C121.823 180.805 121.716 180.823 121.614 180.823C121.242 180.823 121.057 180.579 121.057 180.09V178.637H120.702V178.21H121.057V177.586H121.542Z" fill="white"/>
<path d="M114.056 181.681L114.196 181.338H114.313L114.109 181.796V182.064H114.003V181.796L113.798 181.338H113.916L114.056 181.681Z" fill="white"/>
<path d="M114.869 181.719C114.869 181.789 114.858 181.852 114.837 181.906C114.817 181.959 114.787 182 114.749 182.029C114.711 182.058 114.667 182.072 114.617 182.072C114.567 182.072 114.524 182.058 114.485 182.029C114.446 182 114.416 181.96 114.396 181.907C114.375 181.854 114.364 181.792 114.364 181.723V181.683C114.364 181.612 114.375 181.549 114.396 181.496C114.416 181.441 114.446 181.401 114.485 181.372C114.524 181.344 114.567 181.329 114.617 181.329C114.666 181.329 114.711 181.344 114.748 181.372C114.787 181.401 114.816 181.441 114.837 181.495C114.858 181.548 114.869 181.61 114.869 181.68V181.719ZM114.762 181.681C114.762 181.601 114.749 181.539 114.724 181.497C114.699 181.454 114.662 181.433 114.615 181.433C114.569 181.433 114.535 181.454 114.508 181.496C114.483 181.539 114.469 181.599 114.468 181.677V181.719C114.468 181.798 114.481 181.86 114.507 181.903C114.533 181.946 114.569 181.967 114.615 181.967C114.662 181.967 114.699 181.946 114.724 181.904C114.749 181.861 114.761 181.799 114.761 181.719V181.681H114.762Z" fill="white"/>
<path d="M115.436 181.338V181.822C115.436 181.9 115.415 181.96 115.374 182.005C115.333 182.049 115.278 182.072 115.209 182.072C115.139 182.072 115.083 182.051 115.044 182.006C115.003 181.962 114.982 181.9 114.982 181.822V181.338H115.087V181.822C115.087 181.871 115.098 181.907 115.118 181.933C115.139 181.959 115.169 181.972 115.209 181.972C115.29 181.972 115.331 181.92 115.331 181.818V181.336H115.436V181.338Z" fill="white"/>
<path d="M115.789 181.783H115.671V182.062H115.565V181.338H115.778C115.848 181.338 115.902 181.357 115.941 181.394C115.98 181.431 115.998 181.486 115.998 181.556C115.998 181.605 115.988 181.645 115.969 181.678C115.949 181.712 115.922 181.736 115.887 181.755L116.023 182.057V182.062H115.91L115.789 181.783ZM115.671 181.683H115.779C115.816 181.683 115.843 181.673 115.863 181.651C115.883 181.63 115.893 181.601 115.893 181.563C115.893 181.525 115.883 181.495 115.865 181.473C115.847 181.451 115.819 181.441 115.782 181.44H115.671V181.683Z" fill="white"/>
<path d="M116.829 182.062H116.723L116.451 181.548V182.062H116.345V181.338H116.451L116.723 181.854V181.338H116.828V182.062H116.829Z" fill="white"/>
<path d="M117.327 181.739H117.077V181.962H117.369V182.062H116.971V181.338H117.366V181.44H117.076V181.64H117.326V181.739H117.327Z" fill="white"/>
<path d="M117.682 181.599L117.809 181.338H117.931L117.748 181.697L117.936 182.062H117.812L117.682 181.796L117.55 182.062H117.427L117.615 181.697L117.431 181.338H117.553L117.682 181.599Z" fill="white"/>
<path d="M118.469 181.44H118.28V182.064H118.175V181.44H117.987V181.338H118.469V181.44Z" fill="white"/>
<path d="M119.254 182.062H119.15V181.74H118.878V182.062H118.772V181.338H118.878V181.64H119.15V181.338H119.254V182.062Z" fill="white"/>
<path d="M119.882 181.719C119.882 181.789 119.871 181.852 119.85 181.906C119.83 181.959 119.8 182 119.762 182.029C119.724 182.058 119.68 182.072 119.63 182.072C119.58 182.072 119.537 182.058 119.498 182.029C119.46 182 119.429 181.96 119.409 181.907C119.388 181.854 119.378 181.792 119.378 181.723V181.683C119.378 181.612 119.388 181.549 119.409 181.496C119.429 181.441 119.46 181.401 119.498 181.372C119.537 181.344 119.58 181.329 119.63 181.329C119.679 181.329 119.724 181.344 119.761 181.372C119.8 181.401 119.829 181.441 119.85 181.495C119.871 181.548 119.882 181.61 119.882 181.68V181.719ZM119.777 181.681C119.777 181.601 119.764 181.539 119.738 181.497C119.713 181.454 119.677 181.433 119.63 181.433C119.584 181.433 119.549 181.454 119.522 181.496C119.496 181.538 119.484 181.599 119.483 181.677V181.719C119.483 181.798 119.496 181.86 119.521 181.903C119.548 181.946 119.584 181.967 119.63 181.967C119.677 181.967 119.713 181.946 119.738 181.904C119.764 181.861 119.776 181.799 119.776 181.719V181.681H119.777Z" fill="white"/>
<path d="M120.141 181.338L120.316 181.893L120.491 181.338H120.627V182.062H120.522V181.824L120.533 181.505L120.353 182.064H120.277L120.098 181.506L120.108 181.825V182.064H120.004V181.339H120.141V181.338Z" fill="white"/>
<path d="M121.125 181.739H120.876V181.962H121.168V182.062H120.77V181.338H121.165V181.44H120.876V181.64H121.125V181.739Z" fill="white"/>
<path d="M116.094 177.323L118.525 175.42L121.058 177.586H121.542L118.525 174.486L115.595 177.323" fill="white"/>
<path d="M118.456 176.487H118.152V176.849H118.456V176.487Z" fill="white"/>
<path d="M118.928 176.487H118.624V176.849H118.928V176.487Z" fill="white"/>
<path d="M118.456 177.086H118.152V177.448H118.456V177.086Z" fill="white"/>
<path d="M118.928 177.086H118.624V177.448H118.928V177.086Z" fill="white"/>
<path d="M123.81 178.222V178.568H123.573V180.852H123.177V180.473C123.149 180.508 123.102 180.527 123.037 180.527H122.502C122.264 180.527 122.145 180.401 122.145 180.148V179.635C122.145 179.51 122.194 179.441 122.292 179.426V179.409C122.194 179.395 122.145 179.324 122.145 179.196V178.58C122.145 178.327 122.264 178.2 122.502 178.2H122.652C122.888 178.2 123.006 178.327 123.006 178.58V178.827H122.765V178.656C122.765 178.611 122.759 178.582 122.745 178.568C122.732 178.554 122.708 178.546 122.671 178.546H122.639C122.602 178.546 122.576 178.554 122.564 178.568C122.551 178.582 122.545 178.611 122.545 178.656V179.127C122.545 179.175 122.551 179.206 122.564 179.221C122.578 179.236 122.602 179.244 122.639 179.244H122.88V179.589H122.639C122.602 179.589 122.576 179.596 122.564 179.612C122.551 179.627 122.545 179.656 122.545 179.701V180.063C122.545 180.11 122.551 180.142 122.564 180.156C122.578 180.172 122.602 180.179 122.639 180.179H123.059C123.104 180.179 123.134 180.169 123.152 180.148C123.169 180.128 123.178 180.09 123.178 180.037V178.568L123.175 178.222H123.81Z" fill="white"/>
<path d="M125.175 178.222V178.568H124.941C124.956 178.591 124.965 178.627 124.965 178.676V179.334C124.965 179.471 124.93 179.57 124.861 179.632C124.792 179.695 124.684 179.725 124.534 179.725H124.275V180.414C124.275 180.458 124.282 180.488 124.295 180.503C124.31 180.519 124.335 180.526 124.373 180.526H124.477C124.512 180.526 124.535 180.519 124.547 180.503C124.56 180.487 124.564 180.458 124.564 180.414V179.984H124.96V180.471C124.96 180.602 124.932 180.698 124.876 180.759C124.82 180.82 124.725 180.851 124.592 180.851H124.25C124.117 180.851 124.022 180.82 123.965 180.759C123.908 180.697 123.879 180.602 123.879 180.471V178.947H124.275V179.386H124.458C124.503 179.386 124.532 179.376 124.547 179.357C124.563 179.337 124.57 179.301 124.57 179.249V178.703C124.57 178.647 124.563 178.611 124.55 178.595C124.535 178.578 124.505 178.571 124.459 178.571H123.662V178.224H125.175V178.222Z" fill="white"/>
</g>
<path d="M50.9203 193.176C50.9203 193.176 51.2155 194.503 51.1417 194.872C50.9941 195.24 50.7726 195.977 50.5512 195.904C50.4036 195.83 50.0345 193.471 50.1821 193.25C50.3297 193.176 50.9203 193.176 50.9203 193.176Z" fill="#B0C899"/>
<path d="M47.1556 172.609C47.1556 172.609 48.4105 172.757 49.0748 173.789C49.5915 174.526 49.4439 176.221 50.1083 176.811C50.7726 177.401 50.625 178.58 49.813 179.096C49.001 179.612 44.572 179.907 43.1695 178.728C41.767 177.548 43.6124 176.885 43.5386 174.968C43.5386 174.083 44.8673 172.388 47.1556 172.609Z" fill="#B0C899"/>
<path d="M49.0011 180.349C49.0011 180.349 50.3298 180.718 50.6989 182.487C51.068 184.256 50.4036 187.574 50.5512 188.827C50.7727 190.522 50.9203 193.176 50.9203 193.176C50.9203 193.176 50.4036 193.397 49.9607 193.324C49.9607 193.324 48.3367 189.269 48.3367 188.237C48.2629 187.205 49.0011 180.349 49.0011 180.349Z" fill="#B0C899"/>
<path d="M39.1834 213.375C39.1834 213.375 38.3714 214.112 38.5929 214.554C38.7405 215.07 39.4787 215.365 39.5525 216.028C39.6263 216.618 39.9954 216.987 40.3645 216.987C40.7336 216.987 41.9884 216.987 41.9884 216.987C41.9884 216.987 42.2099 216.544 41.6194 216.397C41.0288 216.249 40.8074 215.512 40.8074 214.849C40.8812 214.185 40.7336 213.301 40.7336 213.301L39.4049 213.006L39.1834 213.375Z" fill="#B0C899"/>
<path d="M45.7531 213.743C45.7531 213.743 45.4579 216.765 45.8269 216.913H50.1821C50.1821 216.913 50.1821 216.397 49.444 216.323C48.7058 216.176 47.5247 215.807 47.3033 214.849C47.1556 213.964 45.7531 213.743 45.7531 213.743Z" fill="#B0C899"/>
<path d="M42.6528 192.07C43.5386 190.08 44.1291 189.49 43.9815 188.827C43.9077 188.384 44.203 180.128 44.203 180.128C44.2768 180.128 44.4982 180.054 44.6459 180.054C45.0149 179.981 45.3102 179.686 45.4578 179.391C45.6055 178.949 45.7531 178.359 45.7531 177.548H45.9007L47.82 177.917C47.82 177.917 47.7462 178.506 47.7462 179.096C47.7462 179.612 48.0414 180.054 48.5581 180.202C48.7796 180.276 49.001 180.349 49.001 180.349C49.001 180.349 49.7392 182.413 49.813 184.477C49.9607 186.542 48.4843 187.5 49.813 191.628C51.2155 195.904 42.1361 193.25 42.6528 192.07Z" fill="#B0C899"/>
<path d="M47.7461 177.917C47.7461 177.917 47.6723 178.506 47.6723 179.096C46.565 179.096 46.0483 178.064 45.753 177.548L47.7461 177.917Z" fill="#B0C899"/>
<path d="M48.1152 178.506C48.1152 178.506 45.5317 178.58 45.5317 176.958C45.5317 175.337 45.1626 174.305 46.8604 174.231C48.4843 174.157 48.8534 174.747 48.9272 175.263C49.0749 175.779 48.7796 178.433 48.1152 178.506Z" fill="#B0C899"/>
<path d="M48.0414 174.157C48.0414 174.157 47.3032 176 46.2698 176.295C45.1625 176.59 44.7196 176.295 44.7196 176.295C44.7196 176.295 45.5316 175.631 45.7531 174.526C45.7531 174.452 47.5247 173.273 48.0414 174.157Z" fill="#B0C899"/>
<path d="M47.8938 174.305C47.8938 174.305 48.4105 174.526 48.632 174.894C48.8534 175.263 49.0011 175.779 49.0011 176.369C49.0011 176.369 49.5178 175.115 48.9273 174.378C48.2629 173.567 47.8938 174.305 47.8938 174.305Z" fill="#B0C899"/>
<path d="M47.5985 177.474C47.5985 177.474 47.7461 177.696 48.1152 177.696C48.4105 177.696 48.4843 177.401 48.4843 177.401C48.4843 177.401 47.9676 177.327 47.5985 177.474Z" fill="#B0C899"/>
<path d="M42.9481 183.814C42.9481 183.814 42.9481 185.067 43.0219 186.099C43.0957 186.836 43.0957 187.5 43.2434 187.721C43.5386 188.311 43.8339 188.458 43.8339 188.458L46.1222 189.048L46.9342 189.269L49.5178 188.532C49.5178 188.532 50.6989 185.288 50.1821 183.445C49.7392 181.603 49.0011 180.349 49.0011 180.349C49.0011 180.349 46.9342 182.413 44.203 180.202L42.9481 183.814Z" fill="#B0C899"/>
<path d="M49.2964 188.974C49.2964 188.974 50.5512 192.881 50.6251 194.208C50.6989 195.535 48.1891 213.153 48.1153 213.817C48.0415 214.407 47.3033 214.775 47.3033 214.775C47.3033 214.775 47.008 214.996 46.4913 214.849C45.827 214.628 45.6055 214.407 45.6055 214.407C45.6055 214.407 44.6459 201.801 45.2364 197.304C45.827 192.808 45.827 188.901 45.827 188.901H49.2964V188.974Z" fill="#B0C899"/>
<path d="M43.9815 188.901C43.9815 188.901 42.0623 191.481 41.8408 193.25C41.6932 195.019 41.5455 201.138 41.1765 202.833C40.8074 204.529 39.4049 207.772 39.4049 213.08C39.4049 213.08 39.5525 213.375 39.9954 213.522C40.143 213.596 40.3645 213.596 40.5121 213.669C40.8812 213.743 41.2503 213.596 41.4717 213.227C42.4313 211.31 45.4578 205.192 45.6054 203.865C45.6793 202.98 46.6389 196.936 48.7796 193.471C49.2963 192.66 48.4843 189.269 48.4843 189.269L43.9815 188.901Z" fill="#B0C899"/>
<path d="M47.6724 177.548C47.6724 177.548 47.7462 177.769 48.1891 177.696C48.1891 177.696 48.5582 177.696 48.5582 177.474C48.5582 177.474 48.1891 177.327 47.6724 177.548Z" fill="#B0C899"/>
<path d="M49.5178 188.384C49.5178 188.384 49.001 188.753 47.9676 188.827C46.7865 188.827 43.7601 188.532 43.7601 188.532C43.7601 188.532 43.6124 188.9 43.6124 189.269C43.6124 189.269 47.2294 190.154 49.3701 189.416C49.4439 189.416 49.7392 188.9 49.5178 188.384Z" fill="#B0C899"/>
<path d="M39.0516 190.953L44.5256 192.961L43.4057 196.006L37.9317 193.998L39.0516 190.953Z" fill="#B0C899"/>
<path d="M44.4986 193.029C44.4986 193.029 42.727 194.134 41.0292 193.397C39.3314 192.66 39.0362 190.964 39.0362 190.964L44.4986 193.029Z" fill="#B0C899"/>
<path d="M43.6863 192.955C43.8339 192.955 44.0554 192.881 44.0554 192.66C44.0554 192.513 43.9816 192.292 43.7601 192.292C43.6125 192.292 43.391 192.365 43.391 192.586C43.391 192.808 43.5387 192.955 43.6863 192.955ZM43.7601 192.439C43.9077 192.439 43.9816 192.586 43.9077 192.66C43.9077 192.808 43.7601 192.881 43.6863 192.808C43.5387 192.808 43.4648 192.66 43.5387 192.586C43.5387 192.513 43.6863 192.439 43.7601 192.439Z" fill="#B0C899"/>
<path d="M40.143 193.324C40.143 193.324 40.143 193.766 40.0692 193.987C39.9954 194.208 39.7001 194.503 39.6263 194.503C39.5525 194.503 39.7001 194.061 39.6263 194.061C39.5525 194.061 39.4048 194.872 39.1834 194.872C39.0357 194.872 38.8881 193.987 38.9619 193.692C39.0357 193.324 39.4048 192.955 39.4048 192.955L40.143 193.324Z" fill="#B0C899"/>
<path d="M44.2029 180.202C44.2029 180.202 42.8004 180.423 41.9884 181.897C41.3979 183.077 40.955 186.689 40.5859 187.868C40.2168 188.974 39.7739 190.891 39.4786 192.586C39.4786 192.734 39.4048 192.881 39.4048 192.881L40.0692 193.324C39.9954 193.471 40.2906 192.807 40.3644 192.66C41.4717 190.301 41.767 189.195 42.3575 187.426C42.5789 186.763 43.3909 185.215 43.6862 184.699C44.4244 183.519 45.0149 183.003 44.572 181.676L44.2029 180.202Z" fill="#B0C899"/>
<path d="M48.5582 180.202C48.5582 180.202 46.7128 180.792 44.6459 180.055C44.6459 180.055 43.2434 180.128 42.5791 180.865C41.9147 181.603 41.1765 183.519 41.1765 183.519C41.1765 183.519 41.9147 185.067 43.9078 185.067C45.9746 185.067 50.1822 183.814 50.1822 183.814C50.1822 183.814 50.6989 183.961 51.1418 183.667C51.1418 183.667 50.6989 181.529 50.0345 180.939C49.444 180.349 48.5582 180.202 48.5582 180.202Z" fill="#B0C899"/>
<path d="M43.9077 192.439C43.9077 192.365 44.9411 187.279 45.3102 184.33C45.4578 182.782 45.384 181.676 45.3102 181.013C45.1625 180.276 44.9411 179.981 44.9411 179.981L44.7935 180.054C44.7935 180.054 45.5316 181.455 45.1625 184.33C44.7935 187.205 43.76 192.365 43.76 192.439H43.9077Z" fill="#B0C899"/>
<path d="M67.2945 188.103L70.321 193.632L69.8781 194.074L66.4087 190.904L67.2945 188.103Z" fill="#B0C899"/>
<path d="M67.5898 192.821C67.5898 192.821 67.5898 196.654 67.2945 199.898C66.9255 204.321 65.9659 215.378 65.9659 215.378C65.9659 215.378 66.2611 215.82 64.8586 215.526C64.8586 215.526 63.1608 211.766 62.8656 207.491C62.8656 207.417 62.8656 207.343 62.8656 207.269C62.5703 202.92 62.0536 193.632 62.0536 193.632L67.5898 192.821Z" fill="#B0C899"/>
<path d="M65.4491 192.526C65.4491 192.526 65.4491 193.19 65.1538 196.433L62.8655 207.564C62.8655 207.491 62.8655 207.417 62.8655 207.343C62.5702 202.994 62.0535 193.706 62.0535 193.706L65.4491 192.526Z" fill="#B0C899"/>
<path d="M66.261 192.673L59.5437 215.894C59.5437 215.894 58.6579 215.673 58.4364 215.305C58.4364 215.305 57.6983 205.5 59.1008 203.141C59.9128 201.814 59.839 198.571 59.839 197.318C59.9128 193.705 60.5771 192.01 60.5771 192.01L66.261 192.673Z" fill="#B0C899"/>
<path d="M64.7109 217.369H65.3752C65.5967 217.369 65.7443 217.295 65.9658 217.221C66.3348 217.147 66.4825 217.295 66.4825 217.369H69.2875C69.3613 217.295 69.2875 217 69.2137 216.853C69.1399 216.705 69.0661 216.631 68.9184 216.631C68.6232 216.558 68.0326 216.484 67.5159 215.968C67.2206 215.673 66.0396 214.936 66.0396 214.936C66.0396 214.936 65.8919 215.01 65.3752 215.452C65.08 215.673 64.6371 215.157 64.6371 215.157C64.6371 215.157 64.5632 215.231 64.4894 215.378C64.4156 215.452 64.4156 215.599 64.4156 215.821C64.4894 216.115 64.3418 216.558 64.1942 216.853C64.1203 217.074 64.0465 217.221 64.0465 217.221C64.0465 217.221 64.1203 217.295 64.7109 217.369Z" fill="#B0C899"/>
<path d="M58.4364 217.369H59.1008C59.3222 217.369 59.4699 217.295 59.6913 217.221C60.0604 217.147 60.208 217.295 60.208 217.369H63.0869C63.1607 217.295 63.0869 217 63.0131 216.853C62.9393 216.705 62.8654 216.631 62.7178 216.631C62.4225 216.558 61.832 216.484 61.3153 215.968C61.02 215.673 59.839 214.936 59.839 214.936C59.839 214.936 59.6913 215.01 59.1746 215.452C58.8793 215.673 58.4364 215.157 58.4364 215.157C58.4364 215.157 58.3626 215.231 58.2888 215.378C58.215 215.452 58.215 215.599 58.215 215.821C58.2888 216.115 58.1412 216.558 57.9935 216.853C57.9197 217.074 57.8459 217.221 57.8459 217.221C57.8459 217.221 57.8459 217.295 58.4364 217.369Z" fill="#B0C899"/>
<path d="M61.9059 179.036C61.9059 179.036 64.4156 180.289 65.892 179.847C65.892 179.847 65.5229 179.404 64.9323 179.036C64.9323 178.815 65.0062 178.594 65.0062 178.446C65.08 177.856 65.08 177.488 65.08 177.488L63.5298 176.235L63.1607 175.94C63.1607 176.235 63.1607 176.529 63.0869 176.751V176.824C62.8655 178.299 61.9059 179.036 61.9059 179.036Z" fill="#B0C899"/>
<path d="M60.208 192.379C60.208 192.526 60.7247 192.674 60.8724 192.747C61.5367 193.042 62.1273 193.116 62.7916 193.337C63.2345 193.484 63.6774 193.558 64.1203 193.558C65.449 193.706 67.073 193.411 67.5897 193.411C67.6635 193.411 67.6635 193.411 67.7373 193.337C67.7373 193.337 67.8112 191.641 67.7373 189.577C67.7373 189.504 67.7373 189.43 67.7373 189.356C67.7373 188.545 67.6635 187.661 67.6635 186.85C67.5897 185.007 67.4421 183.164 67.2206 182.206C66.9253 181.026 66.261 180.289 65.6705 179.699L65.2276 179.257C65.2276 179.257 65.1537 179.183 65.1537 179.257C64.637 179.331 64.1203 179.331 63.6036 179.11C63.0131 178.815 62.4225 178.52 62.2749 178.594C61.0938 179.478 60.5033 182.132 60.5033 185.154C60.5033 185.228 60.5033 185.376 60.5033 185.449C60.5033 185.744 60.5033 186.039 60.5033 186.408C60.6509 188.619 60.3557 190.315 60.2818 191.42C60.2818 191.641 60.208 192.231 60.208 192.379Z" fill="#B0C899"/>
<path d="M63.087 176.824C63.1608 177.046 63.8989 178.151 64.9324 178.446C65.0062 177.856 65.0062 177.488 65.0062 177.488L63.456 176.235C63.3084 176.456 63.1608 176.677 63.087 176.824Z" fill="#B0C899"/>
<path d="M65.5229 177.414C65.5229 177.414 63.0869 177.783 62.8654 176.308C62.644 174.834 62.2011 173.876 63.6774 173.507C65.2276 173.212 65.5967 173.728 65.8181 174.171C65.9657 174.76 66.1134 177.267 65.5229 177.414Z" fill="#B0C899"/>
<path d="M63.3084 175.94C63.3084 175.94 63.0131 175.645 63.1608 175.424C63.3084 175.203 63.456 175.497 63.6037 175.497C63.7513 175.497 64.0466 175.055 64.0466 174.687C64.0466 174.318 65.4491 174.908 66.0396 174.687C66.6301 174.539 67.073 173.728 66.1872 173.36C65.6705 173.139 63.0869 171.885 62.1273 173.139C60.8724 174.76 62.5702 176.382 62.7917 176.603C63.0131 176.824 63.1608 176.751 63.1608 176.751C63.1608 176.751 63.456 176.308 63.3084 175.94Z" fill="#B0C899"/>
<path d="M62.0535 173.286C62.0535 173.139 62.0535 172.844 62.2011 172.696C62.2011 172.696 62.2011 172.991 62.275 173.139C62.275 173.36 62.0535 173.286 62.0535 173.286Z" fill="#B0C899"/>
<path d="M61.7583 173.065C61.7583 173.065 62.0535 173.065 62.0535 173.36L61.9797 173.507C61.9797 173.433 62.0535 173.138 61.7583 173.065Z" fill="#B0C899"/>
<path d="M60.7248 180.51C60.7248 180.51 57.846 187.513 58.0674 188.619C58.2889 189.725 63.6037 191.052 63.6037 191.052L63.6775 190.241L60.5034 187.587C60.5034 187.587 63.5299 183.09 63.1608 182.206C62.7179 181.321 60.8725 180.068 60.7248 180.51Z" fill="#B0C899"/>
<path d="M63.0869 183.164C62.1273 183.238 61.1677 183.017 60.1342 181.985C59.9866 181.837 59.7651 181.69 59.839 181.542C60.1342 180.805 61.0938 179.257 62.2011 178.52C62.2749 178.446 62.4225 178.52 62.4964 178.594C62.9393 178.815 63.8251 179.552 63.8989 180.363C63.9727 181.1 63.6774 182.353 63.5298 183.017C63.5298 183.164 63.3083 183.164 63.0869 183.164Z" fill="#B0C899"/>
<path d="M70.321 193.632C70.321 193.632 71.2068 194.369 71.2806 194.885C71.2806 195.18 71.4282 196.138 71.2068 196.138C70.9853 196.064 70.7639 195.327 70.5424 195.254C70.2471 195.18 69.8781 194.148 69.8781 194.148L70.321 193.632Z" fill="#B0C899"/>
<path d="M69.878 194.074C69.878 194.074 70.0995 195.032 70.2471 195.327C70.3947 195.622 70.5424 195.696 70.5424 195.622C70.6162 195.548 70.4686 194.664 70.4686 194.664L69.878 194.074Z" fill="#B0C899"/>
<path d="M63.6775 190.167C63.6775 190.167 64.8585 190.388 65.0062 190.609C65.1538 190.831 64.8585 191.494 64.5633 191.568C64.268 191.641 63.6037 190.978 63.6037 190.978L63.6775 190.167Z" fill="#B0C899"/>
<defs>
<clipPath id="clip0_128:359">
<rect width="11.3795" height="7.58635" fill="white" transform="translate(113.795 174.486)"/>
</clipPath>
</defs>
</svg>
