<svg width="55" height="55" viewBox="0 0 55 55" fill="none" xmlns="http://www.w3.org/2000/svg">
<circle opacity="0.2" cx="27.5" cy="27.5" r="27.5" fill="#B0C899"/>
<path d="M13.4531 39.125H41.5469V40.3359C41.5469 40.6571 41.4193 40.9651 41.1922 41.1922C40.9651 41.4193 40.6571 41.5469 40.3359 41.5469H14.6641C14.3429 41.5469 14.0349 41.4193 13.8078 41.1922C13.5807 40.9651 13.4531 40.6571 13.4531 40.3359V39.125Z" fill="#D4D580"/>
<path d="M39.8162 21.2847L38.1562 18.2969H37.6719V16.3594H33.7969V18.2969H33.3125L31.6525 21.2847C31.1528 22.1842 30.8906 23.1962 30.8906 24.2252V37.3086C30.8906 37.7903 31.082 38.2523 31.4226 38.593C31.7633 38.9336 32.2253 39.125 32.707 39.125H38.7617C39.2435 39.125 39.7055 38.9336 40.0461 38.593C40.3868 38.2523 40.5781 37.7903 40.5781 37.3086V24.2252C40.5781 23.1962 40.3159 22.1842 39.8162 21.2847Z" fill="#F5F5F5"/>
<path d="M40.5781 32.3438H30.8906V26.0469H40.5781V32.3438Z" fill="#4DCCFF"/>
<path d="M33.4336 16.3594H38.0352C38.3695 16.3594 38.6406 16.0883 38.6406 15.7539V14.0586C38.6406 13.7242 38.3695 13.4531 38.0352 13.4531H33.4336C33.0992 13.4531 32.8281 13.7242 32.8281 14.0586V15.7539C32.8281 16.0883 33.0992 16.3594 33.4336 16.3594Z" fill="#4DCCFF"/>
<path d="M28.883 26.402C29.0219 25.6775 28.9512 24.9283 28.679 24.2426C28.4069 23.5569 27.9446 22.9631 27.3466 22.5311C26.7486 22.099 26.0397 21.8467 25.3032 21.8037C24.5667 21.7607 23.8333 21.9288 23.189 22.2883C22.9912 21.7505 22.6765 21.2632 22.2677 20.8617C21.8589 20.4601 21.3661 20.1542 20.8249 19.9659C20.2836 19.7777 19.7073 19.7119 19.1376 19.7731C18.5678 19.8344 18.0187 20.0213 17.5298 20.3203C17.041 20.6194 16.6245 21.0231 16.3105 21.5024C15.9964 21.9817 15.7926 22.5248 15.7136 23.0924C15.6347 23.66 15.6826 24.238 15.8539 24.7848C16.0253 25.3317 16.3158 25.8337 16.7045 26.2548C16.1404 26.6512 15.6922 27.1909 15.4062 27.8183C15.1203 28.4457 15.0068 29.1379 15.0776 29.8238C15.1484 30.5096 15.4009 31.1641 15.809 31.7198C16.217 32.2755 16.766 32.7123 17.3992 32.9851C17.5095 33.4726 17.7437 33.9234 18.0791 34.2939C18.4145 34.6645 18.8397 34.9423 19.3138 35.1005C19.7879 35.2588 20.2948 35.2921 20.7855 35.1973C21.2762 35.1025 21.7342 34.8828 22.1152 34.5594C22.8871 35.1448 23.8502 35.42 24.8149 35.3307C25.7795 35.2413 26.6757 34.7939 27.3269 34.0767C27.9781 33.3594 28.337 32.4242 28.333 31.4554C28.329 30.4867 27.9623 29.5545 27.3051 28.8427C28.1288 28.2656 28.6949 27.39 28.883 26.402Z" fill="#ABBF71"/>
<path d="M15.9233 29.4375C15.4452 29.906 15.1166 30.5056 14.9787 31.1607C14.8408 31.8157 14.8999 32.4969 15.1486 33.1184C15.3972 33.7399 15.8242 34.2739 16.3758 34.6531C16.9275 35.0323 17.579 35.2397 18.2483 35.2493C18.7264 34.7807 19.055 34.1812 19.1929 33.5261C19.3308 32.8711 19.2717 32.1899 19.023 31.5684C18.7744 30.9469 18.3474 30.4129 17.7958 30.0337C17.2441 29.6545 16.5926 29.447 15.9233 29.4375Z" fill="#FDBF67"/>
<path d="M16.4016 32.0466L17.2967 31.6756L18.7021 35.0661L17.807 35.4371L16.4016 32.0466Z" fill="#F29A49"/>
<path d="M19.7983 29.4375C19.3202 29.906 18.9916 30.5056 18.8537 31.1607C18.7158 31.8157 18.7749 32.4969 19.0236 33.1184C19.2722 33.7399 19.6992 34.2739 20.2508 34.6531C20.8025 35.0323 21.454 35.2397 22.1233 35.2493C22.6014 34.7807 22.93 34.1812 23.0679 33.5261C23.2058 32.8711 23.1467 32.1899 22.898 31.5684C22.6494 30.9469 22.2224 30.4129 21.6708 30.0337C21.1191 29.6545 20.4676 29.447 19.7983 29.4375Z" fill="#F15A57"/>
<path d="M20.2771 32.0458L21.1722 31.6748L22.5776 35.0653L21.6825 35.4363L20.2771 32.0458Z" fill="#AA3947"/>
<path d="M23.3095 28.438L24.248 24.2144L23.3023 24.0043L22.5297 27.4811L18.8225 22.9321L18.0716 23.544L20.5059 26.5312H17.9626V27.5H21.2954L24.7026 31.681L25.4535 31.069L23.3095 28.438Z" fill="#A0B36A"/>
<path d="M26.0469 15.3906H25.0781C25.0781 14.0552 26.3818 12.9688 27.9844 12.9688V13.9375C26.916 13.9375 26.0469 14.5894 26.0469 15.3906Z" fill="#AA3947"/>
<path d="M25.0781 18.7812C26.1482 18.7812 27.0156 17.9138 27.0156 16.8438C27.0156 15.7737 26.1482 14.9062 25.0781 14.9062C24.0081 14.9062 23.1406 15.7737 23.1406 16.8438C23.1406 17.9138 24.0081 18.7812 25.0781 18.7812Z" fill="#F15A57"/>
<path d="M24.5938 31.8594C24.5938 33.732 26.3287 35.7344 28.4688 35.7344C30.6088 35.7344 32.3438 33.732 32.3438 31.8594C32.3438 29.9868 30.6088 26.5312 28.4688 26.5312C26.3287 26.5312 24.5938 29.9868 24.5938 31.8594Z" fill="#F5F5F5"/>
<path d="M28.4688 34.2812C29.5388 34.2812 30.4062 33.4138 30.4062 32.3438C30.4062 31.2737 29.5388 30.4062 28.4688 30.4062C27.3987 30.4062 26.5312 31.2737 26.5312 32.3438C26.5312 33.4138 27.3987 34.2812 28.4688 34.2812Z" fill="#FDBF67"/>
<path d="M29.1953 39.125H18.0547C17.0912 39.125 16.1672 38.7423 15.4859 38.061C14.8046 37.3797 14.4219 36.4557 14.4219 35.4922V34.2812H32.8281V35.4922C32.8281 36.4557 32.4454 37.3797 31.7641 38.061C31.0828 38.7423 30.1588 39.125 29.1953 39.125Z" fill="#F29A49"/>
<path d="M37.6719 22.1719H38.6406V23.1406H37.6719V22.1719Z" fill="#4DCCFF"/>
</svg>
