<svg width="24" height="24" viewBox="0 0 24 24" fill="none" xmlns="http://www.w3.org/2000/svg">
<path d="M14.5 12C14.5 12.4945 14.3534 12.9778 14.0787 13.3889C13.804 13.8 13.4135 14.1205 12.9567 14.3097C12.4999 14.4989 11.9972 14.5484 11.5123 14.452C11.0273 14.3555 10.5819 14.1174 10.2322 13.7678C9.8826 13.4181 9.6445 12.9727 9.54804 12.4877C9.45157 12.0028 9.50108 11.5001 9.6903 11.0433C9.87952 10.5865 10.2 10.196 10.6111 9.92133C11.0222 9.64662 11.5055 9.5 12 9.5C12.663 9.5 13.2989 9.76339 13.7678 10.2322C14.2366 10.7011 14.5 11.337 14.5 12Z" stroke="#A5CF7C" stroke-width="1.5" stroke-linecap="round" stroke-linejoin="round"/>
<path d="M18.5 9.5V14.5" stroke="#A5CF7C" stroke-width="1.5" stroke-linecap="round" stroke-linejoin="round"/>
<path d="M9 18C9 18.7911 8.76541 19.5645 8.32588 20.2223C7.88635 20.8801 7.26164 21.3928 6.53074 21.6955C5.79983 21.9983 4.99556 22.0775 4.21964 21.9231C3.44372 21.7688 2.73098 21.3878 2.17157 20.8284C1.61216 20.269 1.2312 19.5563 1.07686 18.7804C0.92252 18.0044 1.00173 17.2002 1.30448 16.4693C1.60723 15.7384 2.11992 15.1136 2.77772 14.6741C3.43552 14.2346 4.20888 14 5 14C6.06087 14 7.07828 14.4214 7.82843 15.1716C8.57857 15.9217 9 16.9391 9 18Z" stroke="#A5CF7C" stroke-width="1.5" stroke-linecap="round" stroke-linejoin="round"/>
<path d="M5.25 16.75V17.68C5.25097 17.8537 5.2062 18.0247 5.12019 18.1756C5.03418 18.3266 4.90996 18.4523 4.76 18.54L4 19" stroke="#A5CF7C" stroke-width="1.5" stroke-linecap="round" stroke-linejoin="round"/>
<path d="M2 15.2V9C2 5.5 4 4 7 4H17C20 4 22 5.5 22 9V15C22 18.5 20 20 17 20H8.5" stroke="#A5CF7C" stroke-width="1.5" stroke-linecap="round" stroke-linejoin="round"/>
</svg>
