<svg width="24" height="24" viewBox="0 0 24 24" fill="none" xmlns="http://www.w3.org/2000/svg">
<path d="M7 14H12" stroke="#A5CF7C" stroke-width="1.5" stroke-linecap="round" stroke-linejoin="round"/>
<path d="M7 5.95996L3.25 2.20996" stroke="#A5CF7C" stroke-width="1.5" stroke-linecap="round" stroke-linejoin="round"/>
<path d="M6.95996 2.25L3.20996 6" stroke="#A5CF7C" stroke-width="1.5" stroke-linecap="round" stroke-linejoin="round"/>
<path d="M7 10H15" stroke="#A5CF7C" stroke-width="1.5" stroke-linecap="round" stroke-linejoin="round"/>
<path d="M10 2H16C19.33 2.18 21 3.41 21 7.99V16" stroke="#A5CF7C" stroke-width="1.5" stroke-linecap="round" stroke-linejoin="round"/>
<path d="M3 9.01001V15.98C3 19.99 4 22 9 22H15" stroke="#A5CF7C" stroke-width="1.5" stroke-linecap="round" stroke-linejoin="round"/>
<path d="M21.0002 16L15.0002 22V19C14.9421 18.5925 14.9796 18.177 15.1098 17.7865C15.24 17.396 15.4593 17.0412 15.7504 16.7501C16.0415 16.4591 16.3963 16.2398 16.7868 16.1096C17.1773 15.9794 17.5927 15.9418 18.0002 16H21.0002Z" stroke="#A5CF7C" stroke-width="1.5" stroke-linecap="round" stroke-linejoin="round"/>
</svg>
