<svg width="24" height="24" viewBox="0 0 24 24" fill="none" xmlns="http://www.w3.org/2000/svg">
<path d="M22 9.00002V15C22 17.5 21.5 19.25 20.38 20.38L14 14L21.73 6.27002C21.9215 7.1671 22.0121 8.0828 22 9.00002V9.00002Z" stroke="#A5CF7C" stroke-width="1.5" stroke-linecap="round" stroke-linejoin="round"/>
<path d="M21.73 6.27L6.27 21.73C3.26 21.04 2 18.96 2 15V9C2 4 4 2 9 2H15C18.96 2 21.04 3.26 21.73 6.27Z" stroke="#A5CF7C" stroke-width="1.5" stroke-linecap="round" stroke-linejoin="round"/>
<path d="M20.38 20.38C19.25 21.5 17.5 22 15 22H9.00002C8.0828 22.0121 7.1671 21.9215 6.27002 21.73L14 14L20.38 20.38Z" stroke="#A5CF7C" stroke-width="1.5" stroke-linecap="round" stroke-linejoin="round"/>
<path d="M6.24022 7.9831C6.41307 7.3518 6.78856 6.79479 7.30892 6.39775C7.82928 6.00071 8.46568 5.78564 9.12022 5.78564C9.77475 5.78564 10.4112 6.00071 10.9315 6.39775C11.4519 6.79479 11.8274 7.3518 12.0002 7.9831C12.1033 8.74714 12.0059 9.52485 11.7175 10.2398C11.429 10.9548 10.9596 11.5824 10.3552 12.0611C10.0207 12.3791 9.57676 12.5563 9.11522 12.5563C8.65368 12.5563 8.20977 12.3791 7.87522 12.0611C7.27089 11.5828 6.80208 10.9549 6.51528 10.2396C6.22848 9.52426 6.13366 8.74638 6.24022 7.9831V7.9831Z" stroke="#A5CF7C" stroke-width="1.5"/>
<path d="M9.09521 8.69995H9.10021" stroke="#A5CF7C" stroke-width="2" stroke-linecap="round" stroke-linejoin="round"/>
</svg>
