<svg width="24" height="24" viewBox="0 0 24 24" fill="none" xmlns="http://www.w3.org/2000/svg">
<path d="M2 9V6.5C1.99921 5.90883 2.11507 5.32332 2.34094 4.77699C2.5668 4.23067 2.89824 3.73428 3.31626 3.31626C3.73428 2.89824 4.23067 2.5668 4.77699 2.34094C5.32332 2.11507 5.90883 1.99921 6.5 2H9" stroke="#A5CF7C" stroke-width="1.5" stroke-linecap="round" stroke-linejoin="round"/>
<path d="M15 2H17.5C18.0912 1.99921 18.6767 2.11507 19.223 2.34094C19.7693 2.5668 20.2657 2.89824 20.6837 3.31626C21.1018 3.73428 21.4332 4.23067 21.6591 4.77699C21.8849 5.32332 22.0008 5.90883 22 6.5V9" stroke="#A5CF7C" stroke-width="1.5" stroke-linecap="round" stroke-linejoin="round"/>
<path d="M22 16V17.5C22.0008 18.0912 21.8849 18.6767 21.6591 19.223C21.4332 19.7693 21.1018 20.2657 20.6837 20.6837C20.2657 21.1018 19.7693 21.4332 19.223 21.6591C18.6767 21.8849 18.0912 22.0008 17.5 22H16" stroke="#A5CF7C" stroke-width="1.5" stroke-linecap="round" stroke-linejoin="round"/>
<path d="M9 22H6.5C5.90883 22.0008 5.32332 21.8849 4.77699 21.6591C4.23067 21.4332 3.73428 21.1018 3.31626 20.6837C2.89824 20.2657 2.5668 19.7693 2.34094 19.223C2.11507 18.6767 1.99921 18.0912 2 17.5V15" stroke="#A5CF7C" stroke-width="1.5" stroke-linecap="round" stroke-linejoin="round"/>
<path d="M11 8.5C11 8.99445 10.8534 9.4778 10.5787 9.88893C10.304 10.3 9.91353 10.6205 9.45671 10.8097C8.99989 10.9989 8.49723 11.0484 8.01228 10.952C7.52732 10.8555 7.08187 10.6174 6.73223 10.2678C6.3826 9.91814 6.1445 9.47268 6.04804 8.98773C5.95157 8.50277 6.00108 8.00011 6.1903 7.54329C6.37952 7.08648 6.69995 6.69603 7.11108 6.42133C7.5222 6.14662 8.00555 6 8.5 6C9.16304 6 9.79893 6.26339 10.2678 6.73223C10.7366 7.20107 11 7.83696 11 8.5Z" stroke="#A5CF7C" stroke-width="1.5" stroke-linecap="round" stroke-linejoin="round"/>
<path d="M9 16.5C9 16.7967 8.91203 17.0867 8.74721 17.3334C8.58238 17.58 8.34812 17.7723 8.07403 17.8858C7.79994 17.9994 7.49834 18.0291 7.20737 17.9712C6.91639 17.9133 6.64912 17.7704 6.43934 17.5607C6.22956 17.3509 6.0867 17.0836 6.02882 16.7926C5.97094 16.5017 6.00065 16.2001 6.11418 15.926C6.22771 15.6519 6.41997 15.4176 6.66665 15.2528C6.91332 15.088 7.20333 15 7.5 15C7.89783 15 8.27936 15.158 8.56066 15.4393C8.84197 15.7206 9 16.1022 9 16.5Z" stroke="#A5CF7C" stroke-width="1.5" stroke-linecap="round" stroke-linejoin="round"/>
<path d="M18 7.5C18 7.79667 17.912 8.08668 17.7472 8.33336C17.5824 8.58003 17.3481 8.77229 17.074 8.88582C16.7999 8.99935 16.4983 9.02906 16.2074 8.97118C15.9164 8.9133 15.6491 8.77044 15.4393 8.56066C15.2296 8.35088 15.0867 8.08361 15.0288 7.79264C14.9709 7.50166 15.0006 7.20006 15.1142 6.92597C15.2277 6.65189 15.42 6.41762 15.6666 6.2528C15.9133 6.08797 16.2033 6 16.5 6C16.8978 6 17.2794 6.15804 17.5607 6.43934C17.842 6.72064 18 7.10218 18 7.5Z" stroke="#A5CF7C" stroke-width="1.5" stroke-linecap="round" stroke-linejoin="round"/>
<path d="M18 15.5C18 15.9945 17.8534 16.4778 17.5787 16.8889C17.304 17.3 16.9135 17.6205 16.4567 17.8097C15.9999 17.9989 15.4972 18.0484 15.0123 17.952C14.5273 17.8555 14.0819 17.6174 13.7322 17.2678C13.3826 16.9181 13.1445 16.4727 13.048 15.9877C12.9516 15.5028 13.0011 15.0001 13.1903 14.5433C13.3795 14.0865 13.7 13.696 14.1111 13.4213C14.5222 13.1466 15.0055 13 15.5 13C16.163 13 16.7989 13.2634 17.2678 13.7322C17.7366 14.2011 18 14.837 18 15.5Z" stroke="#A5CF7C" stroke-width="1.5" stroke-linecap="round" stroke-linejoin="round"/>
</svg>
