<svg width="24" height="24" viewBox="0 0 24 24" fill="none" xmlns="http://www.w3.org/2000/svg">
<path d="M16.96 6.17004C17.9744 6.87369 18.8261 7.78682 19.4575 8.84777C20.0889 9.90872 20.4853 11.0928 20.62 12.32" stroke="#3C2415" stroke-width="1.5" stroke-linecap="round" stroke-linejoin="round"/>
<path d="M3.48999 12.37C3.61565 11.1471 4.00201 9.96543 4.62301 8.90455C5.24402 7.84366 6.08525 6.92823 7.08999 6.21997" stroke="#3C2415" stroke-width="1.5" stroke-linecap="round" stroke-linejoin="round"/>
<path d="M8.18994 20.94C9.38934 21.5476 10.7154 21.8628 12.0599 21.86C13.3518 21.8646 14.6276 21.5739 15.7899 21.01" stroke="#3C2415" stroke-width="1.5" stroke-linecap="round" stroke-linejoin="round"/>
<path d="M14.84 4.92001C14.84 5.46985 14.677 6.00733 14.3715 6.4645C14.066 6.92167 13.6319 7.27799 13.1239 7.4884C12.6159 7.69881 12.0569 7.75386 11.5177 7.6466C10.9784 7.53933 10.4831 7.27456 10.0943 6.88577C9.70548 6.49698 9.44071 6.00163 9.33345 5.46237C9.22618 4.9231 9.28123 4.36413 9.49165 3.85615C9.70206 3.34818 10.0584 2.914 10.5155 2.60853C10.9727 2.30306 11.5102 2.14001 12.06 2.14001C12.7973 2.14001 13.5044 2.43291 14.0258 2.95426C14.5471 3.47561 14.84 4.18271 14.84 4.92001V4.92001Z" stroke="#3C2415" stroke-width="1.5" stroke-linecap="round" stroke-linejoin="round"/>
<path d="M7.61005 17.14C7.61005 17.6898 7.44701 18.2273 7.14154 18.6845C6.83607 19.1416 6.40189 19.498 5.89391 19.7084C5.38593 19.9188 4.82697 19.9738 4.2877 19.8666C3.74843 19.7593 3.25308 19.4945 2.86429 19.1057C2.4755 18.717 2.21073 18.2216 2.10347 17.6823C1.9962 17.1431 2.05125 16.5841 2.26166 16.0761C2.47208 15.5681 2.8284 15.134 3.28556 14.8285C3.74273 14.523 4.28022 14.36 4.83005 14.36C5.56735 14.36 6.27446 14.6529 6.79581 15.1742C7.31716 15.6956 7.61005 16.4027 7.61005 17.14V17.14Z" stroke="#3C2415" stroke-width="1.5" stroke-linecap="round" stroke-linejoin="round"/>
<path d="M21.9499 17.14C21.9499 17.6898 21.7868 18.2273 21.4814 18.6845C21.1759 19.1416 20.7417 19.498 20.2338 19.7084C19.7258 19.9188 19.1668 19.9738 18.6275 19.8666C18.0883 19.7593 17.5929 19.4945 17.2041 19.1057C16.8153 18.717 16.5506 18.2216 16.4433 17.6823C16.336 17.1431 16.3911 16.5841 16.6015 16.0761C16.8119 15.5681 17.1682 15.134 17.6254 14.8285C18.0826 14.523 18.6201 14.36 19.1699 14.36C19.9072 14.36 20.6143 14.6529 21.1357 15.1742C21.657 15.6956 21.9499 16.4027 21.9499 17.14V17.14Z" stroke="#3C2415" stroke-width="1.5" stroke-linecap="round" stroke-linejoin="round"/>
</svg>
