<svg width="32" height="32" viewBox="0 0 32 32" fill="none" xmlns="http://www.w3.org/2000/svg">
<rect opacity="0.2" width="32" height="32" rx="10" fill="#F37F7F"/>
<path fill-rule="evenodd" clip-rule="evenodd" d="M9.92227 16L12.5448 18.6217C12.7077 18.7846 12.7077 19.0487 12.5448 19.2117C12.3818 19.3746 12.1177 19.3746 11.9548 19.2117L8.62143 15.8783C8.54307 15.8002 8.49902 15.694 8.49902 15.5833C8.49902 15.4726 8.54307 15.3665 8.62143 15.2883L11.9548 11.955C12.1177 11.7921 12.3818 11.7921 12.5448 11.955C12.7077 12.1179 12.7077 12.3821 12.5448 12.545L9.92227 15.1667H18.9164C19.1466 15.1667 19.3331 15.3532 19.3331 15.5833C19.3331 15.8135 19.1466 16 18.9164 16H9.92227ZM14.7498 9.33333C14.5196 9.33333 14.3331 9.14679 14.3331 8.91667C14.3331 8.68655 14.5196 8.5 14.7498 8.5H21.4164C22.567 8.5 23.4998 9.43274 23.4998 10.5833V21.4167C23.4998 22.5673 22.567 23.5 21.4164 23.5H14.7498C14.5196 23.5 14.3331 23.3135 14.3331 23.0833C14.3331 22.8532 14.5196 22.6667 14.7498 22.6667H21.4164C22.1068 22.6667 22.6664 22.107 22.6664 21.4167V10.5833C22.6664 9.89298 22.1068 9.33333 21.4164 9.33333H14.7498Z" fill="#F37F7F"/>
</svg>
