<svg width="49" height="50" viewBox="0 0 49 50" fill="none" xmlns="http://www.w3.org/2000/svg">
<path d="M28.0656 37.0816L25.498 37.259V49.3846H25.4987C25.5063 49.5476 25.6093 49.7024 25.8114 49.8191C26.2756 50.0871 27.0859 50.0535 27.6222 49.7441C27.8979 49.585 28.0461 49.3839 28.063 49.1896H28.0656V37.0816Z" fill="#B0C899"/>
<path d="M46.746 26.3111L44.1785 26.4884V38.6138H44.1791C44.1868 38.7767 44.2897 38.9315 44.4919 39.0482C44.956 39.3163 45.7663 39.2826 46.3026 38.9732C46.5783 38.8141 46.7265 38.6131 46.7434 38.4188H46.746V26.3111Z" fill="#B0C899"/>
<path d="M22.7208 2.12731L20.3244 0.742411L20.3233 0.744052C20.1624 0.635186 19.9741 0.57395 19.7799 0.567391C19.5858 0.560833 19.3938 0.609217 19.2259 0.706977L1.83816 10.7457C1.45657 10.966 1.1397 11.2829 0.919374 11.6644C0.699052 12.046 0.583048 12.4789 0.58302 12.9195V34.6688C0.582116 34.8541 0.63119 35.0363 0.725079 35.1962C0.818967 35.356 0.9542 35.4876 1.11655 35.5771L3.60028 37.0122C3.60685 37.0161 3.61331 37.0198 3.61959 37.0235L3.63407 37.0319L3.63465 37.031L22.7195 2.12847L22.7208 2.12731Z" fill="#B0C899"/>
<path d="M3.08862 36.117V14.3677C3.08865 13.9271 3.20466 13.4943 3.42498 13.1127C3.6453 12.7311 3.96218 12.4142 4.34376 12.1939L21.7311 2.15523C21.8895 2.06379 22.0691 2.01565 22.252 2.01567C22.4349 2.01569 22.6145 2.06385 22.7729 2.15532C22.9312 2.24679 23.0627 2.37834 23.154 2.53674C23.2454 2.69514 23.2935 2.87481 23.2934 3.05768V24.8065C23.2934 25.2471 23.1774 25.6799 22.957 26.0615C22.7367 26.4431 22.4198 26.76 22.0382 26.9803L4.65079 37.019C4.49247 37.1104 4.31287 37.1585 4.13006 37.1585C3.94725 37.1585 3.76766 37.1103 3.60934 37.0189C3.45102 36.9275 3.31956 36.7961 3.22815 36.6377C3.13675 36.4794 3.08862 36.2998 3.08862 36.117Z" fill="#B0C899"/>
<path d="M46.5105 30.5319L23.7614 17.3977C23.5388 17.2692 23.2863 17.2015 23.0292 17.2015C22.7721 17.2015 22.5196 17.2692 22.297 17.3977L3.32659 28.3504C3.2543 28.3916 3.19427 28.4513 3.15267 28.5233C3.11107 28.5954 3.08939 28.6772 3.08985 28.7604V34.1793C3.08939 34.2626 3.11107 34.3444 3.15267 34.4164C3.19427 34.4885 3.2543 34.5482 3.32659 34.5894L26.0756 47.7236C26.2983 47.8521 26.5508 47.9197 26.8078 47.9197C27.0649 47.9197 27.3174 47.8521 27.5401 47.7236L46.5106 36.771C46.5838 36.7292 46.6445 36.6684 46.6861 36.595C46.7277 36.5216 46.7487 36.4383 46.7469 36.3539H46.7474V30.9481C46.749 30.8639 46.7278 30.7808 46.6862 30.7076C46.6446 30.6344 46.584 30.5737 46.5108 30.5319H46.5105Z" fill="#B0C899"/>
<path d="M26.0745 42.3055L3.32551 29.171C3.25343 29.1296 3.19356 29.0698 3.15193 28.9978C3.1103 28.9258 3.08838 28.8441 3.08838 28.761C3.08838 28.6778 3.1103 28.5961 3.15193 28.5242C3.19356 28.4522 3.25343 28.3924 3.32551 28.3509L22.296 17.3983C22.5186 17.2698 22.7712 17.2021 23.0282 17.2021C23.2853 17.2021 23.5378 17.2698 23.7604 17.3983L46.5095 30.5325C46.5816 30.574 46.6414 30.6337 46.6831 30.7057C46.7247 30.7777 46.7466 30.8594 46.7466 30.9425C46.7466 31.0257 46.7247 31.1074 46.6831 31.1794C46.6414 31.2513 46.5816 31.3111 46.5095 31.3526L27.539 42.3055C27.3164 42.4341 27.0638 42.5018 26.8068 42.5018C26.5497 42.5018 26.2971 42.4341 26.0745 42.3055Z" fill="#B0C899"/>
<path d="M46.5105 25.113L23.7614 11.9788C23.5388 11.8503 23.2863 11.7826 23.0292 11.7826C22.7721 11.7826 22.5196 11.8503 22.297 11.9788L3.32659 22.9314C3.25431 22.9726 3.19428 23.0323 3.15268 23.1043C3.11108 23.1764 3.0894 23.2582 3.08985 23.3414V28.7604C3.08939 28.8436 3.11107 28.9255 3.15267 28.9975C3.19427 29.0696 3.2543 29.1293 3.32659 29.1705L26.0756 42.3049C26.2983 42.4335 26.5508 42.5011 26.8078 42.5011C27.0649 42.5011 27.3174 42.4335 27.5401 42.3049L46.5106 31.3521C46.5838 31.3103 46.6445 31.2495 46.6861 31.1761C46.7277 31.1026 46.7487 31.0194 46.7469 30.935H46.7474V25.5292C46.7489 25.445 46.7277 25.3618 46.686 25.2886C46.6443 25.2154 46.5837 25.1547 46.5105 25.113Z" fill="#B0C899"/>
<path d="M26.0745 36.8863L3.32551 23.7521C3.25343 23.7106 3.19356 23.6509 3.15193 23.5789C3.1103 23.5069 3.08838 23.4252 3.08838 23.3421C3.08838 23.2589 3.1103 23.1772 3.15193 23.1052C3.19356 23.0332 3.25343 22.9735 3.32551 22.932L22.296 11.9794C22.5186 11.8509 22.7712 11.7832 23.0282 11.7832C23.2853 11.7832 23.5378 11.8509 23.7604 11.9794L46.5095 25.1135C46.5816 25.155 46.6414 25.2148 46.6831 25.2868C46.7247 25.3587 46.7466 25.4404 46.7466 25.5236C46.7466 25.6067 46.7247 25.6884 46.6831 25.7604C46.6414 25.8324 46.5816 25.8922 46.5095 25.9336L27.539 36.8862C27.3164 37.0147 27.0638 37.0824 26.8068 37.0824C26.5497 37.0824 26.2972 37.0148 26.0745 36.8863Z" fill="#B0C899"/>
<path d="M17.4029 19.2952C17.3338 19.2354 17.254 19.1893 17.1676 19.1594L12.665 16.5598C12.5546 16.4604 12.4154 16.3985 12.2676 16.3832C12.1198 16.3678 11.9709 16.3998 11.8424 16.4744L5.61016 20.0724C5.30073 20.2511 5.04379 20.5081 4.86516 20.8176C4.68653 21.1271 4.59251 21.4782 4.59254 21.8355C4.59199 21.9648 4.62728 22.0917 4.69451 22.2021C4.76173 22.3125 4.85824 22.4021 4.97333 22.4609L9.64399 25.1578C9.75342 25.2338 9.88226 25.277 10.0154 25.2823C10.1485 25.2877 10.2804 25.2549 10.3955 25.1878L16.6274 21.5898C16.9369 21.4111 17.1939 21.1541 17.3726 20.8446C17.5513 20.5351 17.6454 20.184 17.6454 19.8266C17.6459 19.7258 17.6245 19.6261 17.5826 19.5344C17.5408 19.4427 17.4794 19.3612 17.4029 19.2956V19.2952Z" fill="#B0C899"/>
<path d="M10.3543 22.8128L16.5862 19.2148C16.6935 19.1528 16.8153 19.1202 16.9393 19.1202C17.0632 19.1202 17.185 19.1529 17.2924 19.2149C17.3997 19.2768 17.4889 19.366 17.5509 19.4733C17.6129 19.5807 17.6455 19.7025 17.6455 19.8265C17.6455 20.1838 17.5514 20.5349 17.3727 20.8444C17.194 21.154 16.937 21.411 16.6275 21.5896L10.3955 25.1876C10.2882 25.2496 10.1664 25.2822 10.0424 25.2822C9.91844 25.2822 9.79665 25.2496 9.6893 25.1876C9.58194 25.1256 9.49279 25.0365 9.4308 24.9291C9.36882 24.8218 9.33619 24.7 9.33618 24.576C9.33622 24.2186 9.43033 23.8675 9.60904 23.558C9.78776 23.2485 10.0448 22.9915 10.3543 22.8128Z" fill="#B0C899"/>
<path d="M27.1583 13.671C27.0892 13.6112 27.0094 13.5651 26.9231 13.5352L22.4205 10.9361C22.31 10.8366 22.1709 10.7748 22.0231 10.7594C21.8753 10.7441 21.7264 10.776 21.5979 10.8506L15.366 14.4486C15.0566 14.6273 14.7996 14.8842 14.6208 15.1936C14.4421 15.5031 14.348 15.8541 14.3479 16.2114C14.3474 16.3407 14.3827 16.4675 14.4499 16.5779C14.5171 16.6883 14.6136 16.7779 14.7287 16.8368L19.3994 19.5334C19.5088 19.6094 19.6376 19.6526 19.7708 19.6579C19.9039 19.6632 20.0358 19.6304 20.1509 19.5634L26.3828 15.9654C26.6923 15.7867 26.9493 15.5297 27.128 15.2202C27.3067 14.9107 27.4008 14.5596 27.4008 14.2022C27.4013 14.1014 27.3798 14.0017 27.3379 13.91C27.296 13.8183 27.2347 13.7368 27.1582 13.6712L27.1583 13.671Z" fill="#B0C899"/>
<path d="M20.1096 17.1887L26.3414 13.5907C26.4488 13.5286 26.5707 13.4959 26.6947 13.4958C26.8187 13.4958 26.9406 13.5284 27.048 13.5904C27.1555 13.6524 27.2447 13.7416 27.3067 13.849C27.3687 13.9564 27.4013 14.0783 27.4013 14.2023C27.4013 14.5597 27.3072 14.9108 27.1285 15.2203C26.9498 15.5298 26.6928 15.7869 26.3832 15.9655L20.1514 19.5635C20.044 19.6255 19.9222 19.6581 19.7983 19.6581C19.6743 19.6581 19.5525 19.6255 19.4452 19.5635C19.3378 19.5015 19.2486 19.4124 19.1867 19.305C19.1247 19.1976 19.092 19.0759 19.092 18.9519C19.092 18.5945 19.1861 18.2434 19.3648 17.9339C19.5435 17.6244 19.8005 17.3674 20.1101 17.1887H20.1096Z" fill="#B0C899"/>
<path d="M26.6484 45.928L48.1566 28.975V28.5598C48.1566 27.305 47.8263 26.0724 47.1989 24.9857C46.5715 23.899 45.6691 22.9966 44.5824 22.3693L31.6616 14.909C31.0289 14.5437 30.3111 14.3513 29.5805 14.3513C28.8498 14.3513 28.132 14.5437 27.4993 14.909L12.4431 23.6016C11.4076 24.1996 10.5386 25.0478 9.91587 26.0686C9.29309 27.0895 8.93639 28.2502 8.87842 29.4446L26.6484 45.928Z" fill="#B0C899"/>
<path d="M22.3364 33.4407L11.4058 27.1299C11.0541 26.9263 10.6409 26.8561 10.2417 26.9322C9.84256 27.0083 9.48417 27.2257 9.23218 27.5445L12.4794 37.7466V37.7478L26.6483 45.9286V40.9096C26.6483 39.3957 26.2498 37.9085 25.4928 36.5974C24.7358 35.2864 23.6471 34.1976 22.336 33.4407H22.3364Z" fill="#B0C899"/>
<path d="M31.1841 33.5057L44.1507 26.5735C44.5655 26.3518 45.0307 26.2413 45.5009 26.2528C45.9711 26.2644 46.4303 26.3975 46.8338 26.6393C47.2372 26.8811 47.5712 27.2233 47.803 27.6326C48.0349 28.0418 48.1568 28.5041 48.1568 28.9745V33.5107L26.6484 45.9287V41.0732C26.6484 39.5194 27.0703 37.9947 27.8691 36.6619C28.6679 35.3292 29.8136 34.2383 31.1838 33.5057H31.1841Z" fill="#B0C899"/>
<path d="M31.6616 14.9089C31.0289 14.5436 30.3111 14.3513 29.5805 14.3513C28.8498 14.3513 28.132 14.5436 27.4993 14.9089L12.443 23.6016C10.9256 24.4778 9.78295 25.881 9.23218 27.5444L13.4364 28.3022C14.0637 27.2149 14.9663 26.3121 16.0535 25.6846L31.1098 16.9919C31.7366 16.6301 32.4469 16.438 33.1706 16.4346C33.8943 16.4312 34.6064 16.6166 35.2366 16.9725L31.6616 14.9089Z" fill="#B0C899"/>
<path d="M12.4793 37.7465V31.8753C12.4792 30.6209 12.8092 29.3886 13.4363 28.3023L11.4056 27.1299C11.054 26.9262 10.6407 26.8561 10.2416 26.9322C9.84239 27.0083 9.484 27.2257 9.232 27.5445C8.98465 28.2678 8.86181 29.0278 8.86868 29.7921V35.6634L12.4793 37.7465Z" fill="#B0C899"/>
<g style="mix-blend-mode:luminosity">
<path d="M28.4826 36.5148L25.915 36.6922V48.8178H25.9157C25.9233 48.9808 26.0263 49.1355 26.2284 49.2523C26.6926 49.5203 27.5029 49.4867 28.0392 49.1772C28.3149 49.0181 28.4631 48.8171 28.48 48.6227H28.4826V36.5148Z" fill="url(#paint0_linear_115:208)"/>
<path d="M47.163 25.7442L44.5955 25.9216V38.0469H44.5961C44.6038 38.2099 44.7067 38.3647 44.9089 38.4814C45.373 38.7494 46.1833 38.7157 46.7196 38.4064C46.9953 38.2473 47.1435 38.0463 47.1604 37.852H47.163V25.7442Z" fill="url(#paint1_linear_115:208)"/>
<path d="M23.1378 1.56051L20.7414 0.175608L20.7403 0.177249C20.5794 0.0683829 20.3911 0.00714728 20.1969 0.000588414C20.0028 -0.00597045 19.8108 0.042414 19.6429 0.140174L2.25515 10.1789C1.87357 10.3992 1.55669 10.7161 1.33637 11.0976C1.11604 11.4792 1.00004 11.9121 1.00001 12.3527V34.102C0.999108 34.2873 1.04818 34.4695 1.14207 34.6294C1.23596 34.7892 1.37119 34.9208 1.53354 35.0103L4.01727 36.4454C4.02384 36.4493 4.03031 36.453 4.03658 36.4567L4.05106 36.4651L4.05164 36.4642L23.1365 1.56167L23.1378 1.56051Z" fill="url(#paint2_linear_115:208)"/>
<path d="M3.50586 35.5502V13.8009C3.50589 13.3603 3.62189 12.9274 3.84221 12.5458C4.06253 12.1643 4.37941 11.8474 4.761 11.6271L22.1484 1.58838C22.3067 1.49694 22.4864 1.44881 22.6692 1.44882C22.8521 1.44884 23.0317 1.497 23.1901 1.58847C23.3484 1.67994 23.4799 1.81149 23.5713 1.96989C23.6627 2.12829 23.7107 2.30796 23.7106 2.49083V24.2396C23.7106 24.6802 23.5946 25.1131 23.3743 25.4947C23.1539 25.8762 22.8371 26.1931 22.4555 26.4134L5.06803 36.4521C4.9097 36.5435 4.73011 36.5916 4.5473 36.5916C4.36449 36.5916 4.1849 36.5435 4.02658 36.4521C3.86826 36.3607 3.73679 36.2292 3.64539 36.0709C3.55398 35.9126 3.50586 35.733 3.50586 35.5502Z" fill="url(#paint3_linear_115:208)"/>
<path d="M46.927 29.9651L24.1779 16.8309C23.9553 16.7024 23.7028 16.6347 23.4457 16.6347C23.1886 16.6347 22.9361 16.7024 22.7135 16.8309L3.74309 27.7836C3.6708 27.8248 3.61078 27.8845 3.56917 27.9565C3.52757 28.0286 3.50589 28.1104 3.50636 28.1936V33.6125C3.50589 33.6957 3.52757 33.7776 3.56917 33.8496C3.61078 33.9217 3.6708 33.9814 3.74309 34.0226L26.4921 47.1567C26.7148 47.2853 26.9673 47.3529 27.2244 47.3529C27.4814 47.3529 27.734 47.2853 27.9566 47.1567L46.9271 36.2042C47.0003 36.1624 47.061 36.1015 47.1026 36.0281C47.1442 35.9547 47.1652 35.8715 47.1634 35.7871H47.1639V30.3813C47.1655 30.2971 47.1443 30.214 47.1027 30.1408C47.0611 30.0675 47.0005 30.0068 46.9274 29.9651H46.927Z" fill="url(#paint4_linear_115:208)"/>
<path d="M26.4918 41.7387L3.74274 28.6042C3.67067 28.5627 3.6108 28.503 3.56917 28.431C3.52753 28.359 3.50562 28.2773 3.50562 28.1942C3.50562 28.111 3.52753 28.0293 3.56917 27.9573C3.6108 27.8853 3.67067 27.8256 3.74274 27.7841L22.7132 16.8315C22.9359 16.703 23.1884 16.6353 23.4455 16.6353C23.7025 16.6353 23.955 16.703 24.1777 16.8315L46.9267 29.9656C46.9988 30.0071 47.0587 30.0669 47.1003 30.1388C47.1419 30.2108 47.1638 30.2925 47.1638 30.3757C47.1638 30.4588 47.1419 30.5405 47.1003 30.6125C47.0587 30.6845 46.9988 30.7443 46.9267 30.7857L27.9562 41.7387C27.7336 41.8672 27.4811 41.9349 27.224 41.9349C26.9669 41.9349 26.7144 41.8672 26.4918 41.7387Z" fill="#D7D1EB"/>
<path d="M46.927 24.5462L24.1779 11.412C23.9553 11.2835 23.7028 11.2158 23.4457 11.2158C23.1886 11.2158 22.9361 11.2835 22.7135 11.412L3.74309 22.3646C3.67081 22.4058 3.61079 22.4655 3.56919 22.5375C3.52758 22.6096 3.5059 22.6914 3.50636 22.7746V28.1936C3.50589 28.2768 3.52757 28.3587 3.56917 28.4307C3.61078 28.5028 3.6708 28.5625 3.74309 28.6037L26.4921 41.7381C26.7148 41.8666 26.9673 41.9343 27.2244 41.9343C27.4814 41.9343 27.734 41.8666 27.9566 41.7381L46.9271 30.7853C47.0003 30.7435 47.061 30.6827 47.1026 30.6092C47.1442 30.5358 47.1652 30.4526 47.1634 30.3682H47.1639V24.9624C47.1654 24.8782 47.1442 24.795 47.1025 24.7218C47.0608 24.6486 47.0002 24.5879 46.927 24.5462Z" fill="url(#paint5_linear_115:208)"/>
<path d="M26.4918 36.3194L3.74274 23.1853C3.67067 23.1438 3.6108 23.0841 3.56917 23.0121C3.52753 22.9401 3.50562 22.8584 3.50562 22.7752C3.50562 22.6921 3.52753 22.6104 3.56917 22.5384C3.6108 22.4664 3.67067 22.4067 3.74274 22.3652L22.7132 11.4125C22.9359 11.284 23.1884 11.2164 23.4455 11.2164C23.7025 11.2164 23.955 11.284 24.1777 11.4125L46.9267 24.5467C46.9988 24.5882 47.0587 24.6479 47.1003 24.7199C47.1419 24.7919 47.1638 24.8736 47.1638 24.9568C47.1638 25.0399 47.1419 25.1216 47.1003 25.1936C47.0587 25.2656 46.9988 25.3253 46.9267 25.3668L27.9562 36.3193C27.7336 36.4479 27.4811 36.5156 27.224 36.5156C26.9669 36.5156 26.7144 36.448 26.4918 36.3194Z" fill="#D7D1EB"/>
<path d="M17.8201 18.7284C17.7511 18.6686 17.6712 18.6224 17.5848 18.5926L13.0823 15.993C12.9718 15.8935 12.8327 15.8317 12.6849 15.8164C12.537 15.801 12.3882 15.8329 12.2597 15.9075L6.0274 19.5055C5.71797 19.6843 5.46103 19.9413 5.2824 20.2508C5.10377 20.5603 5.00975 20.9114 5.00977 21.2687C5.00922 21.398 5.04452 21.5248 5.11174 21.6352C5.17897 21.7456 5.27548 21.8352 5.39056 21.8941L10.0612 24.591C10.1707 24.667 10.2995 24.7102 10.4326 24.7155C10.5657 24.7208 10.6976 24.688 10.8128 24.621L17.0446 21.023C17.3541 20.8443 17.6111 20.5873 17.7898 20.2778C17.9685 19.9683 18.0626 19.6172 18.0627 19.2598C18.0632 19.159 18.0418 19.0593 17.9999 18.9676C17.958 18.8759 17.8967 18.7944 17.8201 18.7288V18.7284Z" fill="url(#paint6_linear_115:208)"/>
<path d="M10.7713 22.246L17.0032 18.648C17.1105 18.586 17.2323 18.5534 17.3563 18.5534C17.4802 18.5534 17.602 18.586 17.7094 18.648C17.8167 18.71 17.9059 18.7992 17.9679 18.9065C18.0299 19.0139 18.0625 19.1357 18.0625 19.2596C18.0625 19.617 17.9684 19.9681 17.7897 20.2776C17.611 20.5871 17.354 20.8441 17.0445 21.0228L10.8125 24.6208C10.7051 24.6828 10.5834 24.7154 10.4594 24.7154C10.3354 24.7154 10.2136 24.6828 10.1063 24.6208C9.99893 24.5588 9.90978 24.4696 9.8478 24.3623C9.78581 24.2549 9.75318 24.1331 9.75317 24.0092C9.75322 23.6518 9.84732 23.3007 10.026 22.9912C10.2047 22.6817 10.4618 22.4247 10.7713 22.246Z" fill="url(#paint7_linear_115:208)"/>
<path d="M27.5752 13.1042C27.5062 13.0444 27.4264 12.9983 27.3401 12.9684L22.8375 10.3693C22.727 10.2698 22.5879 10.208 22.4401 10.1926C22.2923 10.1773 22.1434 10.2092 22.0149 10.2838L15.783 13.8818C15.4735 14.0605 15.2165 14.3174 15.0378 14.6268C14.8591 14.9363 14.765 15.2873 14.7649 15.6446C14.7644 15.7739 14.7996 15.9007 14.8669 16.0111C14.9341 16.1215 15.0306 16.2111 15.1457 16.27L19.8164 18.9666C19.9258 19.0426 20.0546 19.0858 20.1877 19.0911C20.3209 19.0964 20.4528 19.0636 20.5679 18.9966L26.7998 15.3986C27.1093 15.2199 27.3663 14.9629 27.545 14.6534C27.7237 14.3439 27.8178 13.9928 27.8178 13.6354C27.8183 13.5346 27.7968 13.4349 27.7549 13.3432C27.713 13.2515 27.6517 13.17 27.5751 13.1044L27.5752 13.1042Z" fill="url(#paint8_linear_115:208)"/>
<path d="M20.5266 16.6219L26.7584 13.0239C26.8658 12.9618 26.9876 12.9291 27.1117 12.9291C27.2357 12.929 27.3576 12.9616 27.465 13.0236C27.5724 13.0856 27.6617 13.1748 27.7237 13.2822C27.7857 13.3897 27.8183 13.5115 27.8183 13.6356C27.8183 13.993 27.7242 14.3441 27.5455 14.6536C27.3668 14.9631 27.1098 15.2201 26.8002 15.3988L20.5684 18.9968C20.461 19.0587 20.3392 19.0914 20.2153 19.0914C20.0913 19.0913 19.9695 19.0587 19.8621 18.9967C19.7548 18.9347 19.6656 18.8456 19.6037 18.7382C19.5417 18.6309 19.509 18.5091 19.509 18.3851C19.509 18.0277 19.6031 17.6766 19.7818 17.3671C19.9605 17.0576 20.2175 16.8006 20.527 16.6219H20.5266Z" fill="url(#paint9_linear_115:208)"/>
<path d="M27.0654 45.3611L48.5736 28.4081V27.993C48.5736 26.7382 48.2433 25.5055 47.6159 24.4188C46.9885 23.3322 46.0861 22.4298 44.9994 21.8024L32.0786 14.3422C31.4459 13.9768 30.7281 13.7845 29.9975 13.7845C29.2668 13.7845 28.549 13.9768 27.9163 14.3422L12.8601 23.0348C11.8246 23.6328 10.9556 24.481 10.3329 25.5018C9.71009 26.5226 9.35338 27.6834 9.29541 28.8777L27.0654 45.3611Z" fill="#E9E5F6"/>
<path d="M22.7534 32.8738L11.8228 26.5631C11.4711 26.3594 11.0579 26.2892 10.6587 26.3654C10.2596 26.4415 9.90116 26.6589 9.64917 26.9777L12.8964 37.1797V37.181L27.0653 45.3618V40.3428C27.0653 38.8289 26.6667 37.3417 25.9098 36.0306C25.1528 34.7195 24.0641 33.6308 22.753 32.8738H22.7534Z" fill="url(#paint10_linear_115:208)"/>
<path d="M31.6011 32.9389L44.5677 26.0067C44.9825 25.785 45.4477 25.6745 45.9179 25.686C46.3881 25.6976 46.8473 25.8307 47.2508 26.0725C47.6542 26.3143 47.9881 26.6565 48.22 27.0657C48.4519 27.475 48.5738 27.9373 48.5738 28.4077V32.9438L27.0654 45.3619V40.5063C27.0654 38.9525 27.4873 37.4279 28.2861 36.0951C29.0849 34.7623 30.2305 33.6715 31.6008 32.9389H31.6011Z" fill="url(#paint11_linear_115:208)"/>
<path d="M32.0786 14.3421C31.4459 13.9767 30.7281 13.7844 29.9975 13.7844C29.2668 13.7844 28.549 13.9767 27.9163 14.3421L12.86 23.0348C11.3426 23.911 10.1999 25.3141 9.64917 26.9776L13.8534 27.7354C14.4807 26.6481 15.3833 25.7452 16.4705 25.1177L31.5267 16.425C32.1535 16.0632 32.8639 15.8711 33.5876 15.8677C34.3113 15.8644 35.0234 16.0498 35.6536 16.4057L32.0786 14.3421Z" fill="#F2EDFF"/>
<path d="M12.8966 37.1797V31.3085C12.8964 30.0541 13.2264 28.8218 13.8536 27.7355L11.8228 26.5631C11.4712 26.3594 11.058 26.2893 10.6588 26.3654C10.2596 26.4415 9.90123 26.6589 9.64923 26.9777C9.40189 27.701 9.27904 28.461 9.28592 29.2253V35.0966L12.8966 37.1797Z" fill="#E9E5F6"/>
</g>
<defs>
<linearGradient id="paint0_linear_115:208" x1="25.915" y1="42.974" x2="28.4826" y2="42.974" gradientUnits="userSpaceOnUse">
<stop stop-color="#8B451C"/>
<stop offset="1" stop-color="#BF942A"/>
</linearGradient>
<linearGradient id="paint1_linear_115:208" x1="44.5955" y1="32.2033" x2="47.163" y2="32.2033" gradientUnits="userSpaceOnUse">
<stop stop-color="#8B451C"/>
<stop offset="1" stop-color="#BF942A"/>
</linearGradient>
<linearGradient id="paint2_linear_115:208" x1="6.99934" y1="16.3364" x2="9.25879" y2="14.884" gradientUnits="userSpaceOnUse">
<stop stop-color="#252336"/>
<stop offset="1" stop-color="#594A8E"/>
</linearGradient>
<linearGradient id="paint3_linear_115:208" x1="13.6082" y1="26.0136" x2="13.6082" y2="10.586" gradientUnits="userSpaceOnUse">
<stop stop-color="#594A8E"/>
<stop offset="1" stop-color="#7662BD"/>
</linearGradient>
<linearGradient id="paint4_linear_115:208" x1="25.9464" y1="31.9938" x2="28.5222" y2="31.9938" gradientUnits="userSpaceOnUse">
<stop stop-color="#8B451C"/>
<stop offset="1" stop-color="#BF942A"/>
</linearGradient>
<linearGradient id="paint5_linear_115:208" x1="25.9464" y1="26.575" x2="28.5222" y2="26.575" gradientUnits="userSpaceOnUse">
<stop stop-color="#C5BAEB"/>
<stop offset="1" stop-color="#E9E5F6"/>
</linearGradient>
<linearGradient id="paint6_linear_115:208" x1="8.87342" y1="24.8852" x2="9.67797" y2="21.8837" gradientUnits="userSpaceOnUse">
<stop stop-color="#C5BAEB"/>
<stop offset="1" stop-color="#E9E5F6"/>
</linearGradient>
<linearGradient id="paint7_linear_115:208" x1="9.75317" y1="21.6344" x2="18.0625" y2="21.6344" gradientUnits="userSpaceOnUse">
<stop stop-color="#C5BAEB"/>
<stop offset="1" stop-color="#E9E5F6"/>
</linearGradient>
<linearGradient id="paint8_linear_115:208" x1="18.6285" y1="19.2608" x2="19.433" y2="16.2595" gradientUnits="userSpaceOnUse">
<stop stop-color="#C5BAEB"/>
<stop offset="1" stop-color="#E9E5F6"/>
</linearGradient>
<linearGradient id="paint9_linear_115:208" x1="19.509" y1="16.0102" x2="27.8183" y2="16.0102" gradientUnits="userSpaceOnUse">
<stop stop-color="#C5BAEB"/>
<stop offset="1" stop-color="#E9E5F6"/>
</linearGradient>
<linearGradient id="paint10_linear_115:208" x1="12.4358" y1="31.9101" x2="26.8803" y2="38.9013" gradientUnits="userSpaceOnUse">
<stop stop-color="#D7D1EB"/>
<stop offset="1" stop-color="#E7E3F3"/>
</linearGradient>
<linearGradient id="paint11_linear_115:208" x1="28.7216" y1="39.4982" x2="46.7155" y2="27.091" gradientUnits="userSpaceOnUse">
<stop stop-color="#D7D1EB"/>
<stop offset="1" stop-color="#E7E3F3"/>
</linearGradient>
</defs>
</svg>
