<svg width="14" height="14" viewBox="0 0 14 14" fill="none" xmlns="http://www.w3.org/2000/svg">
<path d="M8.97749 3.03912L9.79999 4.68412C9.87019 4.80679 9.96497 4.91364 10.0784 4.99796C10.1918 5.08228 10.3215 5.14225 10.4592 5.17412L11.9467 5.41912C12.8975 5.57662 13.1192 6.26496 12.4367 6.95329L11.2758 8.11412C11.1746 8.22785 11.1005 8.36306 11.0591 8.50956C11.0176 8.65607 11.01 8.81006 11.0367 8.95996L11.3692 10.395C11.6317 11.5266 11.025 11.97 10.0275 11.375L8.6339 10.5466C8.49175 10.472 8.33361 10.433 8.17307 10.433C8.01253 10.433 7.85439 10.472 7.71224 10.5466L6.31807 11.375C5.32057 11.9641 4.7139 11.5266 4.9764 10.395L5.3089 8.96054C5.33116 8.80889 5.32026 8.65421 5.27696 8.50718C5.23365 8.36015 5.15897 8.22425 5.05807 8.10887L3.89665 6.94746C3.21415 6.26496 3.43582 5.57662 4.38665 5.41329L5.87415 5.16829C6.01228 5.1375 6.14237 5.07794 6.25594 4.99352C6.36951 4.90909 6.46403 4.80168 6.53332 4.67829L7.35582 3.03329C7.80499 2.14662 8.52832 2.14662 8.97749 3.03912Z" fill="white"/>
<path d="M4.66666 3.35419H1.16666C1.05086 3.35342 0.940024 3.30708 0.858142 3.2252C0.77626 3.14332 0.729921 3.03248 0.729156 2.91669C0.729921 2.80089 0.77626 2.69005 0.858142 2.60817C0.940024 2.52629 1.05086 2.47995 1.16666 2.47919H4.66666C4.78245 2.47995 4.89329 2.52629 4.97517 2.60817C5.05705 2.69005 5.10339 2.80089 5.10416 2.91669C5.10339 3.03248 5.05705 3.14332 4.97517 3.2252C4.89329 3.30708 4.78245 3.35342 4.66666 3.35419Z" fill="white"/>
<path d="M2.91666 11.5208H1.16666C1.05086 11.52 0.940024 11.4737 0.858142 11.3918C0.77626 11.3099 0.729921 11.1991 0.729156 11.0833C0.729921 10.9675 0.77626 10.8567 0.858142 10.7748C0.940024 10.6929 1.05086 10.6466 1.16666 10.6458H2.91666C3.03245 10.6466 3.14329 10.6929 3.22517 10.7748C3.30705 10.8567 3.35339 10.9675 3.35416 11.0833C3.35339 11.1991 3.30705 11.3099 3.22517 11.3918C3.14329 11.4737 3.03245 11.52 2.91666 11.5208Z" fill="white"/>
<path d="M1.74999 7.4375H1.16666C1.05086 7.43674 0.940024 7.3904 0.858142 7.30851C0.77626 7.22663 0.729921 7.1158 0.729156 7C0.729921 6.8842 0.77626 6.77337 0.858142 6.69149C0.940024 6.6096 1.05086 6.56326 1.16666 6.5625H1.74999C1.86579 6.56326 1.97662 6.6096 2.0585 6.69149C2.14039 6.77337 2.18673 6.8842 2.18749 7C2.18673 7.1158 2.14039 7.22663 2.0585 7.30851C1.97662 7.3904 1.86579 7.43674 1.74999 7.4375Z" fill="white"/>
</svg>
