<svg width="14" height="14" viewBox="0 0 14 14" fill="none" xmlns="http://www.w3.org/2000/svg">
<path d="M12.25 3.48832C10.3075 3.29582 8.35333 3.19666 6.405 3.19666C5.24779 3.19677 4.09133 3.25517 2.94 3.37166L1.75 3.48832" stroke="white" stroke-linecap="round" stroke-linejoin="round"/>
<path d="M4.9585 2.89913L5.08683 2.13496C5.18016 1.58079 5.25016 1.16663 6.236 1.16663H7.76433C8.75016 1.16663 8.826 1.60413 8.9135 2.14079L9.04183 2.89913" stroke="white" stroke-linecap="round" stroke-linejoin="round"/>
<path d="M10.9961 5.33167L10.6169 11.2058C10.5527 12.1217 10.5002 12.8333 8.87273 12.8333H5.12773C3.50023 12.8333 3.44773 12.1217 3.38356 11.2058L3.00439 5.33167" stroke="white" stroke-linecap="round" stroke-linejoin="round"/>
<path d="M6.02588 9.625H7.96838" stroke="white" stroke-linecap="round" stroke-linejoin="round"/>
<path d="M5.5415 7.29163H8.45817" stroke="white" stroke-linecap="round" stroke-linejoin="round"/>
</svg>
