<svg width="24" height="24" viewBox="0 0 24 24" fill="none" xmlns="http://www.w3.org/2000/svg">
<path d="M17 7C17 7.98891 16.7068 8.95561 16.1573 9.77785C15.6079 10.6001 14.8271 11.241 13.9134 11.6194C12.9998 11.9978 11.9945 12.0969 11.0246 11.9039C10.0546 11.711 9.16373 11.2348 8.46447 10.5355C7.76521 9.83627 7.289 8.94536 7.09608 7.97545C6.90315 7.00555 7.00217 6.00021 7.3806 5.08658C7.75904 4.17295 8.39991 3.39206 9.22215 2.84265C10.0444 2.29324 11.0111 2 12 2C13.3261 2 14.5979 2.52678 15.5355 3.46447C16.4732 4.40215 17 5.67392 17 7Z" stroke="#A5CF7C" stroke-width="1.5" stroke-linecap="round" stroke-linejoin="round"/>
<path d="M19.2098 15.74L15.6708 19.28C15.5189 19.4456 15.4152 19.6497 15.3708 19.87L15.1808 21.22C15.157 21.3247 15.1602 21.4337 15.1899 21.5368C15.2197 21.64 15.2751 21.7339 15.351 21.8098C15.4269 21.8857 15.5209 21.9412 15.624 21.9709C15.7272 22.0007 15.8362 22.0038 15.9408 21.98L17.2908 21.79C17.5119 21.7479 17.7165 21.6438 17.8808 21.49L21.4208 17.95C21.5974 17.8237 21.7412 17.6571 21.8404 17.464C21.9397 17.271 21.9914 17.0571 21.9914 16.84C21.9914 16.623 21.9397 16.409 21.8404 16.216C21.7412 16.0229 21.5974 15.8563 21.4208 15.73C21.2942 15.5549 21.1276 15.4125 20.9349 15.3146C20.7422 15.2167 20.5289 15.1662 20.3128 15.1671C20.0966 15.1681 19.8839 15.2206 19.692 15.3202C19.5002 15.4198 19.3349 15.5637 19.2098 15.74V15.74Z" stroke="#A5CF7C" stroke-width="1.5" stroke-linecap="round" stroke-linejoin="round"/>
<path d="M18.6997 16.25C18.8465 16.7803 19.1281 17.2635 19.5172 17.6525C19.9062 18.0416 20.3894 18.3232 20.9197 18.47" stroke="#A5CF7C" stroke-width="1.5" stroke-linecap="round" stroke-linejoin="round"/>
<path d="M3.41016 22C3.41016 18.13 7.26016 15 12.0002 15C13.0058 14.9976 14.0065 15.1425 14.9702 15.43" stroke="#A5CF7C" stroke-width="1.5" stroke-linecap="round" stroke-linejoin="round"/>
</svg>
