<svg width="24" height="24" viewBox="0 0 24 24" fill="none" xmlns="http://www.w3.org/2000/svg">
<path d="M12 7.75V13" stroke="#A5CF7C" stroke-width="1.5" stroke-linecap="round" stroke-linejoin="round"/>
<path d="M21.0802 8.58002V15.42C21.0786 15.9723 20.933 16.5147 20.6576 16.9935C20.3823 17.4723 19.9868 17.8709 19.5102 18.15L13.5702 21.58C13.0909 21.8552 12.5478 22 11.9952 22C11.4425 22 10.8994 21.8552 10.4202 21.58L4.48016 18.15C4.00193 17.8727 3.60509 17.4745 3.32951 16.9953C3.05392 16.5161 2.9093 15.9728 2.91016 15.42V8.58002C2.91171 8.02771 3.05735 7.48536 3.3327 7.00657C3.60804 6.52778 4.00356 6.12913 4.48016 5.85002L10.4202 2.42002C10.8994 2.14482 11.4425 2 11.9952 2C12.5478 2 13.0909 2.14482 13.5702 2.42002L19.5102 5.85002C19.9876 6.12822 20.3837 6.52666 20.6592 7.00566C20.9347 7.48465 21.0798 8.02747 21.0802 8.58002V8.58002Z" stroke="#A5CF7C" stroke-width="1.5" stroke-linecap="round" stroke-linejoin="round"/>
<path d="M12 16.2V16.3" stroke="#A5CF7C" stroke-width="2" stroke-linecap="round" stroke-linejoin="round"/>
</svg>
